<svg xmlns="http://www.w3.org/2000/svg" width="83" height="57" viewBox="0 0 83 57">
    <g fill="none" fill-rule="evenodd">
        <path fill="#32C2FF" d="M30.48 3.12a1.578 1.578 0 0 1-.282-2.218A1.591 1.591 0 0 1 32.425.62c.693.535.82 1.528.282 2.219a1.591 1.591 0 0 1-2.227.28M60.217 6.248a1.002 1.002 0 0 1 0-1.42 1.01 1.01 0 0 1 1.425 0 1.002 1.002 0 0 1 0 1.42 1.01 1.01 0 0 1-1.425 0"/>
        <path fill="#79D7FF" d="M18.035 16.865a1.002 1.002 0 0 1 0-1.42 1.01 1.01 0 0 1 1.425 0 1.002 1.002 0 0 1 0 1.42 1.01 1.01 0 0 1-1.425 0"/>
        <path fill="#7DD8FF" d="M22.123 11.522a.716.716 0 0 1 0-1.015.721.721 0 0 1 1.018 0 .715.715 0 0 1 0 1.015.722.722 0 0 1-1.018 0M6.525 25.399a1.002 1.002 0 0 1 0-1.42 1.01 1.01 0 0 1 1.426 0 1.002 1.002 0 0 1 0 1.42 1.01 1.01 0 0 1-1.426 0M5.308 53.011a1.002 1.002 0 0 1 0-1.42 1.01 1.01 0 0 1 1.426 0 1.002 1.002 0 0 1 0 1.42 1.01 1.01 0 0 1-1.426 0"/>
        <path fill="#89DCFF" d="M.667 32.922a.7.7 0 0 1 0-.992.707.707 0 0 1 .996 0 .7.7 0 0 1 0 .992.707.707 0 0 1-.996 0"/>
        <path fill="#32C2FF" d="M11.354 13.339a1.002 1.002 0 0 1 0-1.42 1.01 1.01 0 0 1 1.425 0 1.002 1.002 0 0 1 0 1.42 1.01 1.01 0 0 1-1.425 0"/>
        <path fill="#90DEFF" d="M67.692 19.265a.907.907 0 0 1 0-1.286.914.914 0 0 1 1.291 0 .905.905 0 0 1 0 1.286.915.915 0 0 1-1.29 0M80.766 25.95a.907.907 0 0 1 0-1.287.914.914 0 0 1 1.291 0 .905.905 0 0 1 0 1.286.915.915 0 0 1-1.29 0"/>
        <path fill="#89DCFF" d="M75.665 56.628a.907.907 0 0 1 0-1.286.914.914 0 0 1 1.29 0 .905.905 0 0 1 0 1.286.915.915 0 0 1-1.29 0"/>
        <path fill="#32C2FF" d="M70.7 18.373a1.328 1.328 0 0 1 0-1.884 1.34 1.34 0 0 1 1.89 0c.523.52.523 1.364 0 1.884a1.34 1.34 0 0 1-1.89 0"/>
    </g>
</svg>
