<svg xmlns="http://www.w3.org/2000/svg" width="81" height="109" viewBox="0 0 81 109">
    <defs>
        <linearGradient id="a" x1="77.338%" x2="12.626%" y1="-15.891%" y2="68.683%">
            <stop offset="0%" stop-color="#FFD131"/>
            <stop offset="100%" stop-color="#FFD239"/>
        </linearGradient>
        <linearGradient id="b" x1="50%" x2="50%" y1="0%" y2="98.96%">
            <stop offset="0%" stop-color="#FFE164"/>
            <stop offset="100%" stop-color="#FFD136"/>
        </linearGradient>
        <linearGradient id="c" x1="50%" x2="50%" y1="3.083%" y2="98.673%">
            <stop offset="0%" stop-color="#FFD62D"/>
            <stop offset="100%" stop-color="#FF7F05"/>
        </linearGradient>
        <linearGradient id="d" x1="50%" x2="50%" y1="0%" y2="100%">
            <stop offset="0%" stop-color="#FFBF23"/>
            <stop offset="100%" stop-color="#FFD236"/>
        </linearGradient>
        <linearGradient id="e" x1="50%" x2="50%" y1="0%" y2="100%">
            <stop offset="0%" stop-color="#FFE378"/>
            <stop offset="100%" stop-color="#FFEC69"/>
        </linearGradient>
        <linearGradient id="f" x1="100%" x2="21.247%" y1="-13.426%" y2="100%">
            <stop offset="0%" stop-color="#FFE061"/>
            <stop offset="100%" stop-color="#FFE888"/>
        </linearGradient>
        <linearGradient id="g" x1="115.599%" x2="50%" y1="20.078%" y2="100%">
            <stop offset="0%" stop-color="#FFE965"/>
            <stop offset="100%" stop-color="#FFCF35"/>
        </linearGradient>
    </defs>
    <g fill="none" fill-rule="evenodd">
        <path fill="#FFCE35" d="M43.844 83.65l.298-.027-3.277-37.459-.298.026z"/>
        <path fill="#FFCE35" d="M59.42 50.714l-.235-.193-16.22 33.495.045.51z"/>
        <path fill="#FFCE35" d="M24.197 55.072l-.257.23 21.79 30.17.3-.027z"/>
        <path fill="url(#a)" d="M57.261 57.833s11.098 1.328 17.995-5.056c8.738-8.089 9.008-20.62-.037-26.16-9.725-5.955-18.989 1.209-22.63 8.746-5.43 11.246 3.117 21.518 3.117 21.518l-2.334.75 4.145 2.402-.256-2.2z" transform="rotate(-5 41 53)"/>
        <path fill="url(#b)" d="M27.471 57.466s6.289-9.228 3.791-18.283c-3.166-11.473-14.18-17.481-23.267-12.01-9.77 5.88-7.668 17.392-2.645 24.09 7.495 9.993 20.558 7.144 20.558 7.144l-.407 2.414 4.042-2.57-2.072-.785z" transform="rotate(-5 41 53)"/>
        <path fill="url(#c)" d="M42.761 46.653s13.862-6.17 16.424-17.457C62.4 15.026 55.42 0 41.405 0 26.338 0 20.858 14.187 21.97 24.982c1.657 16.102 18.381 21.67 18.381 21.67l-2.109 2.409 6.328-.151-1.808-2.257z" transform="rotate(-5 41 53)"/>
        <path fill="url(#d)" d="M27.155 11.389c-2.403 4.909-1.696 11.687 2.404 10.124C33.658 19.95 40.3 6.998 37.174 4.635 34.048 2.27 29.56 6.48 27.155 11.389z" transform="rotate(-5 41 53)"/>
        <path fill="url(#e)" d="M59.298 32.564c-1.137 2.572-3.502 6.4 0 7.308 1.207.313 2.92-.979 5.598-4.736 2.679-3.756 3.137-6.514 1.686-7.61-2.615-1.977-6.148 2.466-7.284 5.038z" transform="rotate(6 78.64 15.565)"/>
        <path fill="url(#f)" d="M5.18 40.591c-1.818 3.713-1.283 8.84 1.817 7.658 3.1-1.182 8.125-10.979 5.76-12.766-2.365-1.787-5.76 1.396-7.578 5.108z" transform="rotate(-49 11.453 44.07)"/>
        <path fill="url(#g)" d="M69.744 104.077c-.378-.736-.106-1.65.608-2.04a1.41 1.41 0 0 1 .648-.17v-1.097a1.45 1.45 0 0 1-1.256-.795c-.378-.736-.106-1.65.608-2.04a1.41 1.41 0 0 1 .648-.169V96.67a1.45 1.45 0 0 1-1.256-.795c-.378-.736-.106-1.65.608-2.04a1.41 1.41 0 0 1 .648-.17v-1.097c-.51-.014-1-.297-1.256-.795-.378-.736-.106-1.65.608-2.04a1.41 1.41 0 0 1 .648-.169v-1.097c-.51-.014-1-.297-1.256-.795-.378-.736-.106-1.65.608-2.04.208-.113.428-.165.648-.17v-1.097c-.51-.014-1-.297-1.256-.795-.378-.736-.106-1.65.608-2.04.208-.113.428-.164.648-.17V80H12v1.418a1.453 1.453 0 0 1 1.331.796c.379.736.107 1.65-.608 2.04-.231.126-.479.175-.723.168v1.097a1.453 1.453 0 0 1 1.331.796c.379.737.107 1.65-.608 2.04-.231.127-.479.176-.723.17v1.096a1.453 1.453 0 0 1 1.331.796c.379.736.107 1.65-.608 2.04-.231.126-.479.175-.723.169v1.096a1.453 1.453 0 0 1 1.331.796c.379.737.107 1.65-.608 2.04-.231.127-.479.176-.723.17v1.096a1.454 1.454 0 0 1 1.331.796c.379.736.107 1.65-.608 2.04-.231.126-.479.175-.723.169v1.096a1.454 1.454 0 0 1 1.331.796c.379.737.107 1.65-.608 2.04-.231.127-.479.176-.723.17V106h59v-1.128a1.45 1.45 0 0 1-1.256-.795" transform="rotate(-5 41 53)"/>
        <path fill="#FFA600" d="M20.79 85.887l47.817-4.184.261 2.989-47.817 4.183zM21.138 89.871l47.817-4.183.262 2.989-47.818 4.183zM49.554 93.408l19.924-1.743.697 7.97-19.923 1.743z"/>
    </g>
</svg>
