<svg xmlns="http://www.w3.org/2000/svg" xmlns:xlink="http://www.w3.org/1999/xlink" width="75" height="85" viewBox="0 0 75 85">
    <defs>
        <linearGradient id="a" x1="50%" x2="50%" y1="0%" y2="99.761%">
            <stop offset="0%" stop-color="#BCF3FF"/>
            <stop offset="100%" stop-color="#44DEFF"/>
        </linearGradient>
        <linearGradient id="b" x1="50%" x2="50%" y1="0%" y2="100%">
            <stop offset="0%" stop-color="#B8F2FF"/>
            <stop offset="100%" stop-color="#4CE0FF"/>
        </linearGradient>
        <linearGradient id="c" x1="50%" x2="50%" y1="3.083%" y2="100%">
            <stop offset="0%" stop-color="#95ECFF"/>
            <stop offset="100%" stop-color="#40DDFF"/>
        </linearGradient>
        <linearGradient id="d" x1="50%" x2="50%" y1="0%" y2="100%">
            <stop offset="0%" stop-color="#E2FAFF"/>
            <stop offset="100%" stop-color="#A1EAFF"/>
        </linearGradient>
        <linearGradient id="e" x1="50%" x2="50%" y1="0%" y2="100%">
            <stop offset="0%" stop-color="#FFF"/>
            <stop offset="100%" stop-color="#ACF0FF"/>
        </linearGradient>
        <linearGradient id="f" x1="100%" x2="21.247%" y1="-13.426%" y2="100%">
            <stop offset="0%" stop-color="#F8FEFF"/>
            <stop offset="100%" stop-color="#A8ECFF"/>
        </linearGradient>
        <path id="g" d="M0 1.594V.069h1.53v1.525H0z"/>
        <path id="i" d="M2.238.176v2.071H.159V.176h2.079z"/>
    </defs>
    <g fill="none" fill-rule="evenodd">
        <path fill="#FFF" d="M42.104 63.624l.226-.036-4.476-28.261-.226.036z"/>
        <path fill="#FFF" d="M52.228 37.788l-.19-.134L41.456 63.95l.06.384z"/>
        <path fill="#FFF" d="M25.629 42.98l-.184.189 18.192 21.737.227-.036z"/>
        <path fill="url(#a)" d="M43.134 44.008s8.475 1.01 13.74-3.848c6.673-6.155 6.88-15.691-.027-19.906-7.426-4.532-14.5.92-17.28 6.656-4.147 8.557 2.38 16.373 2.38 16.373l-1.782.57 3.165 1.829-.196-1.674z" transform="rotate(-9 35.654 -7.87)"/>
        <path fill="url(#b)" d="M20.387 43.728s4.801-7.022 2.894-13.912c-2.417-8.73-10.827-13.302-17.766-9.14-7.461 4.475-5.856 13.235-2.02 18.333 5.722 7.603 15.698 5.435 15.698 5.435l-.311 1.838 3.087-1.956-1.582-.598z" transform="rotate(-9 35.654 -7.87)"/>
        <path fill="url(#c)" d="M32.062 35.5s10.585-4.695 12.54-13.284C47.059 11.435 41.73 0 31.028 0 19.52 0 15.337 10.796 16.185 19.01 17.45 31.263 30.22 35.5 30.22 35.5l-1.61 1.833 4.832-.115-1.381-1.718z" transform="rotate(-9 35.654 -7.87)"/>
        <path fill="url(#d)" d="M20.145 8.666c-1.835 3.736-1.295 8.894 1.835 7.704 3.13-1.189 8.203-11.045 5.816-12.843-2.388-1.799-5.816 1.404-7.65 5.14z" transform="rotate(-9 35.654 -7.87)"/>
        <path fill="url(#e)" d="M44.69 24.78c-.869 1.957-2.675 4.87 0 5.56.92.238 2.229-.744 4.274-3.603 2.046-2.859 2.395-4.957 1.288-5.791-1.997-1.505-4.695 1.876-5.563 3.834z" transform="rotate(2 112.562 169.756)"/>
        <path fill="url(#f)" d="M3.364 30.888c-1.388 2.825-.98 6.726 1.388 5.827 2.368-.9 6.204-8.354 4.399-9.714-1.806-1.36-4.399 1.062-5.787 3.887z" transform="rotate(-53 13.522 27.22)"/>
        <g transform="rotate(-9 204.854 15.201)">
            <mask id="h" fill="#fff">
                <use xlink:href="#g"/>
            </mask>
            <path fill="#32C2FF" d="M.224 1.37a.76.76 0 0 1 0-1.078.767.767 0 0 1 1.082 0 .76.76 0 0 1 0 1.078.767.767 0 0 1-1.082 0" mask="url(#h)"/>
        </g>
        <g transform="rotate(-9 212.389 -443.878)">
            <mask id="j" fill="#fff">
                <use xlink:href="#i"/>
            </mask>
            <path fill="#32C2FF" d="M.463 1.944a1.032 1.032 0 0 1 0-1.464 1.04 1.04 0 0 1 1.47 0 1.03 1.03 0 0 1 0 1.464 1.042 1.042 0 0 1-1.47 0" mask="url(#j)"/>
        </g>
        <path fill="#77E7FF" d="M67.285 76.63a1.12 1.12 0 0 1 .7-1.776l-.128-.807a1.124 1.124 0 0 1-1.05-.433 1.12 1.12 0 0 1 .7-1.775l-.127-.807a1.124 1.124 0 0 1-1.05-.433 1.12 1.12 0 0 1 .7-1.776l-.128-.807a1.125 1.125 0 0 1-1.05-.433 1.12 1.12 0 0 1 .7-1.775L66.424 65a1.125 1.125 0 0 1-1.05-.433 1.12 1.12 0 0 1 .7-1.776l-.127-.807a1.125 1.125 0 0 1-1.05-.433 1.12 1.12 0 0 1 .7-1.776l-.158-1L20.46 65.9l.165 1.043c.408-.075.841.072 1.108.424a1.12 1.12 0 0 1-.758 1.784l.128.807a1.12 1.12 0 1 1 .35 2.21l.127.806c.408-.075.842.072 1.108.424a1.12 1.12 0 0 1-.758 1.785l.128.806a1.12 1.12 0 1 1 .35 2.21l.127.806a1.13 1.13 0 0 1 1.108.424 1.12 1.12 0 0 1-.758 1.785l.128.806a1.13 1.13 0 0 1 1.108.425 1.12 1.12 0 0 1-.758 1.784l.124.787 44.978-7.124-.131-.83a1.124 1.124 0 0 1-1.05-.432"/>
        <path fill="#00C1F8" d="M25.315 67.437l35.982-5.7.357 2.25-35.983 5.698zM25.85 70.81l35.982-5.699.356 2.25-35.982 5.698z"/>
        <path fill="#FFF" d="M46.801 72.103l15.742-2.494.89 5.622-15.741 2.494z"/>
    </g>
</svg>
