<svg xmlns="http://www.w3.org/2000/svg" width="96" height="39" viewBox="0 0 96 39">
    <g fill="none" fill-rule="evenodd">
        <path fill="#16A1D8" d="M43.885 2.832a1.578 1.578 0 0 1-.282-2.22 1.591 1.591 0 0 1 2.228-.28c.693.535.819 1.529.282 2.219a1.591 1.591 0 0 1-2.228.28M55.184 11.537a1.002 1.002 0 0 1 0-1.42 1.01 1.01 0 0 1 1.426 0 1.002 1.002 0 0 1 0 1.42 1.01 1.01 0 0 1-1.426 0"/>
        <path fill="#21AEE4" d="M14.74 13.848a1.002 1.002 0 0 1 0-1.42 1.01 1.01 0 0 1 1.425 0 1.002 1.002 0 0 1 0 1.42 1.01 1.01 0 0 1-1.425 0M35.528 11.233a.716.716 0 0 1 0-1.015.721.721 0 0 1 1.018 0 .715.715 0 0 1 0 1.015.722.722 0 0 1-1.018 0M12.429 25.403a1.002 1.002 0 0 1 0-1.42 1.01 1.01 0 0 1 1.425 0 1.002 1.002 0 0 1 0 1.42 1.01 1.01 0 0 1-1.425 0M.295 38.692a1.002 1.002 0 0 1 0-1.42 1.01 1.01 0 0 1 1.426 0 1.002 1.002 0 0 1 0 1.42 1.01 1.01 0 0 1-1.426 0M14.073 32.634a.7.7 0 0 1 0-.993.707.707 0 0 1 .996 0 .7.7 0 0 1 0 .993.707.707 0 0 1-.996 0"/>
        <path fill="#16A1D8" d="M24.76 13.05a1.002 1.002 0 0 1 0-1.42 1.01 1.01 0 0 1 1.425 0 1.002 1.002 0 0 1 0 1.42 1.01 1.01 0 0 1-1.426 0"/>
        <path fill="#21AEE4" d="M75.378 10.22a.907.907 0 0 1 0-1.286.914.914 0 0 1 1.291 0 .905.905 0 0 1 0 1.285.915.915 0 0 1-1.29 0M94.172 25.66a.907.907 0 0 1 0-1.285.914.914 0 0 1 1.29 0 .905.905 0 0 1 0 1.285.915.915 0 0 1-1.29 0M77.112 24.664a.907.907 0 0 1 0-1.286.914.914 0 0 1 1.29 0 .905.905 0 0 1 0 1.286.915.915 0 0 1-1.29 0"/>
        <path fill="#16A1D8" d="M60.48 10.94a1.328 1.328 0 0 1 0-1.883 1.34 1.34 0 0 1 1.891 0c.523.52.523 1.363 0 1.884a1.34 1.34 0 0 1-1.89 0"/>
    </g>
</svg>
