<svg xmlns="http://www.w3.org/2000/svg" width="241" height="240" viewBox="0 0 241 240">
    <defs>
        <linearGradient id="a" x1="22.888%" x2="60.266%" y1="9.765%" y2="60.568%">
            <stop offset="0%" stop-color="#FFAB00"/>
            <stop offset="100%" stop-color="#FFBE00"/>
        </linearGradient>
    </defs>
    <path fill="url(#a)" fill-rule="nonzero" d="M195.5 0C87.528 0 0 87.528 0 195.5 0 303.468 87.528 391 195.5 391 303.477 391 391 303.472 391 195.5S303.477 0 195.5 0zm0 378.418c-101.021 0-182.914-81.897-182.914-182.918S94.479 12.586 195.5 12.586c101.021 0 182.918 81.893 182.918 182.914 0 101.021-81.897 182.918-182.918 182.918zm0-358.069C98.767 20.35 20.35 98.767 20.35 195.5S98.766 370.65 195.5 370.65c96.738 0 175.15-78.42 175.15-175.15 0-96.733-78.412-175.15-175.15-175.15zm145.595 231.633l-25.297-32.01 35.75-19.55c-.56 18.134-4.214 35.49-10.453 51.56zm-301.639-51.56l35.75 19.55-25.301 32.006c-6.235-16.066-9.893-33.422-10.449-51.556zm10.449-61.404l25.302 32.005-35.75 19.555c.555-18.134 4.213-35.49 10.448-51.56zm96.173 131.154l6.32 11.557-18.767 5.5-1.834-18.477 14.28 1.42zm-15.15-10.1l-1.012-10.18 7.234 3.954 3.958 7.233-10.18-1.008zm25.672 29.342l10.261 18.764-28.881 22.834-3.493-35.125 22.113-6.473zm-.213-18.216l8.198.816 5.674 4.484-9.458 2.772-4.414-8.072zm8.615 15.757l13.485-3.95L188.601 291l-14.936 11.803-8.663-15.848zm23.551-6.9l6.947-2.037 6.947 2.038-6.947 5.491-6.947-5.491zm6.947 16.393l17.665 13.963-17.665 32.305-17.669-32.305 17.669-13.963zm6.899-5.453l10.11-7.994 13.485 3.95-8.663 15.844-14.932-11.8zm18.342-14.493l5.678-4.488 8.203-.816-4.419 8.072-9.462-2.768zm13.66 12.912l22.112 6.477-3.488 35.12-28.886-22.833 10.261-18.764zm4.205-7.681l6.32-11.56 14.285-1.417-1.837 18.477-18.768-5.5zm11.29-20.65l3.954-7.233 7.23-3.953-1.009 10.174-10.174 1.013zm-1.25-14.136a4.245 4.245 0 0 0-1.7 1.703l-7.359 13.459-15.266 1.52a4.287 4.287 0 0 0-2.233.9l-11.422 9.028-13.967-4.093a4.28 4.28 0 0 0-2.407 0l-13.971 4.093-11.418-9.028a4.324 4.324 0 0 0-2.228-.9l-15.262-1.516-7.364-13.463a4.228 4.228 0 0 0-1.703-1.703l-13.46-7.36-1.52-15.266a4.287 4.287 0 0 0-.9-2.233l-9.027-11.422 4.092-13.967a4.28 4.28 0 0 0 0-2.407l-4.092-13.967 9.028-11.417a4.293 4.293 0 0 0 .903-2.229l1.517-15.266 13.459-7.364a4.272 4.272 0 0 0 1.703-1.699l7.36-13.463 15.266-1.517a4.259 4.259 0 0 0 2.228-.899l11.418-9.028 13.967 4.093c.786.23 1.62.23 2.407 0l13.967-4.093 11.417 9.028a4.287 4.287 0 0 0 2.233.9l15.271 1.52 7.36 13.46a4.261 4.261 0 0 0 1.698 1.698l13.464 7.364 1.52 15.262c.083.816.391 1.59.9 2.228l9.023 11.418-4.088 13.971a4.28 4.28 0 0 0 0 2.407l4.088 13.972-9.023 11.421a4.264 4.264 0 0 0-.904 2.229l-1.516 15.266-13.46 7.36zm-134.148-26.21l4.488 5.678.816 8.202-8.072-4.418 2.768-9.462zm-3.554-18.295l-5.487-6.942 5.487-6.942 2.033 6.942-2.033 6.942zm.786-41.641l8.072-4.418-.816 8.202-4.488 5.678-2.768-9.462zm-2.463-8.407l-5.5-18.768 18.477-1.837-1.42 14.284-11.557 6.321zm-5.222 12.608l3.95 13.49-7.99 10.109L88.2 173.669l15.844-8.667zM94.552 195.5l-13.967 17.669-32.3-17.669 32.304-17.669L94.552 195.5zm5.453 6.895l7.99 10.11-3.95 13.489-15.844-8.668 11.804-14.931zm9.262 36.206l11.56 6.321 1.421 14.285-18.477-1.833 5.496-18.773zm135.66-117.773l-6.321-11.56 18.768-5.5 1.837 18.476-14.284-1.416zm15.144 10.1l1.013 10.17-7.234-3.957-3.953-7.23 10.174 1.018zm-25.667-29.346L224.14 82.818l28.881-22.83 3.493 35.12-22.108 6.474zm.213 18.22l-8.206-.816-5.678-4.488 9.466-2.772 4.418 8.076zm-8.615-15.757l-13.49 3.95-10.109-7.99L217.34 88.2l8.662 15.844zm-23.56 6.9l-6.942 2.032-6.942-2.033 6.942-5.491 6.942 5.491zM195.5 94.551l-17.665-13.967 17.665-32.3 17.665 32.3L195.5 94.552zm-6.899 5.453l-10.11 7.99-13.485-3.95 8.668-15.844 14.927 11.804zm-18.338 14.493l-5.674 4.488-8.202.816 4.414-8.072 9.462 2.768zM156.6 101.582l-22.109-6.478 3.493-35.12 28.882 22.83-10.266 18.768zm-4.201 7.685l-6.321 11.556-14.285 1.421 1.833-18.473 18.773 5.496zm-11.296 20.65l-3.953 7.228-7.234 3.958 1.013-10.174 10.174-1.013zM279.27 230.194l-8.072 4.418.816-8.202 4.488-5.674 2.768 9.458zm-7.256-65.61l-.816-8.202 8.067 4.418-2.772 9.458-4.479-5.674zm6.009 30.915l2.033-6.947 5.491 6.947-5.491 6.942-2.033-6.942zm4.983-17.013l3.949-13.485 15.844 8.667-11.804 14.932-7.99-10.114zm-1.269-26.093l-11.56-6.32-1.417-14.285 18.473 1.837-5.496 18.768zm-11.565 92.528l11.557-6.32 5.5 18.767-18.473 1.838 1.416-14.285zm16.783-18.924l-3.95-13.485L291 202.399l11.803 14.936-15.848 8.663zm9.497-30.498l13.963-17.665 32.3 17.665-32.3 17.665-13.963-17.665zm11.734-28.639L289.423 156.6l6.473-22.109 35.12 3.493-22.83 28.877zm-18.507-41.589l-21.788-2.168-2.163-21.787 33.87-9.919-9.92 33.874zm-24.811-32.614l-3.871-38.917A156.341 156.341 0 0 1 302.36 81.68l-37.492 10.978zm-44.891-17.456l-19.555-35.75c18.138.56 35.494 4.214 51.56 10.453l-32.005 25.297zm-48.95.005l-32.005-25.302c16.066-6.239 33.422-9.888 51.56-10.453l-19.554 35.755zm-44.89 17.451L88.644 81.68a156.445 156.445 0 0 1 41.363-27.94l-3.87 38.918zm-.865 8.663l-2.163 21.783-21.788 2.168-9.923-33.87 33.874 9.92zm-23.686 55.274l-18.764 10.262-22.83-28.882 35.12-3.493 6.474 22.113zM82.818 224.14l18.764 10.261-6.478 22.113-35.12-3.493 22.834-28.881zm18.507 41.585l21.788 2.167 2.163 21.784-33.869 9.922 9.918-33.873zm24.812 32.613l3.87 38.922a156.341 156.341 0 0 1-41.363-27.939l37.493-10.983zm44.89 17.456l19.555 35.75c-18.138-.564-35.49-4.213-51.56-10.452l32.006-25.298zm48.95 0l32.005 25.298c-16.066 6.239-33.422 9.888-51.56 10.453l19.555-35.75zm44.89-17.456l37.498 10.983A156.516 156.516 0 0 1 261 337.26l3.867-38.923zm.86-8.658l2.164-21.788 21.788-2.167 9.918 33.873-33.87-9.918zm23.691-55.279l18.764-10.261 22.83 28.881-35.12 3.489-6.474-22.109zm26.375-63.377l25.302-32c6.243 16.065 9.893 33.421 10.453 51.56l-35.755-19.56zm21.466-41.02l-38.917-3.87L309.32 88.64a156.341 156.341 0 0 1 27.94 41.363zM81.68 88.64l10.98 37.492-38.918 3.871A156.375 156.375 0 0 1 81.68 88.64zM53.742 260.997l38.917 3.87-10.978 37.498a156.468 156.468 0 0 1-27.94-41.368zm255.58 41.363l-10.98-37.497 38.918-3.866a156.271 156.271 0 0 1-27.939 41.363zm-48.728-107.92l3.601-12.3-7.941-10.048a3.749 3.749 0 0 1-.795-1.964l-1.338-13.433-11.848-6.481a3.77 3.77 0 0 1-1.499-1.5l-6.477-11.842-13.429-1.325a3.784 3.784 0 0 1-1.963-.795l-10.05-7.946-12.294 3.601c-.69.2-1.425.2-2.116 0l-12.294-3.601-10.05 7.946a3.743 3.743 0 0 1-1.959.79l-13.437 1.338-6.477 11.848a3.77 3.77 0 0 1-1.5 1.499l-11.847 6.477-1.338 13.437a3.779 3.779 0 0 1-.79 1.964l-7.946 10.049 3.601 12.295c.2.69.2 1.425 0 2.115l-3.601 12.295 7.946 10.049c.447.565.72 1.247.795 1.964l1.333 13.433 11.848 6.481c.634.344 1.151.86 1.499 1.495l6.477 11.852 13.433 1.338c.717.07 1.399.343 1.964.79l10.049 7.942 12.294-3.597a3.73 3.73 0 0 1 2.116 0l12.3 3.597 10.048-7.942a3.77 3.77 0 0 1 1.96-.795l13.437-1.333 6.477-11.852a3.732 3.732 0 0 1 1.499-1.495l11.847-6.481 1.334-13.433a3.77 3.77 0 0 1 .795-1.96l7.946-10.048-3.601-12.3a3.76 3.76 0 0 1-.01-2.124zm-71.983-49.718a9.505 9.505 0 0 1 13.446 0c3.71 3.71 3.71 9.732 0 13.446a9.513 9.513 0 0 1-13.446 0 9.505 9.505 0 0 1 0-13.446zm-30.607 57.503c-3.71 3.71-9.731 3.71-13.446 0-3.71-3.714-3.71-9.736 0-13.446 3.715-3.71 9.736-3.71 13.446 0 3.715 3.71 3.715 9.732 0 13.446zm44.053 44.053a9.513 9.513 0 0 1-13.446 0c-3.71-3.71-3.71-9.732 0-13.446a9.513 9.513 0 0 1 13.446 0c3.71 3.71 3.71 9.731 0 13.446zm-6.725-24.238c-14.659 0-26.54-11.882-26.54-26.54 0-14.662 11.881-26.54 26.54-26.54 14.658 0 26.54 11.882 26.54 26.54s-11.882 26.54-26.54 26.54zm51.116-19.815c-3.71 3.71-9.731 3.71-13.446 0-3.71-3.714-3.71-9.736 0-13.446 3.71-3.71 9.732-3.71 13.446 0 3.715 3.71 3.715 9.732 0 13.446zM213.1 195.5c0 9.81-7.954 17.764-17.768 17.764-9.815 0-17.765-7.95-17.765-17.764s7.955-17.769 17.765-17.769 17.768 7.955 17.768 17.769z"/>
</svg>
