<svg xmlns="http://www.w3.org/2000/svg" width="13" height="12" viewBox="0 0 13 12">
    <path fill="#FFF" fill-rule="nonzero" d="M10.66.214H2.115C1.386.214.796.817.787 1.544l-.001-.016v8.75c0 .734.595 1.33 1.329 1.33h8.734c.712-.026 1.33-.612 1.33-1.33V1.543C12.17.833 11.366.24 10.659.214zM6.482 3.822a2.089 2.089 0 1 1 0 4.177 2.089 2.089 0 0 1 0-4.177zm4.178 5.507c0 .419-.34.76-.76.76H3.064a.76.76 0 0 1-.76-.76V4.96h.897a3.418 3.418 0 1 0 6.563 0h.896V9.33zm0-7.213v1.145h-.002a.378.378 0 0 1-.372.37v.001H9.14a.378.378 0 0 1-.377-.37H8.76V2.115v-.003c0-.21.17-.38.38-.38h1.145v.001c.207.004.374.171.374.38l-.001.002z"/>
</svg>
