<svg xmlns="http://www.w3.org/2000/svg" width="71" height="73" viewBox="0 0 71 73">
    <defs>
        <linearGradient id="a" x1="50%" x2="50%" y1="0%" y2="100%">
            <stop offset="0%" stop-color="#00659C"/>
            <stop offset="100%" stop-color="#0081C7"/>
        </linearGradient>
    </defs>
    <path fill="url(#a)" fill-rule="evenodd" d="M41.32 53.784c-13.439 0-24.334-10.932-24.334-24.418 0-13.485 10.895-24.417 24.334-24.417s24.334 10.932 24.334 24.417c0 13.486-10.895 24.418-24.334 24.418m0-53.757c-16.148 0-29.24 13.136-29.24 29.34a29.265 29.265 0 0 0 5.202 16.696L2.432 61.326l-.079.072a6.275 6.275 0 0 0 .106 8.852 6.22 6.22 0 0 0 8.744-.034l.006.006 15.198-15.62a29.02 29.02 0 0 0 14.913 4.104c16.148 0 29.239-13.136 29.239-29.34 0-16.203-13.09-29.34-29.24-29.34" transform="translate(-.289 .233)"/>
</svg>
