<svg xmlns="http://www.w3.org/2000/svg" width="231" height="201" viewBox="0 0 231 201">
    <g fill="#FFF" fill-rule="nonzero">
        <path d="M15.127 166.147l-1.79-1.013 1.552-.896a.583.583 0 0 0 .212-.807.609.609 0 0 0-.824-.209l-2.137 1.235-3.223-1.823 3.222-1.822 2.139 1.234a.608.608 0 0 0 .823-.208.583.583 0 0 0-.213-.807l-1.552-.896 1.791-1.013a.583.583 0 0 0 .22-.805.608.608 0 0 0-.821-.216l-1.79 1.013-.017-1.765a.595.595 0 0 0-.607-.584.595.595 0 0 0-.596.595l.022 2.431-3.222 1.823v-3.645l2.16-1.196c.29-.16.392-.52.228-.804a.608.608 0 0 0-.82-.223l-1.568.869v-2.026c0-.325-.27-.589-.602-.589a.596.596 0 0 0-.601.59v2.025l-1.569-.868a.608.608 0 0 0-.82.223.583.583 0 0 0 .228.803l2.16 1.196v3.645L3.89 159.79l.022-2.431a.595.595 0 0 0-.596-.595h-.005c-.33 0-.599.26-.602.584l-.016 1.765-1.79-1.013a.608.608 0 0 0-.822.216.583.583 0 0 0 .22.805l1.79 1.013-1.551.896a.583.583 0 0 0-.213.807.604.604 0 0 0 .824.209l2.138-1.235 3.222 1.822-3.223 1.823-2.137-1.235a.609.609 0 0 0-.824.209.583.583 0 0 0 .212.807l1.552.896-1.79 1.013a.583.583 0 0 0-.22.804.604.604 0 0 0 .821.216l1.791-1.013.016 1.765a.596.596 0 0 0 .602.584h.005c.332-.003.6-.269.596-.594l-.022-2.431 3.223-1.823v3.645l-2.161 1.196a.583.583 0 0 0-.228.803.604.604 0 0 0 .82.223l1.569-.868v2.025c0 .326.269.59.601.59a.596.596 0 0 0 .602-.59v-2.025l1.568.868a.609.609 0 0 0 .82-.223.583.583 0 0 0-.228-.803l-2.16-1.196v-3.645l3.222 1.823-.023 2.43a.595.595 0 0 0 .602.595c.33 0 .598-.26.601-.583l.017-1.766 1.79 1.013a.608.608 0 0 0 .823-.215.583.583 0 0 0-.22-.805zM95.127 12.147l-1.79-1.013 1.552-.896a.583.583 0 0 0 .212-.807.609.609 0 0 0-.824-.209l-2.137 1.235-3.223-1.823 3.222-1.822 2.139 1.234a.608.608 0 0 0 .823-.208.583.583 0 0 0-.213-.807l-1.552-.896 1.791-1.013a.583.583 0 0 0 .22-.805.608.608 0 0 0-.821-.216l-1.79 1.013-.017-1.765a.595.595 0 0 0-.607-.584.595.595 0 0 0-.596.595l.022 2.431-3.222 1.823V3.969l2.16-1.196c.29-.16.392-.52.228-.804a.608.608 0 0 0-.82-.223l-1.568.869V.589c0-.325-.27-.589-.602-.589a.596.596 0 0 0-.601.59v2.025l-1.569-.868a.608.608 0 0 0-.82.223.583.583 0 0 0 .228.803l2.16 1.196v3.645L83.89 5.79l.022-2.431a.595.595 0 0 0-.596-.595h-.005c-.33 0-.599.26-.602.584l-.016 1.765-1.79-1.013a.608.608 0 0 0-.822.216.583.583 0 0 0 .22.805l1.79 1.013-1.551.896a.583.583 0 0 0-.213.807.604.604 0 0 0 .824.209l2.138-1.235 3.222 1.822-3.223 1.823-2.137-1.235a.609.609 0 0 0-.824.209.583.583 0 0 0 .212.807l1.552.896-1.79 1.013a.583.583 0 0 0-.22.804.604.604 0 0 0 .821.216l1.791-1.013.016 1.765a.596.596 0 0 0 .602.584h.005c.332-.003.6-.269.596-.594l-.022-2.431 3.223-1.823V13.3l-2.161 1.196a.583.583 0 0 0-.228.803.604.604 0 0 0 .82.223l1.569-.868v2.025c0 .326.269.59.601.59a.596.596 0 0 0 .602-.59v-2.025l1.568.868a.609.609 0 0 0 .82-.223.583.583 0 0 0-.228-.803l-2.16-1.196V9.655l3.222 1.823-.023 2.43a.595.595 0 0 0 .602.595c.33 0 .598-.26.601-.583l.017-1.766 1.79 1.013a.608.608 0 0 0 .823-.215.583.583 0 0 0-.22-.805zM230.127 142.147l-1.79-1.013 1.552-.896a.583.583 0 0 0 .212-.807.609.609 0 0 0-.824-.209l-2.137 1.235-3.223-1.823 3.222-1.822 2.139 1.234a.608.608 0 0 0 .823-.208.583.583 0 0 0-.213-.807l-1.552-.896 1.791-1.013a.583.583 0 0 0 .22-.805.608.608 0 0 0-.821-.216l-1.79 1.013-.017-1.765a.595.595 0 0 0-.607-.584.595.595 0 0 0-.596.595l.022 2.431-3.222 1.823v-3.645l2.16-1.196c.29-.16.392-.52.228-.804a.608.608 0 0 0-.82-.223l-1.568.869v-2.026c0-.325-.27-.589-.602-.589a.596.596 0 0 0-.601.59v2.025l-1.569-.868a.608.608 0 0 0-.82.223.583.583 0 0 0 .228.803l2.16 1.196v3.645l-3.222-1.823.022-2.431a.595.595 0 0 0-.596-.595.597.597 0 0 0-.607.584l-.016 1.765-1.79-1.013a.608.608 0 0 0-.822.216.583.583 0 0 0 .22.805l1.79 1.013-1.551.896a.583.583 0 0 0-.213.807.604.604 0 0 0 .824.209l2.138-1.235 3.222 1.822-3.223 1.823-2.137-1.235a.609.609 0 0 0-.824.209.583.583 0 0 0 .212.807l1.552.896-1.79 1.013a.583.583 0 0 0-.22.804.604.604 0 0 0 .821.216l1.791-1.013.016 1.765a.596.596 0 0 0 .602.584.597.597 0 0 0 .601-.594l-.022-2.431 3.223-1.823v3.645l-2.161 1.196a.583.583 0 0 0-.228.803.604.604 0 0 0 .82.223l1.569-.868v2.025c0 .326.269.59.601.59a.596.596 0 0 0 .602-.59v-2.025l1.568.868a.609.609 0 0 0 .82-.223.583.583 0 0 0-.228-.803l-2.16-1.196v-3.645l3.222 1.823-.023 2.43a.595.595 0 0 0 .596.595c.336 0 .604-.26.607-.583l.017-1.766 1.79 1.013a.608.608 0 0 0 .823-.215.583.583 0 0 0-.22-.805zM200.883 137.994l-3.242-1.834 2.81-1.623c.518-.299.69-.953.385-1.46a1.102 1.102 0 0 0-1.492-.378l-3.87 2.236-5.835-3.3 5.834-3.3 3.871 2.235c.174.1.365.147.553.147.373 0 .736-.187.939-.525a1.055 1.055 0 0 0-.385-1.461l-2.81-1.622 3.242-1.834c.521-.295.7-.948.4-1.458-.302-.51-.968-.685-1.489-.39l-3.242 1.833-.03-3.195a1.078 1.078 0 0 0-1.098-1.058 1.078 1.078 0 0 0-1.08 1.077l.04 4.402-5.834 3.3v-6.6l3.912-2.166c.523-.29.708-.94.412-1.454a1.101 1.101 0 0 0-1.484-.404l-2.84 1.573v-3.668c0-.59-.488-1.067-1.09-1.067-.601 0-1.089.478-1.089 1.067v3.668l-2.84-1.573a1.101 1.101 0 0 0-1.485.404 1.056 1.056 0 0 0 .413 1.454l3.912 2.166v6.6l-5.835-3.3.04-4.402a1.078 1.078 0 0 0-1.08-1.077h-.01c-.596 0-1.083.472-1.088 1.058l-.03 3.195-3.242-1.834a1.102 1.102 0 0 0-1.488.391c-.3.51-.122 1.163.399 1.458l3.243 1.834-2.81 1.622c-.519.3-.692.954-.386 1.461a1.103 1.103 0 0 0 1.492.378l3.871-2.235 5.835 3.3-5.836 3.3-3.87-2.236a1.102 1.102 0 0 0-1.492.377 1.055 1.055 0 0 0 .385 1.461l2.81 1.623-3.242 1.834c-.521.294-.7.947-.399 1.457a1.102 1.102 0 0 0 1.488.39l3.242-1.833.03 3.196a1.079 1.079 0 0 0 1.089 1.057h.01a1.078 1.078 0 0 0 1.08-1.076l-.041-4.402 5.835-3.3v6.6l-3.912 2.165c-.524.29-.709.941-.413 1.454a1.102 1.102 0 0 0 1.484.404l2.841-1.572v3.668c0 .589.488 1.067 1.09 1.067.6 0 1.089-.478 1.089-1.067v-3.668l2.84 1.572a1.102 1.102 0 0 0 1.484-.404 1.056 1.056 0 0 0-.412-1.454l-3.912-2.166v-6.6l5.835 3.3-.042 4.403a1.078 1.078 0 0 0 1.09 1.077c.596 0 1.083-.472 1.089-1.058l.03-3.196 3.242 1.834a1.102 1.102 0 0 0 1.488-.39c.301-.51.123-1.163-.399-1.458zM159.127 195.147l-1.79-1.013 1.552-.896a.583.583 0 0 0 .212-.807.609.609 0 0 0-.824-.209l-2.137 1.235-3.223-1.823 3.222-1.822 2.139 1.234a.608.608 0 0 0 .823-.208.583.583 0 0 0-.213-.807l-1.552-.896 1.791-1.013a.583.583 0 0 0 .22-.805.608.608 0 0 0-.821-.216l-1.79 1.013-.017-1.765a.595.595 0 0 0-.607-.584.595.595 0 0 0-.596.595l.022 2.431-3.222 1.823v-3.645l2.16-1.196c.29-.16.392-.52.228-.804a.608.608 0 0 0-.82-.223l-1.568.869v-2.026c0-.325-.27-.589-.602-.589a.596.596 0 0 0-.601.59v2.025l-1.569-.868a.608.608 0 0 0-.82.223.583.583 0 0 0 .228.803l2.16 1.196v3.645l-3.222-1.823.022-2.431a.595.595 0 0 0-.596-.595h-.005c-.33 0-.599.26-.602.584l-.016 1.765-1.79-1.013a.608.608 0 0 0-.822.216.583.583 0 0 0 .22.805l1.79 1.013-1.551.896a.583.583 0 0 0-.213.807.604.604 0 0 0 .824.209l2.138-1.235 3.222 1.822-3.223 1.823-2.137-1.235a.609.609 0 0 0-.824.209.583.583 0 0 0 .212.807l1.552.896-1.79 1.013a.583.583 0 0 0-.22.804.604.604 0 0 0 .821.216l1.791-1.013.016 1.765a.596.596 0 0 0 .602.584h.005c.332-.003.6-.269.596-.594l-.022-2.431 3.223-1.823v3.645l-2.161 1.196a.583.583 0 0 0-.228.803.604.604 0 0 0 .82.223l1.569-.868v2.025c0 .326.269.59.601.59a.596.596 0 0 0 .602-.59v-2.025l1.568.868a.609.609 0 0 0 .82-.223.583.583 0 0 0-.228-.803l-2.16-1.196v-3.645l3.222 1.823-.023 2.43a.595.595 0 0 0 .602.595c.33 0 .598-.26.601-.583l.017-1.766 1.79 1.013a.608.608 0 0 0 .823-.215.583.583 0 0 0-.22-.805z"/>
    </g>
</svg>
