<svg xmlns="http://www.w3.org/2000/svg" width="181" height="269" viewBox="0 0 181 269">
    <defs>
        <linearGradient id="a" x1="17.721%" x2="60.08%" y1="77.711%" y2="29.91%">
            <stop offset="0%" stop-color="#1EC2F0"/>
            <stop offset="100%" stop-color="#0DAFE3"/>
        </linearGradient>
    </defs>
    <path fill="url(#a)" fill-rule="evenodd" d="M629.95 292.988c.006.016.017.04.022.057-.024.05-.05.11-.075.165l.053-.222zm.558-12.441l-.424.567-.046-1.446s-1.496 3.128-3.746 8.099a249.292 249.292 0 0 0 3.234-8.658c.242.183.663.49 1.252.895.005.215.002.427-.002.635-.088-.026-.18-.063-.268-.092zm-.589-4.234l.037-.295.156.115-.164.18s.248.255.707.688c.037.576.066 1.156.081 1.741a96.184 96.184 0 0 0-.955-.378c.072-.202.143-.405.213-.611l.136-1.077s-.848 1.899-2.193 5.157c.67-1.798 1.338-3.65 1.982-5.52zm.053-4.248l.03-.244.152.08c.007.068.02.136.029.21-.07-.01-.139-.03-.211-.046zm-4.651-15.88l.03-.553c.097.204.196.409.286.611-.12-.022-.228-.046-.316-.057zm-3.223-6.208l-.582-.813c.013-.075.033-.134.046-.207.07.108.14.216.208.317l-.002.002.009.018c.303.446.587.901.87 1.36-.235.693-.758 2.221-1.472 4.422.382-1.906.708-3.648.923-5.099zm-16.84 12.806c-.618-.914-1.217-1.78-1.82-2.616-.12-.532-.252-1.086-.386-1.666.319.314.633.624.943.923.408 1.126.83 2.25 1.263 3.36zm3.653-14.597c-.041-.532-.085-1.07-.131-1.614.116.062.235.121.347.183-.011.514-.024 1.042-.029 1.574a4.6 4.6 0 0 1-.187-.143zm-6.839 6.296c-.086-.354-.18-.721-.268-1.088.062.068.121.134.182.198.137.413.277.824.411 1.235a22.788 22.788 0 0 0-.325-.345zm8.287 6.833c-.006.983-.009 1.974-.01 2.979a56.93 56.93 0 0 0-.572-.756c-.026-.81-.055-1.74-.103-2.786.248.198.474.39.685.563zm13.479-40.542c-.301 0-.598.007-.897.007a73.06 73.06 0 0 0 4.51-3.85c-1.979 1.994-3.25 3.425-3.613 3.843zm-31.294 41.197c-.114-.125-.209-.224-.277-.308l.46-.719c-.062.341-.122.68-.183 1.027zm25.676-40.832l.033-.002.316-.321c.062.075.13.154.214.248-.19.022-.38.053-.563.075zm-9.541.158c.195-.266.4-.536.588-.798.211-.125.418-.24.609-.354-.022.047-.048.104-.075.152-.382.336-.753.664-1.122 1zm5.75-11.298c-.88.449-1.774.908-2.661 1.377.096-.185.169-.334.221-.436.805-.316 1.646-.666 2.514-1.03-.027.03-.049.056-.075.09zm-10.296 6.35c.134-.003.206-.003.206-.003a3.756 3.756 0 0 0-.221-.048 185.204 185.204 0 0 0-2.876-6.514c.015-.163.04-.33.061-.49a.404.404 0 0 0 .042.033l-.037-.09c.01-.09.024-.194.04-.29.891 1.914 1.689 3.565 2.348 4.891l-.284.34.391-.133c.334.672.635 1.262.886 1.75l-.132.189s.066-.036.187-.086c.154.297.28.547.397.758l-.31.43s.056-.03.17-.07c-.114.219-.222.44-.325.654-.178-.442-.36-.882-.543-1.321zm-8.013-2.311c-.028-.08-.061-.156-.09-.23.112.098.225.195.334.285-.08-.02-.162-.035-.244-.055zm-14.766 9.335c.007-.046.02-.09.027-.134.033.05.066.1.088.15l-.115-.016zm-3.341-.277a26.9 26.9 0 0 0 .154-.675c.03.028.055.064.079.096-.06.187-.119.383-.183.574l-.05.005zm13.61-18.18c.009-.043.024-.08.038-.123.055.058.116.108.169.157-.024.041-.046.079-.064.118-.05-.055-.099-.1-.143-.151zm-4.695 4.901c-.015-.07-.044-.139-.061-.211l.378.075-.429-.284-.006-.009c.131-.297.27-.624.406-.958.233-.029.457-.05.675-.08a1.5 1.5 0 0 0 .022.133c-.159.44-.308.883-.46 1.334h-.525zm-13.938 6.582c.264-.03.53-.061.798-.081a90.011 90.011 0 0 0 3.3 4.705c-.088.255-.17.523-.257.8-.101.275-.209.571-.306.862a108.073 108.073 0 0 0-3.535-6.286zm-.384 6.301a106.216 106.216 0 0 0-5.174-5.773c.622-.055 1.241-.112 1.857-.17a82.427 82.427 0 0 0 4.45 6.042l.03.013c-.387-.044-.78-.081-1.163-.112zm17.649-34.234c.364.21.727.424 1.074.63-.167.284-.347.598-.545.944-.31-.192-.622-.387-.925-.579.132-.327.261-.666.396-.995zm-12.115 29.351c-.178-.301-.364-.611-.553-.928.125.038.261.086.382.12.088.173.176.344.261.525-.03.088-.061.186-.09.283zm19.461-25.078c.416.849.833 1.676 1.242 2.476l-.996-.66c-.549-.94-1.059-1.794-1.511-2.539.459.26.874.495 1.265.723zm-24.65 13.82c.055-.016.116-.024.174-.04.08.024.158.04.235.062a.855.855 0 0 1 .046.112c-.152-.046-.308-.095-.455-.134zm-19.654 19.307c-.09-.09-.2-.194-.337-.319.356-.075.708-.145 1.057-.222l-.72.54zm-10.845 3.42l-.261.216c-.468.609-.927 1.227-1.387 1.847a237.479 237.479 0 0 0-5.376 6.21c3.355-4.876 5.289-7.916 5.289-7.916l-.998.86c-4.005 5.214-7.773 10.545-10.818 14.993-1.085 1.35-2.122 2.638-3.067 3.825 8.092-11.012 13.272-19.133 13.272-19.133l-.984.844.103-.246-.226-.187a85.124 85.124 0 0 1 3.862-1.627c.25.13.446.24.591.315zM510.29 252.93c2.635-4.467 4.274-7.475 4.638-8.154a135.728 135.728 0 0 1 3.309-2.491.67.67 0 0 0 .114.011c-2.812 3.355-5.58 7.08-8.06 10.634zm60.033-65.595a143.85 143.85 0 0 0-.16-1.41l.088.1c.079.487.165.975.257 1.468a3.18 3.18 0 0 0-.185-.158zm-.33-2.696a97.016 97.016 0 0 0-.381-2.521c.035.04.072.09.107.13.099.804.207 1.615.32 2.43-.017-.015-.032-.026-.045-.039zm-13.11 15.453c-.054-.004-.106-.015-.161-.022.173-.09.345-.191.516-.281.066.01.132.026.189.04l-.545.263zm14.664-31.57c-.026-.11-.042-.217-.07-.334 0 0-.009.117-.016.326l-.988-.104-.97-.18c-.1-.497-.212-1.005-.322-1.508.318.046.64.09.96.14 5.123 1.364 10.374 2.474 14.43 3.256-4.247-.602-8.955-1.154-13.024-1.596zm-2.35 11.193c-.06-.315-.126-.647-.192-.974.132.107.268.21.404.319.02.283.044.571.07.853-.092-.064-.197-.135-.283-.198zm-.442-2.203c.19.12.375.246.562.374.015.184.026.369.042.565a19.497 19.497 0 0 0-.47-.315c-.04-.2-.09-.415-.134-.624zm-5.08 6.083c-.114-.438-.261-.943-.422-1.495.194.523.391 1.057.598 1.585l-.176-.09zm-13.05 15.387a8.51 8.51 0 0 0-.323-.007c.237-.167.47-.327.703-.492.112.022.226.05.338.072-.239.146-.483.282-.718.427zm-8.972-7.56c-.031-.003-.051.008-.082.017-.43.08-.753.134-.966.174.028-.024.061-.053.092-.082.351-.063.705-.127 1.057-.193-.038.026-.069.055-.101.083zm11.597-10.865c-.573.154-1.153.32-1.72.488-1.858.345-3.998.787-6.22 1.277 4.373-1.451 7.002-2.431 7.002-2.431l-1.006.046c-4.921 1.334-9.761 2.866-13.738 4.197-1.3.318-2.537.628-3.68.914 10.17-3.003 17.214-5.635 17.214-5.635l-1 .042.18-.105c-.008-.088-.028-.167-.04-.249 1.06.297 2.084.607 3.077.935.079.222.145.389.19.51l-.259.01zm-9.9-2.828c-1.774.478-3.539.985-5.252 1.5 2.724-.926 4.455-1.563 4.849-1.704.1.013.208.037.31.048.063.08.103.123.103.123l.107-.094c.033.01.077.015.108.022.015.03.033.061.053.09l-.277.015zm25.958-29.243a215.257 215.257 0 0 0-6.312-.425c3.329.046 5.455.018 5.945.013.365.218.736.431 1.092.651l-.725-.24zm43.286 41.858a34.13 34.13 0 0 1 1.527-2.341c.008.512.024.791.024.791l.32-.668c.016-.23.038-.453.06-.68.125-.164.25-.334.382-.496.002.103.011.16.011.16l.215-.45c.172-.218.352-.427.532-.645.002.176.004.328.004.451l-.175.022s.033.011.098.029c-.057-.01-.118-.016-.17-.027l-.561.75s.351.12.98.328c-.165-.042-.332-.08-.497-.117l-.808.066s1.452.492 3.943 1.249a56.516 56.516 0 0 0-3.928-.429l-.422.76a17.726 17.726 0 0 1-.569-.103l-.558.752s1.233.42 3.184 1.023a150.575 150.575 0 0 0-3.34-.462l-.252.037zm5.433-6.828c.013.171.035.316.046.43l-.543.05c.163-.161.323-.322.497-.48zm16.33-8.154l.24.178-1.024.23s2.682 1.315 6.89 3.248c-2.257-.87-4.689-1.77-7.147-2.597.041-.2.096-.488.167-.866.292-.072.584-.13.874-.193zm-4.868 46.88a311.34 311.34 0 0 0 5.046 8.497c.314.596.635 1.204.969 1.818-2.12-3.245-4.605-6.88-7.268-10.454.415.04.833.082 1.253.139zm9.335 2.5c.116-.049.224-.095.336-.146.195.07.386.143.588.22-.3.132-.46.209-.46.209l.742.042c.068-.016.13-.046.197-.062.295.112.594.235.892.36l-.182.122.446-.011c.264.114.527.237.798.358a.306.306 0 0 1-.047.015l.097.01c.42.193.837.384 1.257.59-.209.113-.415.223-.62.337l-.314-.39s.095.31.301.889l-.002.004a51.31 51.31 0 0 0-.72-1.185l-.959-.206s.066.143.178.4l-.05-.062s.742 2.271 2.115 5.916c-1.322-2.539-2.634-4.92-3.697-6.602l-.853-.182a23.97 23.97 0 0 1-.353-.62l.31-.007zm-10.66 13.44a.072.072 0 0 0-.031 0 9.07 9.07 0 0 1-.303-.204c.11.073.228.137.334.205zm7.749.542c.292.32.569.633.863.958-.257-.009-.512-.026-.771-.044-.187-.24-.411-.519-.66-.833.203-.033.394-.06.568-.081zm-5.67 54.269l-.1-.038c.145-.464.22-.73.22-.73-.11.225-.218.46-.332.695l-.06-.022c.06-.26.133-.585.21-.976.841 1.35 4.95 7.703 11.382 13.663 0 0-4.813-8.517-11.03-14.331l-.265.2c.1-.5.203-1.073.301-1.726.743 1.191 4.878 7.666 11.434 13.734 0 0-5.198-8.295-11.37-14.101.046-.328.09-.658.14-1.01 1.778 1.964 6.104 6.427 12.09 10.294 0 0-5.362-6.956-11.946-11.445.033-.293.063-.59.094-.906 1.762 1.59 6.525 5.584 13.092 8.721 0 0-2.601-2.71-6.38-5.569a54.818 54.818 0 0 0 6.624 3.764s-1.894-1.974-4.79-4.324a52.398 52.398 0 0 0 5.462 2.082s-6.455-5.266-13.766-7.75c.02-.4.04-.796.048-1.207 2.219 1.506 7.292 4.641 13.949 6.844 0 0-1.648-1.343-4.22-3.02a63.505 63.505 0 0 0 3.78 1.606c.218.124.431.251.648.365l-.169-.176c.088.036.176.066.262.102 0 0-.257-.214-.727-.583a82.322 82.322 0 0 0-6.73-6.068 68.85 68.85 0 0 0 7.857 3.542c.002-.002-6.886-5.703-14.727-8.957a76.416 76.416 0 0 0-.156-2.027l.136.062c1.978 1.794 6.512 5.578 12.629 8.633 0 0-3.113-3.341-7.479-6.573a67.808 67.808 0 0 0 9.961 2.682s-.29-.17-.817-.462c.562.168 1.131.326 1.714.469 0 0-2.685-1.69-6.662-3.643 2.11.76 4.432 1.504 6.925 2.154 0 0-8.065-5.09-16.987-7.784a49.796 49.796 0 0 0-.198-1.14c2.549 1.225 8.498 3.789 16.091 5.202 0 0-7.834-4.575-16.323-6.37-.053-.267-.113-.533-.17-.794 2.854 1.31 8.415 3.557 15.357 4.852 0 0-1.2-.7-3.157-1.654 1.079.33 2.189.655 3.344.95 0 0-7.731-4.883-16.425-7.604a34.45 34.45 0 0 0-.257-.86c7.797 4.21 15.729 6.815 15.729 6.815-7.07-3.994-13.294-6.534-15.95-7.547-.097-.292-.194-.578-.288-.866 2.355.881 4.699 1.596 6.82 2.167 4.536 1.95 7.937 3.063 7.937 3.063a145.367 145.367 0 0 0-3.76-2.032 70.5 70.5 0 0 0 3.793.755 100.959 100.959 0 0 0-7.813-2.75 119.794 119.794 0 0 0-7.757-3.358c-.088-.235-.18-.472-.273-.701 4.974 1.81 9.876 2.92 12.455 3.43.84.3 1.334.461 1.334.461-.19-.103-.376-.202-.567-.31.694.128 1.107.2 1.107.2a76.295 76.295 0 0 0-2.445-.94 122.694 122.694 0 0 0-4.596-2.362c3.521 1.44 5.989 2.245 5.989 2.245-6.613-3.733-12.468-6.187-15.38-7.321-.09-.187-.188-.363-.285-.547 7.386 3.851 14.854 6.118 14.854 6.118a113.554 113.554 0 0 0-4.908-2.54c2.628 1.023 4.354 1.592 4.354 1.592-6.74-3.803-12.685-6.276-15.539-7.389-.182-.308-.378-.615-.573-.932 7.711 4.193 15.91 6.686 15.91 6.686-1.34-.741-2.636-1.41-3.886-2.04 1.709.58 3.54 1.143 5.472 1.642 0 0-4.809-3.034-11.103-5.66 6.767 2.07 12.435 2.905 12.435 2.905-10.89-4.685-20.237-6.259-20.237-6.259l.56.752c.218.088.442.18.666.275-.294-.08-.59-.165-.887-.247l-.097.146a62.39 62.39 0 0 0-1.041-1.476c10.739 3.52 22.71 3.896 22.71 3.896-11.798-3.973-22.216-4.724-23.383-4.8-.217-.28-.435-.564-.654-.839l-.167-.77s-.04.15-.1.434c-.4-.493-.814-.992-1.24-1.482v-.119l.213.308c.204.062.415.127.62.196l.316.446c10.798 3.583 22.905 3.955 22.905 3.955-.74-.246-1.474-.48-2.201-.71.81.05 1.27.066 1.27.066-4.594-1.546-8.981-2.603-12.694-3.322-.791-.455-1.995-1.13-3.502-1.954.393-.007.786-.018 1.18-.031 1.41.545 2.831 1.066 4.248 1.545 0 0-1.059-.615-2.83-1.6.814-.038 1.598-.088 2.356-.137.303.102.602.223.9.32.275.144.545.29.82.43l-1.145-.793c.422-.038.83-.069 1.233-.102.193.102.387.2.576.302 0 0-.17-.115-.446-.31l.492-.047c.04.02.074.042.107.062l-.083-.064c.44-.044.863-.083 1.27-.13.154.108.303.22.455.328l-.378-.334c.059-.004.116-.013.171-.02l.475.424s-.143-.151-.391-.428c.927-.101 1.753-.207 2.44-.293.152.152.3.306.453.46 0 0-.132-.17-.374-.473.253-.035.48-.064.69-.097.804 1.093 1.633 2.21 2.48 3.344 0 0-.795-1.286-2.146-3.39.503-.072.866-.13 1.057-.162.841 1.138 1.707 2.295 2.586 3.478 0 0-4.166-6.723-10.003-14.556.264-.108.402-.174.402-.174-.156.03-.31.061-.464.088-.261-.352-.531-.706-.801-1.062.213-.084.327-.14.327-.14-.13.021-.255.045-.38.072a223.685 223.685 0 0 0-2.665-3.44l.055-.034a.348.348 0 0 0-.068.02 287.016 287.016 0 0 0-1.738-2.148c.518.018 1.039.044 1.56.081 1.685 2.623 7.43 11.443 15.08 21.677 0 0-.26-.457-.73-1.26-.182-.382-.531-1.13-1.012-2.139.718 1.09 1.467 2.21 2.234 3.35 0 0-1.522-2.774-3.92-6.839-1.36-2.79-3.04-6.155-4.622-9.13 1.53 2.56 3.583 5.842 5.785 8.979a280.113 280.113 0 0 0 3.366 6.057s-.649-1.478-1.747-3.832a57.14 57.14 0 0 0 1.186 1.543 53.59 53.59 0 0 0 2.063 2.981s-.197-.424-.54-1.143c.075.086.145.165.209.242 0 0-.19-.337-.534-.932a40.287 40.287 0 0 1-.339-.717c.482.855.985 1.728 1.492 2.61 0 0-4.466-9.982-9.976-19.481l-.301-.317.221.016c.198-.064.398-.126.602-.19.139.042.284.086.422.126-.485.22-.742.347-.742.347l.736.035c.12-.035.246-.072.371-.114.833 1.79 5.275 11.214 11.66 22.464 0 0-5.065-11.265-11.148-22.024l-.415-.468c.061-.016.114-.031.164-.051.36.112.712.224 1.062.343.055.101.138.292.274.572a.24.24 0 0 1-.046.026l.055-.004c1.052 2.24 4.677 9.76 9.834 18.697.237.535.48 1.073.725 1.62 0 0-.292-.923-.813-2.468a52.648 52.648 0 0 0 2.122 3.075s-1.729-3.706-3.91-8.114a184.01 184.01 0 0 0-2.562-6.558 159.77 159.77 0 0 0 2.274 4.423c1.12 2.858 2.513 6.21 4.143 9.803 0 0-.775-2.456-2.067-6.043.347.609.703 1.218 1.063 1.811a201.961 201.961 0 0 0 2.213 5.063s-.39-1.233-1.075-3.23a55.56 55.56 0 0 0 2.33 3.397s-1.967-4.216-4.351-9c-1.085-2.863-2.392-6.134-3.851-9.361l-.512-.64s.584 1.798 1.678 4.749c-.39-.739-.777-1.465-1.15-2.15-.359-.836-.724-1.673-1.1-2.502.269-.084.695-.21 1.257-.396.235.123.464.248.697.376-.013.01-.033.013-.055.024l.035.198-.112-.136.103.31a1.33 1.33 0 0 0-.046-.073l-.951-.204s1.454 3.278 3.612 7.47a216.349 216.349 0 0 0 4.745 11.335s-.903-2.864-2.395-6.938a105.09 105.09 0 0 0 2.474 4.214c.63 1.451 1.3 2.957 2.02 4.512 0 0-.365-1.106-1.01-2.927.471.71.941 1.405 1.416 2.06.2.458.41.915.624 1.377 0 0-.11-.345-.319-.965.044.066.09.134.138.195 0 0-.1-.217-.283-.596a257.34 257.34 0 0 0-1.1-3.12 207.422 207.422 0 0 0 1.867 4.253s-2.788-8.843-6.681-17.597c.228-.068.553-.174.969-.301.085.062.175.13.263.191-.099.057-.195.112-.288.183l.022.162-.263-.325s2.753 8.433 7.467 18.84c0 0-2.897-9.213-6.929-18.158.105-.029.246-.08.417-.139.917 2.581 3.647 10.018 7.692 18.797 0 0-.635-1.93-1.713-4.885.74 1.772 1.566 3.665 2.451 5.628 0 0-2.915-9.247-6.95-18.197l-.513-.637s.45 1.391 1.312 3.742a182.593 182.593 0 0 0-1.962-4.488c.485.352.978.72 1.463 1.097l.004.007.025.411s.041-.004.11-.017c.711 2.04 3.537 9.875 7.856 19.24 0 0-.905-2.737-2.393-6.705a261.247 261.247 0 0 0 2.197 5.07c.34.958.701 1.935 1.068 2.93 0 0-.097-.433-.292-1.2.105.216.202.424.299.644 0 0-.178-.545-.51-1.5-.789-3.143-2.496-9.437-4.778-15.648l-.187-.165a2.18 2.18 0 0 1 .22-.033c.619.55 1.236 1.128 1.852 1.724.041.191.221.904.525 2.03a57.752 57.752 0 0 0-1.4-2.648l-.538-.67s1.377 4.816 4.644 12.399a210.73 210.73 0 0 0 2.496 7.189s-.323-1.394-.9-3.612a171.182 171.182 0 0 0 1.792 3.79s-1.432-6.052-4.52-13.083a132.1 132.1 0 0 0-1.656-4.808l-.36-.506c.18.18.358.345.54.526v.022l.02-.005c.158.163.321.328.475.488.512 1.465 3.012 8.524 6.949 17.313.406 1.163.833 2.361 1.29 3.601 0 0-.139-.598-.396-1.63.026.06.06.131.09.195 0 0-.085-.288-.24-.798-.814-3.201-2.495-9.375-4.743-15.48l-.173-.248c.316.354.63.712.945 1.073 2.262 6.993 7.015 16.548 7.015 16.548-1.534-5.468-4.689-12.213-6.31-15.513 3.704 6.163 8.362 12.727 8.362 12.727-2.747-5.311-6.627-10.695-8.31-12.951 1.38 1.442 5.095 5.09 10.377 8.596 0 0-3.19-3.487-7.507-6.883a60.617 60.617 0 0 0 8.434 4.803s-5.418-4.478-11.556-7.369l-.345-.02a3.705 3.705 0 0 0-.095-.187c1.26.378 6.21 1.72 12.37 1.68 0 0-6.225-1.917-12.383-1.926l-.09.048c-.169-.338-.27-.53-.27-.53.055.19.116.383.182.583l-.11.049a28.91 28.91 0 0 0-.555-.72c.83.146 7.564 1.25 15.82.544 0 0-8.201-1.697-15.783-1.084l-.101.46a47.039 47.039 0 0 0-1.852-2.186c2.04.011 7.872-.11 14.599-1.75 0 0-7.973-.536-15.146 1.139-.18-.198-.371-.396-.556-.602 1.569-.13 7.58-.759 14.439-3.259 0 0-3.318.106-7.52.847a57.522 57.522 0 0 0 6.643-1.979s-2.419.084-5.743.56a56.53 56.53 0 0 0 4.9-2.184s-7.727 1.097-14.213 4.34l.018.164c-.301-.297-.611-.6-.934-.903 1.946-.396 7.687-1.755 14.058-4.888 0 0-1.88.27-4.576.917a69.472 69.472 0 0 0 3.507-1.429c.204-.06.404-.123.61-.182 0 0-.077 0-.213.004.073-.035.152-.066.229-.105 0 0-.295.044-.822.132-1.389.063-4.46.246-8.085.782a71.455 71.455 0 0 0 7.384-2.847s-8.447 1.152-15.812 4.35c-.426-.34-.86-.685-1.313-1.026l.797-.299c2.388-.224 7.648-.927 13.564-2.974 0 0-4.049.07-8.882.965a73.585 73.585 0 0 0 8.309-4.588s-.288.085-.809.244c.473-.258.952-.515 1.43-.783 0 0-2.79.706-6.597 2.053a84.305 84.305 0 0 0 5.908-3.027s-8.83 2.234-16.577 6.373a31.99 31.99 0 0 0-.854-.565c2.008-.7 8.003-2.959 14.533-7.167 0 0-8.322 2.375-15.212 6.737-.224-.137-.444-.273-.672-.41 2.515-.918 7.926-3.128 13.777-6.892 0 0-1.208.341-3.078 1.005a70.764 70.764 0 0 0 2.799-1.5s-8.335 2.11-15.908 6.022c-.229-.123-.47-.241-.708-.362 7.885-2.454 15.01-5.978 15.01-5.978-7.443 2.223-13.325 4.742-15.502 5.723l-.648-.31a83.758 83.758 0 0 0 6.162-3.09c4.201-1.694 7.145-3.15 7.145-3.15-1.292.387-2.53.78-3.724 1.177 1.857-1.122 3.006-1.891 3.006-1.891a103.848 103.848 0 0 0-6.88 3.245 123.63 123.63 0 0 0-7.366 2.952c-.184-.077-.367-.156-.553-.228 4.462-2.05 8.47-4.448 10.536-5.745.756-.352 1.178-.567 1.178-.567-.189.06-.369.119-.556.176.554-.356.861-.56.861-.56a84.71 84.71 0 0 0-2.225.98c-1.575.497-3.06.998-4.438 1.488 3.214-1.352 5.339-2.405 5.339-2.405a131.45 131.45 0 0 0-14.441 5.259 8.075 8.075 0 0 0-.409-.134c7.11-2.38 13.285-5.582 13.285-5.582-1.693.523-3.3 1.064-4.79 1.596 2.372-1.036 3.865-1.777 3.865-1.777a132.265 132.265 0 0 0-14.335 5.215 19.942 19.942 0 0 0-.692-.176c7.369-2.398 13.936-5.808 13.936-5.808-1.314.411-2.578.829-3.777 1.242a87.07 87.07 0 0 0 4.629-2.414s-5.018 1.269-10.803 3.67c5.778-2.993 10.115-5.976 10.115-5.976-8.915 3.592-15.614 7.765-17.064 8.693-.096-.011-.197-.029-.305-.042 8.979-4.61 16.818-11.254 16.818-11.254-8.966 4.36-15.814 9.403-17.994 11.08a53.407 53.407 0 0 0-1.768-.18c9.144-4.612 17.207-11.443 17.207-11.443-.648.312-1.283.629-1.905.952.578-.464.896-.737.896-.737-9.034 4.384-15.904 9.476-18.037 11.116a37.247 37.247 0 0 0-.848-.02l.02-.006c7.303-5.697 13.45-13.143 13.45-13.143a108.147 108.147 0 0 0-7.145 6.077c3.313-3.346 5.5-5.998 5.5-5.998-7.686 5.954-13.09 11.973-14.064 13.085-.105.005-.21.007-.318.01a1.534 1.534 0 0 0-.097-.113l-.87-.176c7.243-5.678 13.316-13.037 13.316-13.037-.694.541-1.364 1.075-2.021 1.605-.238.117-.547.273-.936.46 1.122-1.245 1.768-2.027 1.768-2.027-1.287.99-2.5 1.992-3.649 2.961-.597.308-1.265.642-1.984 1.02a87.079 87.079 0 0 0 4.364-3.96s-1.396.744-3.577 2.023a83.21 83.21 0 0 0 1.874-2.631 43.79 43.79 0 0 0 1.087-1.038s-.966.519-2.557 1.425c.15-.214.229-.332.229-.332-.174.165-.343.33-.519.503a158.626 158.626 0 0 0-3.884 2.32c.167-.308.33-.594.485-.867a83.746 83.746 0 0 0 5.117-4.588c.242-.145.477-.29.716-.433 0 0-2.28.877-5.685 2.348.074-.154.134-.26.164-.332 1.745-.99 3.504-2.031 5.242-3.122 0 0-1.727.66-4.413 1.81a163.656 163.656 0 0 0 4.207-2.188s-4.12 1.35-9.638 3.493c2.9-1.327 5.947-2.805 8.95-4.423.48-.178.96-.352 1.446-.534 0 0-5.688 1.227-12.919 3.271 2.224-.697 4.6-1.468 7.06-2.32 1.946-.344 3.963-.722 6.028-1.153 0 0-1.292.077-3.463.248a172.62 172.62 0 0 0 2.547-.939s-1.874.405-4.834 1.137c-4.495.402-11.07 1.13-17.778 2.328.073-.354.15-.712.229-1.07a266.25 266.25 0 0 0 22.396-2.988s-9.5.534-19.813 2.07c2.848-.547 6.75-1.347 11.238-2.415 3.129-.233 6.582-.55 10.212-.963 0 0-2.27-.101-5.787-.132.573-.145 1.144-.304 1.731-.453 1.156-.05 2.342-.11 3.544-.178 1.344.101 2.715.202 4.115.297 0 0-12.64-2.227-25.123-3.111.062-.136.117-.275.178-.413 3.192.3 13.371 1.23 25.457 2.035 0 0-12.719-2.249-25.325-2.321.209-.48.444-.95.679-1.423 3.027.475 13.254 1.986 25.5 2.801 0 0-.51-.116-1.419-.297-.42-.134-1.232-.391-2.33-.73 1.269.18 2.574.354 3.899.522 0 0-3.1-.746-7.712-1.68-3.067-.92-6.773-1.985-10.093-2.832 2.911.563 6.695 1.214 10.394 1.596 2.138.535 4.418 1.075 6.796 1.594 0 0-1.589-.556-4.144-1.367.628.042 1.255.072 1.859.09 1.221.189 2.401.319 3.497.393 0 0-.454-.147-1.241-.393.101.002.204.002.303-.007 0 0-.382-.081-1.041-.224a48.35 48.35 0 0 1-.804-.25c.966.217 1.95.435 2.952.646 0 0-10.778-3.65-21.534-5.932l-.394.036.095-.198c.024-.24.041-.475.061-.721.095-.102.194-.2.284-.304.01.636.022.983.022.983l.32-.673c.016-.145.025-.297.042-.442 1.94.625 12.207 3.859 24.879 6.69 0 0-12.163-4.107-24.286-6.837l-.582.022c.009-.064.013-.132.02-.19.235-.256.474-.505.723-.747.107.036.314.104.624.198.002.04.006.064.006.064l.022-.05c2.432.767 10.66 3.275 20.764 5.44.571.196 1.151.399 1.742.592 0 0-.953-.457-2.555-1.178 1.266.193 2.478.336 3.61.406 0 0-4.023-1.281-8.87-2.697a193.157 193.157 0 0 0-6.931-2.757c1.468.43 3.135.895 4.893 1.343a209.589 209.589 0 0 0 10.486 3.817s-2.522-1.207-6.279-2.816c.692.15 1.38.285 2.065.42 1.725.628 3.542 1.266 5.436 1.901 0 0-1.268-.611-3.349-1.534 1.393.217 2.738.382 3.986.466 0 0-4.583-1.464-9.845-2.98-3.012-1.241-6.483-2.582-9.979-3.759l-.773-.015s1.863.87 4.96 2.17a87.641 87.641 0 0 0-2.405-.605c-.894-.323-1.788-.64-2.694-.945.031-.319.082-.827.134-1.506.198-.123.402-.248.605-.371a.817.817 0 0 1 .008.072l.196.128-.176-.01s.123.06.323.15c-.024.002-.055-.009-.081-.01l-.556.749s3.537 1.21 8.184 2.475a211.704 211.704 0 0 0 12.099 4.457s-2.944-1.407-7.217-3.219c1.588.374 3.21.71 4.782.987 1.56.552 3.186 1.106 4.876 1.651 0 0-1.147-.527-3.05-1.356.833.116 1.641.215 2.415.283.496.163.986.33 1.49.493 0 0-.355-.165-.998-.455.079.006.16.013.233.017 0 0-.238-.072-.655-.208-.806-.357-1.922-.849-3.28-1.427 1.476.532 3.01 1.07 4.607 1.6 0 0-9.09-4.35-18.538-7.58.028-.277.063-.662.105-1.156.088-.04.187-.069.272-.113.02.146.036.282.058.427l.162.105-.402-.01s8.709 4.071 19.966 7.817c0 0-9.473-4.535-19.133-7.782.002-.128.017-.293.028-.51 2.694 1.17 10.495 4.462 20.017 7.567 0 0-2-.926-5.11-2.25 1.907.704 3.944 1.423 6.075 2.135 0 0-9.509-4.557-19.189-7.802l-.78-.015s1.461.675 3.922 1.723a150.875 150.875 0 0 0-4.845-1.688c.512-.183 1.03-.365 1.563-.532.004.006.002.004.006.004l.382.306.029-.126c2.129.94 10.328 4.468 20.483 7.776 0 0-2.837-1.319-7.029-3.055 1.72.633 3.55 1.283 5.486 1.94.995.43 2.01.86 3.058 1.298 0 0-.435-.253-1.203-.675.235.077.463.154.696.229 0 0-.562-.262-1.558-.706-3.159-1.737-9.52-5.103-16.036-7.849l-.215.049c.002-.016.024-.095.046-.233.74-.152 1.507-.28 2.29-.398.17.094.874.486 2.038 1.103-.973-.279-1.953-.54-2.94-.765l-.814-.022s4.897 2.498 13.02 5.4a207.771 207.771 0 0 0 7.502 3.324s-1.39-.8-3.632-2.003c1.318.433 2.696.866 4.137 1.295 0 0-6.048-3.434-13.615-6.063a135.522 135.522 0 0 0-4.991-2.23l-.593-.057c.23-.028.448-.07.68-.096l.014.01s.006-.015.01-.015c.205-.026.42-.048.63-.07 1.54.68 8.908 3.895 18.399 7.107 1.206.535 2.454 1.073 3.746 1.616.002-.002-.591-.343-1.617-.908.066.018.127.042.2.064l-.798-.391c-3.205-1.757-9.469-5.063-15.88-7.763l-.294-.029c.442-.024.883-.041 1.336-.052 7.21 3.38 17.716 6.428 17.716 6.428-5.55-2.871-12.88-5.21-16.51-6.279 7.028 1.35 14.788 2.115 14.788 2.115-5.884-1.596-12.277-2.165-14.975-2.346 1.83-.171 6.587-.811 11.831-3.073 0 0-4.407.272-9.172 1.695a36.93 36.93 0 0 0 7.647-4.234s-6.164 1.613-11.167 5.18l-.156.31c-.07-.016-.136-.036-.2-.054.817-.892 3.955-4.553 6.327-10.47 0 0-4.156 4.418-6.549 10.288l.007.119c-.38-.106-.593-.156-.593-.156.195.092.395.186.595.285l.007.143a20.007 20.007 0 0 0-.864-.042c.44-.67 4.069-6.219 6.64-14.659 0 0-4.73 6.475-7.121 14.196l.376.461a37.44 37.44 0 0 0-2.698.029c.806-1.924 2.96-7.58 4.09-15.315 0 0-3.583 7.187-4.857 15.357a34.94 34.94 0 0 0-.767.055c.492-1.588 2.26-7.814 2.667-16.366 0 0-1.201 3.283-2.172 7.908.36-2.313.667-4.997.808-7.963 0 0-.87 2.379-1.729 5.938a83.18 83.18 0 0 0-.072-6.421s-2.013 8.24-1.596 16.992l.154.12a34.25 34.25 0 0 0-1.182.174c.396-2.174 1.402-8.721 1.037-17.289 0 0-.49 2.025-.949 5.136.05-1.436.081-2.944.068-4.522.027-.242.053-.48.075-.724l-.08.21-.001-.302s-.08.31-.202.88c-.486 1.37-1.505 4.46-2.433 8.365.21-2.72.343-5.872.286-9.328 0 0-2.24 8.972-2.2 18.537-.48.132-.953.28-1.447.433.018-.294.03-.63.044-.994.723-2.46 2.133-8.033 2.575-15.303 0 0-1.505 3.933-2.575 9.258-.09-3.236-.347-7.194-.93-11.584 0 0-.037.345-.092.97-.044-.653-.098-1.32-.153-1.988 0 0-.446 3.214-.706 7.923a130.97 130.97 0 0 0-.441-8.035s-1.41 10.19-.672 20.859c-.28.119-.563.242-.844.372.145-2.465.426-9.984-.842-19.545 0 0-1.09 9.816.18 19.85-.206.103-.412.209-.623.323.14-3.13.248-10.049-.89-18.61 0 0-.156 1.418-.281 3.722-.07-1.244-.159-2.53-.27-3.85 0 0-1.339 9.619-.734 19.95-.203.125-.402.257-.6.382.841-9.458.413-19.058.413-19.058-.877 8.868-.879 16.477-.837 19.33-.178.124-.358.25-.534.377a127.012 127.012 0 0 0-.407-8.337c.1-5.344-.074-9.306-.074-9.306a177.757 177.757 0 0 0-.382 4.47c-.288-2.65-.548-4.36-.548-4.36-.004 3.309.11 6.42.268 9.137-.188 4.102-.206 7.42-.188 9.372-.141.11-.28.23-.424.345-.117-5.877-.736-11.597-1.101-14.6-.029-1-.057-1.576-.057-1.576-.016.226-.042.448-.064.672-.103-.81-.176-1.272-.176-1.272.002.989.011 1.96.031 2.915-.163 1.89-.283 3.708-.376 5.414.024-4.146-.103-7.015-.103-7.015-.765 7.686-.863 14.426-.855 17.944-.09.099-.186.191-.274.286.597-8.662.107-17.098.107-17.098-.188 2.027-.32 3.988-.42 5.826-.015-3.078-.102-5.083-.102-5.083-.754 7.587-.864 14.253-.86 17.804-.138.18-.285.345-.428.525.697-8.934.165-17.902.165-17.902-.14 1.585-.255 3.122-.343 4.597a140.41 140.41 0 0 0-.387-6.34s-.806 5.79-.88 13.212c-.457-7.881-1.481-14.389-1.481-14.389-.211 11.366.966 21.055 1.245 23.174-.059.084-.107.172-.158.258-.685-12.222-3.653-24.964-3.653-24.964.452 12.012 2.368 22.543 3.04 25.95-.292.5-.573 1.014-.848 1.544-.626-12.373-3.684-25.487-3.684-25.487.035.866.075 1.722.125 2.566-.198-.915-.316-1.43-.316-1.43.459 12.09 2.392 22.685 3.054 26.022-.12.255-.238.523-.354.79l.009-.025c-2.32-11.48-6.675-23.255-6.675-23.255.84 4.218 1.795 8.174 2.718 11.618-1.74-5.806-3.291-9.983-3.291-9.983 2.408 12.048 5.762 21.97 6.393 23.792-.037.108-.083.2-.116.31-.047 0-.095.004-.141.007l-.767 1.055s.191.01.545.017c-.116.37-.235.752-.347 1.137-.123.007-.24.024-.365.037l.046-.18c-2.326-11.489-6.679-23.26-6.679-23.26 2.345 11.742 5.587 21.468 6.334 23.638l-.076.214c-3.25-11.136-8.125-21.893-8.125-21.893a186.481 186.481 0 0 0 2.401 7.926c-1.529-3.812-2.651-6.283-2.651-6.283.366 1.308.74 2.59 1.118 3.834l-.057-.086c-.06-.022-.121-.053-.185-.075-9.634-31.117-43.096-41.432-46.668-42.45.459-.01.91-.033 1.348-.05 0 0-.663-.095-1.788-.223-.015-.002-.033-.01-.05-.015l-.172-.264c-7.766-5.595-16.87-9.295-16.87-9.295 7.045 5.125 13.546 8.172 16.049 9.258-3.73-1.113-12.585-3.581-20.826-4.645 0 0 10.748 2.92 20.538 4.81-5.082-.552-15.37-1.475-23.247-.926 0 0 14.716 1.673 24.934 1.352.617.231 1.222.469 1.824.704l-.39-.106c-9.055-.066-17.955.631-22.523 1.06-.723.028-1.134.055-1.134.055.1.004.192.015.286.017-1.463.148-2.307.244-2.307.244 1.82.014 3.592.014 5.304-.002 13.344.983 23.77.937 25.93.92.616.274 1.225.555 1.82.84l-.826-.232c-2.388-.006-4.772.027-7.07.095-10.642-.706-19.246.244-19.246.244 2.017.213 3.946.391 5.798.547-3.181.275-5.152.497-5.152.497a269.63 269.63 0 0 0 10.568-.112c11.46.681 18.422.233 18.422.233l-1.123-.372a86.373 86.373 0 0 0-4.117-.569 128.22 128.22 0 0 0 2.898-.262 90.384 90.384 0 0 1 7.296 3.898l-.857-.288a252.196 252.196 0 0 0-11.63-.661c5.975-.139 9.785-.317 9.785-.317l-1.72-.932c-9.208-.073-18.249.65-22.742 1.077a112.45 112.45 0 0 0-2.206.042c.332.024.657.055.985.077-1.094.112-1.712.182-1.712.182 1.477.011 2.922.016 4.333.022a355.1 355.1 0 0 0 7.65.469c-5.886-.07-9.878.032-9.878.032 15.487 1.309 27.823 1.192 29.45 1.174.717.449 1.424.902 2.112 1.361-2.292-.18-4.583-.327-6.813-.44 3.5.01 5.539-.05 5.539-.05l-1.077-.363c-13.6-1.035-27.082-.51-27.082-.51 2.988.236 5.853.41 8.533.545-4.39-.015-7.21.055-7.21.055 14.034 1.181 25.485 1.2 28.716 1.181 6.057 4.12 10.812 8.596 14.54 13.217l-.956-.407c-.33-.055-.67-.114-1.008-.173l-.626-1.005c-2.7-.58-6.424-1.156-10.368-1.673 5.414.077 8.746-.02 8.746-.02l-.105-.04c.387.036.606.051.606.051l-.71-1.128a90.897 90.897 0 0 0-1.893-.375c.857-.014 1.32-.025 1.32-.025l-1.074-.362c-1.42-.11-2.839-.198-4.236-.277-1.083-.165-2.206-.321-3.36-.482 4.39.04 7.02-.037 7.02-.037l-1.072-.363c-4.921-.374-9.816-.545-14.072-.613-7.37-.84-13.799-1.418-13.799-1.418 1.72.514 3.59.987 5.526 1.413-2.947.033-4.746.106-4.746.106 2.674.209 5.238.37 7.668.499.95.187 1.91.36 2.869.527-5.317-.008-8.88.132-8.88.132a301.43 301.43 0 0 0 14.774.792c2.457.345 4.792.633 6.842.862a271.462 271.462 0 0 0-9.781-.26 639.348 639.348 0 0 0-12.448-1.262c1.57.47 3.26.9 5.009 1.295-2.265.04-3.614.092-3.614.092.839.064 1.663.128 2.48.18 15.94 2.795 28.605 3.92 29.94 4.037a65.33 65.33 0 0 1 1.176 1.51l-1.03-.4c-16.92-2.814-34.016-4.087-34.016-4.087 18.422 3.087 33.302 4.413 35.11 4.571a56.32 56.32 0 0 1 4.987 7.95l-.34-.167c-1.54-.379-3.096-.75-4.636-1.106 2.742.272 4.466.398 4.466.398l-.703-1.124a36.247 36.247 0 0 0-.797-.167l-.52-1.073c-1.517-.453-3.382-.934-5.425-1.418 3.484.354 5.514.506 5.514.506l-1.111-.468c-.24-.042-.484-.084-.725-.128.902.084 1.412.117 1.412.117l-.707-1.12a3.127 3.127 0 0 0-.248-.056l.151.015-1.127-.48c-14.997-2.657-30.156-3.776-30.156-3.776 1.397.25 2.77.486 4.117.712-.386-.037-.762-.073-1.1-.108-.934-.165-1.472-.257-1.472-.257.136.053.276.101.413.156l-1.75-.16c1.528.45 3.162.875 4.856 1.257.844.277 1.705.545 2.58.81-3.59-.326-5.831-.473-5.831-.473 2.948.51 5.79.958 8.476 1.35-.011.268-.033.758-.044 1.448-5.664-1.033-9.386-1.605-9.386-1.605 1.852.462 3.662.902 5.424 1.315a284 284 0 0 0-3.255-.31c-1.281-.233-2.006-.356-2.006-.356 2.234.664 4.416 1.3 6.534 1.9l.068.822c-1.018-.238-1.912-.447-2.674-.616-.084-.19-.136-.297-.136-.297.008.092.033.18.046.268-1.74-.38-2.742-.595-2.742-.595l2.781.83c.093.557.19 1.098.29 1.64a30.197 30.197 0 0 1-.69-.153c-.059-.148-.11-.293-.175-.449 0 0 .026.156.085.433-.643-.138-1.111-.235-1.395-.299-.063-.156-.123-.314-.195-.477 0 0 .033.172.107.462l-.215-.046c.073.024.14.04.22.064.154.686.49 2.086 1.002 3.95a117.681 117.681 0 0 0-1.942-5.054s1.434 7.338 4.299 14.833c-.14-.08-.279-.156-.415-.237-.842-3.054-2.617-8.898-5.44-15.541 0 0 .543 2.484 1.577 6.076a129.903 129.903 0 0 0-1.786-4.683 85.352 85.352 0 0 0-.674-2.519s.026.396.092 1.101c-.083-.19-.158-.382-.244-.578 0 0 .11.5.314 1.361.275 2.623.899 7.607 2.186 12.712-.202-.09-.41-.187-.615-.282a122.268 122.268 0 0 0-2.515-8.12 103.654 103.654 0 0 0-1.896-7.937s.1 1.486.384 3.8a133.556 133.556 0 0 0-1.568-3.875s.747 3.447 2.172 8.086c.374 2.236.868 4.73 1.525 7.235-.248-.097-.505-.2-.753-.301-.649-2.48-2.503-9.082-5.763-16.746 0 0 1.81 8.339 5.167 16.522-.279-.106-.56-.21-.846-.315-1.766-8.985-5.769-17.286-5.769-17.286a88.18 88.18 0 0 0 .593 3.357c-.716-2-1.257-3.228-1.257-3.228.67 7.466 2.487 13.462 3.423 16.172-.285-.086-.573-.173-.859-.253-.86-8.75-4.609-17.233-4.609-17.233.747 8.34 2.93 14.852 3.717 16.99-.388-.104-.764-.2-1.144-.297-1.683-9.285-5.926-18.08-5.926-18.08.392 2.497.88 4.85 1.407 6.984-1.47-4.074-2.806-6.846-2.806-6.846.09.583.184 1.156.288 1.721-.22-.534-.35-.828-.35-.828.341 3.814.987 7.252 1.657 10.064-2.625-4.584-5.464-7.936-5.464-7.936 2.32 6.292 5.442 11.086 6.947 13.195.101.314.2.602.29.86a86.913 86.913 0 0 0-1.905-.33c-2.278-8.295-7.268-16.007-7.268-16.007a69.23 69.23 0 0 0 2.624 8.055 81.68 81.68 0 0 0-5.062-7.156c-.295-.49-.47-.754-.47-.754.022.079.048.171.066.255-.09-.112-.145-.176-.145-.176l.268.629a60.766 60.766 0 0 0 1.177 3.884c-1.331-2.662-2.423-4.386-2.423-4.386 1.632 7.438 4.482 13.09 5.508 14.96a88.058 88.058 0 0 0-1.52-.107l.169-.103c-1.617-7.613-6.134-14.7-6.134-14.7.41 2.002.925 3.87 1.467 5.563-1.931-3.056-3.598-5.083-3.598-5.083a57.488 57.488 0 0 0 2.92 6.829c-2.325-3.953-4.606-6.732-4.606-6.732 2.584 7.382 6.301 12.738 7.308 14.103-.337-.007-.648-.01-.963-.02-3.576-7.048-9.805-13.164-9.805-13.164 3.293 6.666 7.362 11.502 8.832 13.151a70.888 70.888 0 0 0-3.368.062l.36-.41c-4.87-6.619-12.349-12.082-12.349-12.082 5.264 7.233 11.13 11.933 11.864 12.5-.44.022-.789.044-1.07.064l-.026-.125c.221-.09.452-.178.667-.268 0 0-.246.059-.694.156l-.022-.101c-4.411-5.017-10.682-8.72-10.682-8.72 4.388 5.053 9.195 8.128 10.447 8.882-.075.02-.154.035-.24.053l-.265-.264c-7.114-2.93-15.201-4.128-15.201-4.128a71.201 71.201 0 0 0 10.556 3.425c-6.28-1.082-11.84-1.176-11.84-1.176 7.075 1.787 13.165 2.198 15.503 2.29-3.322.24-11.154.94-18.106 2.509 0 0 9.5-.913 17.937-2.309-4.256 1.051-12.837 3.314-19.062 5.987 0 0 12.36-2.986 20.536-6.15.567-.006 1.122-.01 1.68-.006l-.362.038c-7.327 2.543-14.32 5.61-17.899 7.241-.593.24-.92.376-.92.376.083-.024.16-.046.239-.066-1.151.528-1.806.847-1.806.847a243.656 243.656 0 0 0 4.297-1.533c11.06-3.097 19.47-6.125 21.212-6.758.26.011.534.022.798.038l.01.013.02-.011c.293.017.585.044.882.066l-.739.07c-1.94.673-3.853 1.385-5.69 2.097-8.799 2.529-15.5 5.705-15.5 5.705 1.692-.42 3.302-.842 4.843-1.255-2.503 1.113-4.034 1.851-4.034 1.851a257.425 257.425 0 0 0 8.524-3.122c9.45-2.783 14.949-5.115 14.949-5.115l-1.009.046c-1.177.228-2.34.483-3.484.763 1.272-.563 2.058-.935 2.276-1.027 1.002.073 1.986.165 2.953.266.059.117.094.182.11.204l-.28-.03c-7.463 2.592-14.577 5.722-18.09 7.332-1.131.413-1.773.657-1.773.657.275-.075.539-.145.811-.227-.852.403-1.333.636-1.333.636 1.2-.416 2.372-.822 3.513-1.234a323.28 323.28 0 0 0 6.333-1.848c-4.791 1.63-7.999 2.866-7.999 2.866 11.862-3.203 21.232-6.53 23.662-7.41l.06.11.408-.28c.71.128 1.404.266 2.09.407-1.908.52-3.79 1.068-5.62 1.62 2.82-.994 4.453-1.618 4.453-1.618l-.97.037c-11.285 3.13-22.037 7.394-22.037 7.394a294.632 294.632 0 0 0 7.041-2.043c-3.553 1.247-5.811 2.107-5.811 2.107 11.121-2.995 20.05-6.106 23.128-7.211.07.184.123.332.169.441-11.264 3.131-21.985 7.374-21.985 7.374 13.133-3.62 23.01-7.429 23.01-7.429l-.496.02.178-.099c-.01-.123-.028-.244-.04-.362.124.022.242.046.368.079.173.428.31.765.413.998-11.005 3.115-21.276 7.184-21.276 7.184a254.325 254.325 0 0 0 5.315-1.528c-1.536.541-2.802 1.005-3.711 1.337-.49.132-.765.2-.765.2.097-.006.191-.017.284-.02-.73.27-1.127.42-1.127.42.582-.156 1.162-.314 1.73-.472.957-.086 1.94-.198 2.95-.324-2.171.779-3.472 1.271-3.472 1.271 1.973-.53 3.873-1.06 5.684-1.587 1.891-.29 3.827-.633 5.718-1.007-4.89 1.708-8.216 3.025-8.216 3.025a277.288 277.288 0 0 0 14.016-4.27c5.486-1.246 9.601-2.404 9.601-2.404l-.88-.634c-.031.003-.067.01-.095.011l.365-.136-.216.004.211-.112-.006-.061c.28.097.569.2.843.299.233.587.418 1.033.534 1.306-1.046.29-2.094.598-3.124.901-.92.187-1.872.396-2.852.609 3.55-1.229 5.66-2.042 5.66-2.042l-.967.044c-4.08 1.125-8.076 2.405-11.528 3.577-6.2 1.481-11.562 2.908-11.562 2.908a78.264 78.264 0 0 0 4.855-.536c-2.366.868-3.805 1.44-3.805 1.44a287.338 287.338 0 0 0 6.334-1.83 165.74 165.74 0 0 0 2.467-.43 262.26 262.26 0 0 0-4.904 1.79c-11.637 1.668-20.489 5.992-24.764 8.446 4.183-1.733 15.963-6.435 22.446-7.348a71.24 71.24 0 0 0 3.634-.39c.106-.01.213-.02.319-.027-1.78.668-2.83 1.088-2.83 1.088.688-.198 1.364-.387 2.034-.578 1.17-.216 2.314-.427 3.434-.644a58.172 58.172 0 0 1 3.557-.007c-1.162.28-2.24.552-3.236.813l-.097-.02a.572.572 0 0 0-.098.062l.347-.32-1.05.507c-.846.216-1.609.413-2.288.594l.88-.8-1.115.545c-.206.16-.41.327-.62.479-.476.125-.889.242-1.245.336.897-.804 1.38-1.24 1.38-1.24l-1.118.541c-.413.321-.833.644-1.246.963-.233.07-.36.101-.36.101.103-.015.204-.037.305-.06-1.004.788-2.004 1.582-2.981 2.369 2.465-2.192 3.864-3.5 3.864-3.5l-1.076.516c-11.289 8.788-21.445 18.459-21.445 18.459a376.168 376.168 0 0 0 5.303-4.195c-1.483 1.312-2.702 2.418-3.579 3.205-.485.376-.762.58-.762.58.099-.05.204-.105.305-.16-.694.636-1.08.994-1.08.994.597-.453 1.175-.9 1.75-1.346a108.688 108.688 0 0 0 3.175-1.791c-2.085 1.875-3.324 3.023-3.324 3.023 1.98-1.522 3.878-3.001 5.68-4.44a190.167 190.167 0 0 0 5.995-3.86c-4.728 4.166-7.87 7.163-7.87 7.163a381.9 381.9 0 0 0 13.85-11.3 285.464 285.464 0 0 0 7.362-5.408c.057-.007.106-.018.165-.027-.132.1-.257.2-.387.3-.09.026-.145.034-.145.034.036 0 .08 0 .11-.006-3.32 2.642-6.48 5.316-9.26 7.72-6.305 4.582-11.695 8.687-11.695 8.687a105.472 105.472 0 0 0 5.24-2.955c-2.267 2.069-3.63 3.355-3.63 3.355a328.872 328.872 0 0 0 6.31-5.004c.866-.547 1.727-1.103 2.589-1.657-4.148 3.68-6.842 6.246-6.842 6.246a381.205 381.205 0 0 0 12.037-9.762 280.46 280.46 0 0 0 5.906-4.205 331.175 331.175 0 0 0-7.795 6.626c-5.791 4.232-10.541 7.84-10.541 7.84a89.796 89.796 0 0 0 4.765-2.665 193.088 193.088 0 0 0-2.755 2.572c.694-.547 1.373-1.08 2.05-1.609a491.79 491.79 0 0 0 17.752-12.16 40.7 40.7 0 0 0 1.162-.088c-11.74 8.183-21.282 15.634-21.282 15.634a621.771 621.771 0 0 0 20.57-14.229c.633-.048 1.268-.094 1.89-.145-9.463 6.61-16.812 12.351-16.812 12.351a360.69 360.69 0 0 0 3.669-2.41c-.319.245-.63.478-.914.693-.835.547-1.32.86-1.32.86l.428-.19c-.931.697-1.472 1.115-1.472 1.115a93.677 93.677 0 0 0 4.627-2.592c.84-.404 1.687-.835 2.544-1.277-3.02 2.29-4.868 3.757-4.868 3.757a405.253 405.253 0 0 0 8.41-5.661c3.616-1.985 7.186-4.113 10.288-6.028.103.009.209.01.31.015-3.22 2.278-6.51 4.68-9.333 6.767-5.802 3.716-9.627 6.303-9.627 6.303 1.75-.985 3.447-1.97 5.1-2.935a648.32 648.32 0 0 0-2.756 2.078c-1.153.734-1.786 1.156-1.786 1.156a683.991 683.991 0 0 0 19.564-10.579c.246.077.486.147.732.224-.38.196-.752.403-1.123.603l-.62-.119c.178.057.354.108.537.163-.143.081-.288.158-.433.237-.176-.042-.277-.061-.277-.061.08.026.16.057.235.083-9.777 5.305-16.778 9.614-16.778 9.614 6.002-3.12 11.63-6.081 16.563-8.697.266.099.525.189.79.288-1.199.684-2.348 1.348-3.455 1.985-.13-.097-.264-.2-.402-.308 0 0 .099.139.281.378-7.173 4.158-12.037 7.16-12.037 7.16 1.88-.98 3.728-1.947 5.53-2.901.274-.112.54-.233.819-.34 1.562-.438 3.098-.872 4.607-1.302a562.792 562.792 0 0 0-5.712 2.842c-1.362.418-2.118.662-2.118.662l1.47-.332c-.455.242-.71.37-.71.37.4-.157.791-.315 1.18-.471 1.11-.25 2.203-.5 3.293-.75-.91.378-1.415.594-1.415.594.807-.275 1.604-.543 2.39-.822.567-.126 1.13-.253 1.686-.392.22.22.459.462.738.737-.578.228-1.118.442-1.632.657-2.41.56-3.825.915-3.825.915.593-.077 1.186-.159 1.775-.242.044.04.094.079.138.116-.74.308-1.388.576-1.92.805-.191.055-.303.092-.303.092a.834.834 0 0 1 .167-.035c-1.118.462-1.74.732-1.74.732 1.1-.354 2.184-.714 3.251-1.068.308-.07.613-.143.925-.211.132.116.268.23.405.345l-1.984.475c.731-.097 1.465-.194 2.192-.3.253.212.501.412.752.618-.229.049-.359.073-.359.073.137-.009.27-.024.405-.035.35.279.696.558 1.043.833l-.751.158c-.514-.263-1.024-.525-1.545-.78 0 0 1.185.93 3.169 2.348a4.892 4.892 0 0 0-.225.033c.093.002.187 0 .284.01.595.423 1.268.889 1.995 1.388-.437.053-.802.106-1.101.136-1.839-.991-3.816-2-5.92-3.018 0 0 1.728 1.306 4.534 3.188a129.901 129.901 0 0 0-5.86-3.09s2.53 2.001 6.409 4.58c-.28.05-.455.077-.503.086a145.657 145.657 0 0 0-8.22-4.28s2.462 1.855 6.278 4.328a150.279 150.279 0 0 0-5.425-2.878 104.1 104.1 0 0 0-2.62-1.774s.331.341.94.941c-.231-.11-.457-.222-.69-.332 0 0 .492.37 1.368.996 2.281 2.199 6.752 6.294 11.99 9.964-.29.077-.57.15-.849.23a144.4 144.4 0 0 0-8.81-5.452 119.476 119.476 0 0 0-8.027-5.79s1.241 1.297 3.304 3.196a157.266 157.266 0 0 0-4.57-2.306s3.408 2.579 8.426 5.707c2.096 1.759 4.521 3.658 7.116 5.441-.336.108-.677.216-1.009.332-2.564-1.765-9.524-6.353-18.744-10.788 0 0 8.256 6.226 17.969 11.06-.367.128-.743.258-1.105.388-8.7-6.848-19.171-11.267-19.171-11.267a92.74 92.74 0 0 0 3.194 2.61c-2.278-1.267-3.774-1.957-3.774-1.957 6.42 6.344 12.878 10.407 15.915 12.148-.36.152-.72.304-1.07.462-7.597-7.376-17.939-12.166-17.939-12.166 7.163 7.088 14.386 11.324 16.84 12.667-.472.216-.94.431-1.397.647-8.845-7.203-19.94-11.883-19.94-11.883a96.946 96.946 0 0 0 6.802 5.31c-4.631-2.566-8.131-4.048-8.131-4.048.543.466 1.085.917 1.626 1.359-.633-.315-1.002-.486-1.002-.486a79.852 79.852 0 0 0 9.423 7.94c-6.209-2.097-11.673-2.89-11.673-2.89 7.195 3.92 14.07 5.819 17.227 6.544.351.214.668.394.96.563-.75.409-1.488.818-2.202 1.238-8.704-5.808-19.726-8.886-19.726-8.886a81.782 81.782 0 0 0 8.873 5.309c-4.71-1.39-8.8-2.18-10.664-2.508-.679-.21-1.065-.321-1.065-.321.085.066.175.125.27.195l-.288-.053c.255.124.503.249.754.361a79.438 79.438 0 0 0 4.183 2.636c-3.404-1.38-5.847-2.089-5.847-2.089 7.389 5.543 14.63 8.451 17.124 9.348-.567.38-1.112.757-1.641 1.126l.094-.227c-7.494-5.713-17.55-8.596-17.55-8.596a62.106 62.106 0 0 0 5.765 3.942c-4.323-1.26-7.58-1.772-7.58-1.772a68.152 68.152 0 0 0 8.229 3.931c-5.414-1.77-9.885-2.484-9.885-2.484 8.318 4.718 16.23 6.65 18.31 7.103-.35.26-.677.51-1.002.759-9.069-3.615-20.13-4.213-20.13-4.213 8.477 3.483 16.354 4.657 19.126 4.984a98.793 98.793 0 0 0-3.396 2.784l.046-.667c-10.056-2.17-21.896-1.158-21.896-1.158 10.928 2.41 20.538 2.003 21.722 1.937-.426.369-.771.675-1.046.92l-.123-.087c.16-.266.328-.534.481-.79 0 0-.215.251-.59.702l-.104-.077c-8.36-1.057-17.607.605-17.607.605 8.367 1.108 15.634.05 17.49-.258-.056.075-.124.16-.195.247l-.483-.036c-9.515 3.058-18.708 8.493-18.708 8.493 5.361-1.7 10.028-3.73 13.42-5.38-7.248 4.083-13.009 8.5-13.009 8.5 8.613-4.083 15.146-8.64 17.614-10.445-3.215 2.922-10.68 9.904-16.588 16.974 0 0 9.012-8.528 16.57-16.644-3.552 4.407-10.59 13.445-14.898 20.949 0 0 10.352-12.756 16.273-22.297.574-.47 1.147-.912 1.716-1.363l-.342.332c-5.54 8.273-10.335 16.759-12.743 21.167-.42.697-.65 1.086-.65 1.086.061-.082.13-.167.197-.251-.769 1.422-1.201 2.249-1.201 2.249 1.129-1.684 2.199-3.313 3.214-4.903 8.94-11.807 15.212-21.4 16.506-23.402.277-.202.569-.41.848-.61.013 0 .017.003.017.003l.011-.022c.317-.23.631-.433.95-.653l-.697.655c-1.463 2.197-2.88 4.4-4.21 6.545-7.056 9.451-11.472 17.81-11.472 17.81 1.41-1.755 2.73-3.445 3.987-5.076-1.698 3.049-2.697 4.975-2.697 4.975a349.724 349.724 0 0 0 6.318-9.786c7.523-10.211 11.352-16.811 11.352-16.811l-.995.857a127.35 127.35 0 0 0-2.975 3.513c.868-1.545 1.397-2.52 1.538-2.785 1.08-.741 2.155-1.453 3.219-2.14.156.056.248.084.279.095l-.31.196c-5.642 8.431-10.515 17.084-12.875 21.413-.841 1.297-1.302 2.042-1.302 2.042.221-.286.439-.574.66-.864-.575 1.056-.88 1.658-.88 1.658a728.01 728.01 0 0 0 2.643-3.977c1.8-2.385 3.495-4.672 5.06-6.833-3.647 5.384-5.99 9.115-5.99 9.115 9.685-12.551 16.707-23.207 18.51-25.981l.147.046.2-.585.007-.007a88.67 88.67 0 0 1 2.44-1.306 292.962 292.962 0 0 0-4.494 6.035c2.122-3.194 3.304-5.091 3.304-5.091l-.96.813c-9.133 12.03-16.855 24.667-16.855 24.667a389.768 389.768 0 0 0 5.63-7.58c-2.678 4.016-4.321 6.641-4.321 6.641 9.07-11.768 15.81-21.866 18.103-25.377.216.119.39.207.512.27-9.117 12.009-16.81 24.601-16.81 24.601 10.648-13.969 17.819-25.478 17.819-25.478l-.488.416.097-.233c-.097-.101-.207-.2-.319-.301.15-.075.297-.154.446-.227.503.26.907.455 1.189.59-8.861 11.774-16.245 23.853-16.245 23.853 1.498-1.964 2.92-3.88 4.269-5.719a330.892 330.892 0 0 0-2.775 4.244c-.396.51-.622.798-.622.798.092-.084.182-.17.27-.251l-.83 1.31c.477-.622.949-1.235 1.417-1.842.907-.855 1.826-1.754 2.76-2.687-1.62 2.471-2.567 3.986-2.567 3.986a456.9 456.9 0 0 0 4.588-6.063c1.711-1.81 3.42-3.691 5.07-5.567-3.688 5.538-6.077 9.447-6.077 9.447a390.34 390.34 0 0 0 11.06-15.284c4.642-5.59 7.958-9.994 7.958-9.994l-1.384.13c-.029.03-.062.061-.082.088.167-.273.264-.42.264-.42l-.215.178.127-.28a.27.27 0 0 1-.053-.048c.365-.134.73-.277 1.097-.402.685.354 1.212.611 1.542.767a245.488 245.488 0 0 0-2.498 3.364c-.798.923-1.615 1.882-2.448 2.87 2.687-4.013 4.216-6.467 4.216-6.467l-.962.816c-3.295 4.342-6.406 8.763-9.04 12.641-5.194 6.391-9.582 12.041-9.582 12.041a104.283 104.283 0 0 0 4.544-4.428c-1.742 2.722-2.775 4.41-2.775 4.41a410.728 410.728 0 0 0 5.07-6.815c.734-.793 1.462-1.59 2.191-2.394-3.225 4.887-5.28 8.229-5.28 8.229a385.603 385.603 0 0 0 9.632-13.213 314.217 314.217 0 0 0 4.884-5.887 334.566 334.566 0 0 0-6.151 8.868c-4.759 5.892-8.617 10.854-8.617 10.854a95.95 95.95 0 0 0 4.14-4.001c-1.348 2.108-2.114 3.368-2.114 3.368l1.64-2.17c10.652-11.812 18.649-21.881 20.987-24.878l.065.01s-.017-.014-.043-.043c.296-.376.496-.626.597-.76a60.68 60.68 0 0 1 1.582-.308l.206.097-.749.591c-12.663 14.244-24.12 29.371-24.12 29.371 13.258-14.88 23.14-27.507 24.992-29.9.15.078.301.149.46.221l1.017.077s-.306-.224-.875-.615c.207-.038.422-.08.629-.11.248.13.496.255.747.37l.296.021-.533.394c-11.357 12.55-21.496 25.963-21.496 25.963 1.057-1.17 2.09-2.321 3.1-3.451-.272.332-.53.662-.765.96-.703.788-1.105 1.232-1.105 1.232.126-.1.255-.203.38-.308-.755.965-1.195 1.53-1.195 1.53a99.665 99.665 0 0 0 4.02-3.876c.743-.644 1.49-1.31 2.244-1.99-2.454 3.149-3.94 5.138-3.94 5.138a456.786 456.786 0 0 0 7.047-8.026c4.27-4.078 8.396-8.387 11.518-11.758-3.368 3.949-7.019 8.44-10.005 12.173-4.914 5.365-8.115 9.047-8.115 9.047 1.509-1.49 2.983-2.946 4.4-4.377-1.063 1.347-1.843 2.354-2.243 2.862-.967 1.062-1.505 1.667-1.505 1.667 14.566-13.233 25.973-24.77 29.328-28.207a44.8 44.8 0 0 1 2.15.152c-15.697 13.156-29.547 27.736-29.547 27.736a2414.895 2414.895 0 0 0 29.974-27.703l.597.064c-14.799 13.514-28.565 27.997-28.565 27.997 1.657-1.508 3.28-2.992 4.858-4.443a778.428 778.428 0 0 0 4.616-3.592c.86-.517 1.729-1.016 2.568-1.524-4.37 3.674-7.116 6.097-7.116 6.097a654.748 654.748 0 0 0 13.656-10.039c3.94-2.4 7.523-4.64 10.64-6.621-.04.13-.088.255-.125.391-11.71 8.246-20.926 15.36-20.926 15.36a707.299 707.299 0 0 0 20.498-14.056c-.112.343-.227.692-.334 1.042a634.017 634.017 0 0 0-12.534 9.02c-4.357 2.634-7.074 4.338-7.074 4.338 1.364-.69 2.704-1.388 4.042-2.082-2.867 2.15-4.557 3.453-4.557 3.453a565.86 565.86 0 0 0 8.586-5.573 577.635 577.635 0 0 0 10.423-5.654l-.002.02c-10.64 6.144-18.605 11.15-18.605 11.15.772-.398 1.543-.787 2.303-1.18a460.334 460.334 0 0 0 15.256-6.642c-8.874 4.443-15.27 7.908-15.27 7.908 2.44-.99 4.867-2.012 7.257-3.047-4.416 2.11-7.173 3.496-7.173 3.496a376.01 376.01 0 0 0 13.125-5.046c-7.382 3.45-12.461 6-12.461 6 .426-.148.857-.313 1.287-.469a199.975 199.975 0 0 0 11.526-2.822c-.042.169-.093.334-.148.494-6.766 2.51-11.376 4.417-11.376 4.417 3.538-.737 7.13-1.612 10.66-2.561-.143.16-.279.323-.413.483-5.727 2.155-9.502 3.714-9.502 3.714 2.628-.552 5.277-1.19 7.916-1.86-.088.105-.18.21-.266.314a374.427 374.427 0 0 0-7.68 3.34c1.884-.495 1.86.861 2.873-.113.204-.22.345-.373.413-.46a4.986 4.986 0 0 1-.413.46c-2.775 2.964-17.752 18.078-37.17 39.784-34.349 38.385-82.597 97.374-101.816 146.182 13.419 20.426 26.045 6.51 26.045 6.51 25.659-51.913 62.206-106.155 88.306-142.465 18.791-26.144 32.164-42.995 32.164-42.995.68.798 2.103-2.863 2.063-2.654 0 0 .42-1.87.62-2.43l.059-.292c-.094.49-.191.981-.279 1.469-.132.42-.264.844-.4 1.253 0 0 1.307-2.966 3.252-7.648l.53-.677c-1 2.932-1.996 5.92-2.94 8.932 0 0 1.186-2.722 2.994-7.046a442.897 442.897 0 0 0-2.601 7.1s2.023-4.282 4.873-10.668c.081-.031.162-.06.244-.086a499.188 499.188 0 0 0-4.008 10.685c-.338.756-.672 1.512-1.012 2.268.002-.002 3.09-5.643 7.247-13.733.058-.027.117-.044.174-.066a870.954 870.954 0 0 0-2.676 5.707 587.38 587.38 0 0 0-4.792 8.477s1.123-1.67 2.977-4.518a375.007 375.007 0 0 0-1.781 3.968s1.463-2.675 3.728-6.975a685.026 685.026 0 0 0 4.71-7.444c.301-.11.602-.222.901-.33a712.59 712.59 0 0 0-9.034 15.266s4.416-6.582 10.095-15.662c.27-.096.532-.195.791-.29a638.987 638.987 0 0 0-2.999 5.571 675.206 675.206 0 0 0-8.654 13.54s2.096-2.737 5.27-7.094c-.436.83-.876 1.684-1.31 2.537-1.014 1.493-2.053 3.018-3.103 4.581a937.873 937.873 0 0 0-3.84 4.857s11.804-13.013 23.174-27.305c.254-.099.5-.202.753-.301a2485.134 2485.134 0 0 0-23.6 29.52s12.628-13.922 23.993-29.564c.069.686.117 1.367.152 2.07-2.97 3.367-12.964 14.81-24.4 29.361 0 0 .52-.538 1.441-1.515.444-.41 1.312-1.195 2.479-2.28a473.081 473.081 0 0 0-3.777 4.415s3.181-3.232 7.824-8.176c3.244-3.025 7.133-6.718 10.56-10.124-2.915 3.144-6.648 7.288-10.18 11.558a488.085 488.085 0 0 0-6.954 7.11s1.723-1.511 4.458-4c-.58.75-1.165 1.497-1.718 2.236a107.26 107.26 0 0 0-3.36 4.023s.495-.446 1.33-1.211c-.086.128-.178.262-.257.383 0 0 .38-.407 1.056-1.115.262-.242.55-.501.837-.772a395.153 395.153 0 0 0-2.987 3.124s11.637-10.308 22.51-21.747l.338-.53.027.286c.103.237.213.47.323.701-.024.203-.057.407-.086.607-.354-.53-.545-.811-.545-.811l.07.976c.066.145.132.286.207.433-2.085 1.878-13.037 11.903-25.933 25.263 0 0 13.124-11.643 25.474-24.401l.503-.752c.037.07.066.134.088.194-.073.512-.16 1.02-.253 1.53-.11.107-.33.307-.661.606a1.098 1.098 0 0 0-.042-.04l.015.069c-2.596 2.372-11.33 10.478-21.56 21.206a357.14 357.14 0 0 0-1.89 1.667s1.096-.796 2.924-2.17a99.925 99.925 0 0 0-3.465 4.148s4.317-3.917 9.419-8.74a312.931 312.931 0 0 0 7.705-6.286 301.614 301.614 0 0 0-5.113 4.942 362.992 362.992 0 0 0-11.466 9.81s2.905-2.104 7.151-5.417c-.7.73-1.39 1.468-2.071 2.207a324.232 324.232 0 0 0-5.92 5.162s1.468-1.069 3.832-2.86a94.402 94.402 0 0 0-3.827 4.557s4.902-4.456 10.445-9.713c3.359-2.695 7.197-5.87 10.967-9.222l.71-.954s-2.14 1.571-5.618 4.322c.857-.84 1.692-1.671 2.485-2.471.971-.831 1.946-1.682 2.922-2.544.145.314.367.805.685 1.453-.114.36-.228.713-.345 1.066-.013-.015-.026-.026-.05-.048l-.24.139.159-.216-.365.27c.028-.021.048-.057.077-.083l.096-1.337s-3.82 3.37-8.667 8.067a362.13 362.13 0 0 0-13.26 11.271s3.396-2.453 8.2-6.244a182.476 182.476 0 0 0-4.813 5.118 349.83 349.83 0 0 0-5.264 4.657s1.305-.974 3.456-2.625a123.17 123.17 0 0 0-2.32 2.754l-1.597 1.436s.4-.297 1.131-.85c-.07.085-.143.182-.209.27l.688-.627c.91-.699 2.168-1.666 3.682-2.85a335.655 335.655 0 0 0-4.956 4.345s10.495-7.598 20.706-16.612c.121.267.3.645.53 1.122-.06.143-.132.286-.193.43-.088-.094-.176-.195-.275-.296l-.193.114.362-.488s-10.005 7.37-22.124 18.19c0 0 10.937-7.923 21.362-17.185.057.116.136.277.237.475-3.047 2.356-11.815 9.255-22.025 18.462 0 0 2.283-1.682 5.77-4.423a352.586 352.586 0 0 0-6.58 5.723s10.982-7.95 21.414-17.232l.705-.96s-1.652 1.22-4.423 3.394a291.176 291.176 0 0 0 5.242-4.57c-.36.793-.74 1.59-1.122 2.398l-.007.002-.507.218.037.136c-2.408 1.858-11.662 9.049-22.55 18.878 0 0 3.238-2.403 7.914-6.13a438.48 438.48 0 0 0-5.93 5.147c-1.127.875-2.28 1.779-3.452 2.702 0 0 .523-.319 1.442-.914-.25.224-.5.446-.75.675 0 0 .649-.486 1.771-1.337 3.768-2.447 11.286-7.499 18.609-13.272l.176-.31c.004.028.032.119.079.266a146.372 146.372 0 0 1-1.841 3.188c-.233.15-1.081.692-2.428 1.591a100.749 100.749 0 0 0 3.054-3.01l.738-.995s-5.737 3.964-14.601 11.62a309.801 309.801 0 0 0-8.49 6.484s1.668-1.044 4.317-2.8a398.561 398.561 0 0 0-4.402 4.038s7.27-4.593 15.475-11.769a234.89 234.89 0 0 0 5.684-4.315l.562-.704c-.184.317-.364.63-.558.943l-.024.007s0 .007.007.024c-.172.275-.36.563-.53.842-1.733 1.324-10.07 7.759-20.315 16.832a291.858 291.858 0 0 0-4.251 3.302s.718-.451 1.953-1.256c-.08.073-.15.137-.227.205 0 0 .343-.235.947-.673 3.834-2.5 11.21-7.464 18.402-13.13l.284-.344c-.394.563-.78 1.132-1.178 1.706-8.291 6.092-19.353 16.572-19.353 16.572 6.52-4.454 14.362-11.595 18.189-15.187-7.033 7.595-14.413 16.611-14.413 16.611 6.137-5.968 12.174-13.437 14.698-16.646-1.555 2.447-5.483 8.919-8.97 17.36 0 0 3.8-5.717 7.312-12.851-1.413 3.32-3.153 7.894-4.583 13.113 0 0 4.666-9.05 7.254-18.335l-.03-.455c.074-.07.14-.14.213-.204-.258 1.794-1.121 8.827-.075 16.82 0 0 1.37-8.952.371-16.943l-.068-.1c.398-.377.62-.593.62-.593-.229.16-.455.328-.69.495l-.086-.114c.218-.267.477-.614.8-1.04-.044 1.143-.323 10.38 1.883 20.784 0 0 .786-11.415-1.204-20.987l-.587.069a81.253 81.253 0 0 0 2.408-3.382c.31 2.654 1.406 10.173 4.526 18.173 0 0-.62-10.601-3.854-19.164.213-.319.43-.647.653-.992.413 1.985 2.168 9.502 6.369 17.287 0 0-.666-4.263-2.259-9.388.91 2.401 2.063 5.055 3.513 7.743 0 0-.485-3.11-1.615-7.21a57.35 57.35 0 0 0 3.494 5.377s-2.606-9.533-7.668-16.504l-.202.099c.316-.526.642-1.064.969-1.618.81 2.35 3.418 9.19 8.322 16.05 0 0-.637-2.314-1.87-5.526a72.33 72.33 0 0 0 2.334 3.91c.105.236.217.471.33.707 0 0-.023-.095-.047-.277l.165.259s-.099-.367-.288-1.01a103.187 103.187 0 0 0-2.283-10.145 75.244 75.244 0 0 0 4.717 8.297s-2.785-10.451-7.94-18.575c.36-.703.71-1.429 1.057-2.165.152.275.317.571.499.895.666 3.005 2.39 9.528 5.881 16.281 0 0-.747-5.225-2.634-11.097 1.815 2.644 4.157 5.7 7.028 8.72 0 0-.151-.342-.435-.945.39.506.789 1.005 1.2 1.509 0 0-1.318-3.3-3.605-7.642a84.697 84.697 0 0 0 4.695 6.307s-4.19-10.462-10.56-18.654c.188-.455.368-.912.554-1.365 1.189 2.29 4.961 9.053 11.225 15.64 0 0-4.284-9.733-10.794-16.722.13-.347.26-.703.391-1.05 1.545 2.842 5.152 8.881 10.761 14.78 0 0-.617-1.412-1.744-3.54a79.48 79.48 0 0 0 2.31 2.953s-3.954-9.867-10.024-17.946c.116-.354.222-.72.336-1.073 4.31 9.13 9.825 16.798 9.825 16.798-3.957-8.67-8.03-15.167-9.594-17.561.096-.321.193-.653.28-.98a84.766 84.766 0 0 0 4.823 6.608c2.773 4.692 5.053 7.86 5.053 7.86a120.593 120.593 0 0 0-2.052-4.296c1.683 1.908 2.824 3.04 2.824 3.04a106.156 106.156 0 0 0-5.13-7.468 132.207 132.207 0 0 0-4.851-8.238c.068-.272.136-.547.197-.824 3.25 4.87 6.875 8.998 8.817 11.102.558.816.888 1.275.888 1.275-.102-.222-.2-.43-.301-.653.529.565.832.871.832.871a95.385 95.385 0 0 0-1.58-2.454 134.83 134.83 0 0 0-2.559-5.089c2.197 3.568 3.843 5.852 3.843 5.852-3.43-7.512-6.945-13.395-8.848-16.39.035-.19.066-.388.101-.586 4.1 8.152 9.063 14.736 9.063 14.736a130.63 130.63 0 0 0-2.748-5.498c1.663 2.614 2.818 4.216 2.818 4.216-3.388-7.415-6.859-13.243-8.766-16.27.035-.324.073-.653.103-.985 2.165 4.427 4.634 8.437 6.501 11.271.249.741.5 1.482.754 2.205 0 0-.09-.523-.253-1.453a82.582 82.582 0 0 0 2.437 3.471 130.184 130.184 0 0 0-2.149-4.35 84.287 84.287 0 0 0 3.742 4.929s-1.213-3.017-3.32-7.08a146.02 146.02 0 0 0-.479-2.136c.387.475.76.925 1.13 1.365.527 1.39 1.063 2.766 1.625 4.129 0 0-.228-1.108-.644-2.988.829.95 1.584 1.79 2.224 2.475.057.211.105.425.16.631 0 0-.03-.189-.077-.534a69.277 69.277 0 0 0 2.13 2.199c-.37-.616-.733-1.225-1.1-1.816-.054-.444-.248-1.898-.549-4.08l.121.105c.255 1.312.52 2.634.8 3.98 0 0-.088-1.298-.275-3.51.238.214.475.414.694.607.154.76.304 1.526.466 2.295.082.702.16 1.399.246 2.117 0 0-.002-1.418-.057-3.851.046.041.088.077.13.112.022 1.332.042 2.671.072 4.038 0 0 .106-1.389.242-3.774.062.05.114.099.176.145.096.868.197 1.739.305 2.636 0 0-.006-.86-.048-2.419.195.165.373.306.542.449-.002.721.005 1.45.01 2.192 0 0 .054-.752.131-2.076.385.315.683.546.894.71a421.266 421.266 0 0 0-.151 3.995s.417-3.005.944-7.692c.044.81.086 1.629.141 2.46-.13 1.563-.25 3.17-.37 4.806a771.313 771.313 0 0 0-.83 5.395s3.56-15.52 6.095-31.572c.108.118.209.24.318.358a1938.404 1938.404 0 0 0-5.23 32.405s3.59-15.611 5.503-32.086c.354.41.696.835 1.04 1.262-1.007 4.717-3.569 17.218-5.86 32.288 0 0 .169-.65.457-1.807.173-.514.51-1.512.955-2.867-.34 1.638-.672 3.322-1.01 5.04 0 0 1.085-3.894 2.544-9.75 1.22-3.778 2.656-8.353 3.849-12.495-.903 3.691-1.988 8.513-2.845 13.323a363.595 363.595 0 0 0-2.333 8.559s.698-1.944 1.76-5.096a78.673 78.673 0 0 0-.345 2.462 73.702 73.702 0 0 0-.84 4.553s.191-.563.514-1.53c-.015.134-.03.27-.037.404 0 0 .123-.483.35-1.332.092-.303.2-.62.305-.96-.317 1.213-.64 2.45-.965 3.719 0 0 4.656-13.173 8.136-26.773l.028-.545.152.191c.068.038.143.077.217.121.104.196.216.387.326.585-.35-.125-.556-.196-.556-.196l.523.658c.12.066.246.13.37.202-.808 2.37-5.028 15.002-9.255 30.996 0 0 5.233-14.877 9.291-30.154l.06-.664c.223.435.44.875.654 1.323-.055.143-.119.354-.215.631l-.05-.01.039.043c-1.002 2.995-4.322 13.14-7.61 25.914-.251.7-.504 1.407-.754 2.128 0 0 .523-1.115 1.37-3.01a81.102 81.102 0 0 0-.87 4.687s1.675-4.95 3.57-10.942a264.978 264.978 0 0 0 3.338-8.34 250.25 250.25 0 0 0-1.839 6.09 321.704 321.704 0 0 0-4.754 12.724s1.386-2.953 3.295-7.442c-.224.866-.437 1.741-.652 2.605a330.972 330.972 0 0 0-2.401 6.646s.698-1.493 1.792-3.96a88.618 88.618 0 0 0-.977 5.165s1.904-5.628 3.956-12.149c1.479-3.61 3.12-7.789 4.616-12.065l.13-1.033s-1.006 2.187-2.557 5.894c.303-1.033.59-2.045.865-3.008.402-1.086.798-2.176 1.184-3.273.317.182.877.49 1.64.888.078.275.164.539.234.813-.147-.032-.296-.061-.448-.094l-.132.213.029-.224s-.061.134-.174.374c.01-.029.02-.066.029-.095l-.565-1.002s-1.527 4.315-3.278 10.09a336.728 336.728 0 0 0-5.53 14.67s1.624-3.45 3.775-8.558a158.59 158.59 0 0 0-1.522 6.06 346.509 346.509 0 0 0-2.105 5.955s.613-1.346 1.593-3.612a75.14 75.14 0 0 0-.59 3.137c-.212.602-.423 1.21-.632 1.83 0 0 .19-.42.525-1.186-.015.106-.033.202-.05.304 0 0 .103-.284.272-.798.413-.944.989-2.258 1.668-3.854a282.705 282.705 0 0 0-2.004 5.564s5.005-10.674 9.104-22.211c.3.165.763.418 1.365.736-.029.062-.062.148-.106.242-.202-.04-.402-.081-.602-.114l-.114.171.066-.523s-4.706 10.265-9.518 24.051c0 0 5.225-11.137 9.373-22.954.1.049.24.123.422.213-1.376 3.206-5.3 12.518-9.298 24.201 0 0 1.068-2.343 2.623-6.035a308.43 308.43 0 0 0-2.671 7.359s5.235-11.17 9.392-23.01l.12-1.035s-.773 1.693-2.014 4.623c.723-1.932 1.45-3.93 2.149-5.957.16.083.345.171.549.27.075.69.152 1.39.21 2.097-.14-.055-.291-.116-.434-.171l-.075.09.013-.086s-.024.062-.07.165l-.316.407s.041.026.103.077c-1.105 2.526-5.277 12.294-9.548 24.748 0 0 1.52-3.329 3.587-8.32a363.97 363.97 0 0 0-2.42 6.627 520.987 520.987 0 0 0-1.545 3.658s.277-.494.75-1.378c-.102.288-.199.571-.293.857l.815-1.838c1.925-3.63 5.708-10.999 8.972-18.788l-.004-.299c.02.016.26.198.688.497-.007.497-.009.998-.022 1.502l-.372.518s.06.044.137.097l-.013.029s.079.083.215.21c-.013.372-.02.73-.044 1.1l-.415.5s.136.131.367.344c-.025.328-.047.677-.075 1.016a9.539 9.539 0 0 0-.187-.13l-.064.064.095-.772s-4.223 9.463-8.834 22.521a257.636 257.636 0 0 0-1.916 4.485s.376-.68 1.01-1.87c-.03.087-.06.17-.092.254 0 0 .17-.34.464-.956 1.96-3.702 5.657-10.935 8.86-18.573l.17-1s-1.446 2.687-3.608 7.114c1.327-3.352 2.645-6.989 3.682-10.475.097.105.207.24.34.389a89.137 89.137 0 0 1-.401 3.597l-.055.041s.013.027.037.068c-.068.546-.145 1.09-.222 1.647-3.921 8.488-8.028 21.534-8.028 21.534 3.239-6.435 6.273-15.449 7.705-19.922-2.157 8.932-3.917 19.047-3.917 19.047 2.197-7.334 3.6-15.686 4.14-19.232-.11 2.502-.251 9.077.915 16.866 0 0 .398-5.982-.13-12.825.431 3.082 1.183 7.206 2.503 11.651 0 0-.483-8.791-2.79-16.692l-.248-.313c.026-.085.055-.167.079-.252.64 1.4 3.295 6.839 7.981 12.012 0 0-3.15-7.06-7.799-12.245z" transform="scale(-1 1) rotate(-17 -233.999 2423.8)"/>
</svg>
