<svg xmlns="http://www.w3.org/2000/svg" width="225" height="377" viewBox="0 0 225 377">
    <defs>
        <linearGradient id="a" x1="11.604%" x2="60.08%" y1="86.978%" y2="29.91%">
            <stop offset="0%" stop-color="#1FC1EF"/>
            <stop offset="100%" stop-color="#0DAFE3"/>
        </linearGradient>
    </defs>
    <path fill="url(#a)" fill-rule="evenodd" d="M793.16 219.389c.008.018.022.048.027.07-.03.061-.062.134-.091.202.018-.087.04-.17.064-.272zm.684-15.24l-.52.695-.056-1.772s-1.833 3.832-4.588 9.921a305.353 305.353 0 0 0 3.96-10.605c.297.224.814.601 1.535 1.096.005.264.002.523-.003.779-.108-.033-.22-.078-.328-.113zm-.721-5.186l.045-.36c.06.042.127.094.191.14l-.201.22s.304.313.866.843c.046.706.08 1.416.1 2.133-.388-.156-.778-.31-1.171-.463.089-.248.175-.496.261-.749l.167-1.32s-1.039 2.327-2.686 6.318c.821-2.203 1.639-4.47 2.428-6.762zm.064-5.202l.038-.3c.064.033.116.063.185.098.009.083.025.167.035.258-.086-.013-.17-.038-.258-.056zm-5.697-19.451l.038-.679c.118.25.24.501.35.749-.148-.027-.28-.057-.388-.07zm-3.948-7.605l-.713-.996c.016-.092.04-.164.057-.253.086.132.172.264.255.388l-.002.002.01.022c.372.547.719 1.104 1.066 1.667-.288.848-.928 2.72-1.803 5.415.468-2.335.867-4.467 1.13-6.245zm-20.627 15.686c-.756-1.12-1.49-2.18-2.228-3.204-.148-.652-.31-1.33-.474-2.041.39.385.775.764 1.155 1.13a187.58 187.58 0 0 0 1.547 4.115zm4.475-17.88c-.05-.652-.104-1.312-.161-1.977.143.075.288.148.425.224-.013.63-.03 1.276-.035 1.928a5.635 5.635 0 0 1-.229-.175zm-8.377 7.712c-.105-.434-.22-.883-.328-1.333.075.084.148.164.223.242.167.507.34 1.01.503 1.514-.129-.14-.26-.28-.398-.423zm10.15 8.37c-.007 1.203-.01 2.418-.013 3.648-.228-.31-.462-.616-.7-.926-.032-.991-.067-2.13-.126-3.412.304.242.582.477.84.69zm16.51-49.66c-.368 0-.731.008-1.097.008a89.49 89.49 0 0 0 5.524-4.715c-2.424 2.443-3.982 4.196-4.426 4.707zm-38.331 50.462c-.14-.154-.256-.275-.34-.377l.563-.88c-.075.417-.148.831-.223 1.257zm31.45-50.015l.04-.002c.13-.132.26-.262.388-.394.076.092.16.189.261.305-.231.027-.465.064-.688.091zm-11.687.194c.24-.326.49-.657.721-.977.259-.154.512-.294.746-.434-.027.057-.06.127-.092.186-.468.412-.923.813-1.375 1.225zm7.043-13.838c-1.077.549-2.172 1.112-3.26 1.685.12-.226.208-.409.273-.533.985-.388 2.015-.816 3.078-1.263l-.091.11zm-12.61 7.777c.164-.003.252-.003.252-.003a4.601 4.601 0 0 0-.271-.06 226.85 226.85 0 0 0-3.523-7.978c.019-.2.048-.404.075-.6.016.015.051.04.051.04l-.045-.11c.013-.111.03-.238.048-.356a264.66 264.66 0 0 0 2.877 5.991l-.347.418s.17-.06.479-.165c.409.824.777 1.546 1.084 2.144l-.161.232s.08-.044.229-.105c.188.363.344.67.487.929l-.38.525s.067-.035.207-.084c-.14.267-.271.539-.398.8-.218-.541-.441-1.08-.665-1.618zm-9.815-2.83c-.035-.098-.075-.192-.11-.283.137.12.274.24.409.35-.1-.025-.2-.043-.299-.068zm-18.087 11.433c.008-.056.025-.11.033-.164.04.062.08.124.107.183l-.14-.019zm-4.093-.339c.068-.277.13-.552.189-.827.037.035.067.078.096.119-.072.229-.145.468-.223.703l-.062.005zm16.671-22.267c.011-.054.03-.1.046-.151.067.07.143.132.207.191-.03.051-.056.097-.078.146-.062-.068-.12-.124-.175-.186zm-5.75 6.002c-.02-.086-.054-.17-.076-.258l.463.091-.525-.347-.008-.011c.162-.364.331-.765.498-1.174.285-.035.56-.062.826-.097.006.051.016.108.027.162a82.898 82.898 0 0 0-.562 1.634h-.643zm-17.073 8.063c.323-.038.649-.076.977-.1a110.254 110.254 0 0 0 4.042 5.763c-.107.312-.207.64-.315.98-.123.336-.255.7-.374 1.055a132.378 132.378 0 0 0-4.33-7.698zm-.47 7.717c-1.123-1.36-3.297-3.902-6.338-7.071.762-.068 1.52-.138 2.274-.208 1.671 2.486 3.504 5.01 5.452 7.4l.035.017c-.474-.054-.955-.1-1.424-.138zm21.617-41.933c.447.259.89.52 1.316.773-.205.347-.425.732-.668 1.155-.379-.234-.761-.474-1.133-.708.162-.401.32-.816.485-1.22zm-14.839 35.952c-.218-.368-.446-.748-.678-1.136.154.046.32.105.468.145.108.213.216.423.32.644a7.6 7.6 0 0 0-.11.347zm23.838-30.717c.508 1.04 1.02 2.052 1.52 3.032l-1.219-.808a208.875 208.875 0 0 0-1.851-3.11c.562.318 1.07.606 1.55.886zm-30.194 16.927c.067-.019.143-.03.213-.048.1.03.193.048.288.075.021.043.04.09.056.138-.186-.057-.377-.116-.557-.165zm-24.074 23.649c-.11-.11-.245-.237-.412-.39.436-.092.866-.178 1.294-.272l-.882.662zm-13.283 4.19l-.32.264c-.574.746-1.136 1.503-1.699 2.262a290.883 290.883 0 0 0-6.585 7.607c4.11-5.972 6.478-9.697 6.478-9.697l-1.222 1.053c-4.906 6.388-9.521 12.918-13.251 18.366-1.33 1.653-2.6 3.231-3.757 4.685 9.911-13.488 16.257-23.436 16.257-23.436l-1.206 1.034.127-.301-.277-.23c1.59-.718 3.172-1.378 4.73-1.992.307.159.547.294.725.385zm-39.395 28.962c3.226-5.472 5.234-9.156 5.68-9.988a166.253 166.253 0 0 1 4.054-3.051.82.82 0 0 0 .14.013c-3.445 4.11-6.836 8.671-9.874 13.026zm73.533-80.347c-.05-.469-.115-1.048-.196-1.726l.108.12c.097.599.201 1.197.315 1.8a3.896 3.896 0 0 0-.227-.194zm-.403-3.302c-.13-.918-.277-1.944-.468-3.088.043.048.088.11.131.159.122.985.253 1.979.393 2.978-.021-.019-.04-.032-.056-.049zm-16.06 18.929c-.065-.006-.13-.02-.197-.027.213-.11.423-.235.632-.345.081.013.162.032.232.048a50.96 50.96 0 0 1-.668.324zm17.962-38.67c-.032-.135-.05-.267-.086-.41 0 0-.01.143-.019.4-.409-.044-.812-.084-1.21-.127l-1.187-.221c-.124-.609-.261-1.23-.396-1.847.39.056.783.11 1.176.172 6.276 1.67 12.707 3.03 17.675 3.988-5.202-.738-10.969-1.414-15.953-1.955zm-2.88 13.71c-.072-.386-.152-.792-.233-1.194.161.132.328.259.495.39.024.348.054.701.086 1.046-.113-.078-.242-.165-.347-.243zm-.54-2.699c.234.148.46.302.689.458.019.226.032.452.051.692-.202-.14-.39-.264-.576-.385-.048-.245-.11-.509-.164-.765zm-6.222 7.451c-.14-.536-.32-1.155-.516-1.83.236.64.479 1.294.732 1.94-.07-.037-.143-.072-.216-.11zm-15.985 18.848a10.424 10.424 0 0 0-.395-.008c.29-.205.576-.402.86-.604.138.027.278.062.415.09-.293.177-.592.344-.88.522zm-10.99-9.261c-.038-.003-.062.01-.1.021-.527.097-.923.165-1.184.213.035-.03.076-.064.113-.1.43-.078.864-.156 1.295-.236-.046.032-.084.067-.124.102zm14.206-13.308c-.702.188-1.413.393-2.107.598-2.277.422-4.898.964-7.618 1.564 5.355-1.777 8.576-2.978 8.576-2.978l-1.232.056c-6.028 1.635-11.957 3.512-16.828 5.141-1.593.39-3.108.77-4.507 1.12 12.457-3.678 21.084-6.902 21.084-6.902l-1.224.052.22-.13c-.01-.107-.034-.204-.048-.304 1.297.364 2.551.743 3.768 1.145.096.272.177.476.234.624l-.318.014zm-12.126-3.463a230.67 230.67 0 0 0-6.434 1.836c3.337-1.133 5.457-1.914 5.939-2.087.124.016.256.046.38.06.077.096.126.15.126.15l.132-.115c.04.013.094.018.132.026a.91.91 0 0 0 .064.11l-.339.02zm31.795-35.82c-2.602-.216-5.199-.386-7.731-.52 4.077.056 6.682.021 7.282.016.447.266.901.527 1.337.797l-.888-.294zm53.02 51.271a41.806 41.806 0 0 1 1.87-2.868c.01.628.03.97.03.97l.393-.819c.018-.282.045-.554.072-.832.154-.202.307-.41.468-.608.003.126.014.196.014.196l.264-.552c.21-.266.43-.522.65-.789.004.216.006.401.006.552l-.215.027s.04.014.121.035c-.07-.01-.145-.019-.21-.032l-.686.918s.43.148 1.2.401c-.202-.05-.406-.097-.608-.142l-.99.08s1.778.604 4.83 1.53c-1.816-.253-3.466-.436-4.812-.525l-.516.932c-.24-.04-.471-.081-.697-.127l-.684.92s1.51.515 3.9 1.253a184.446 184.446 0 0 0-4.09-.565l-.31.045zm6.655-8.364c.016.21.043.388.056.528l-.664.06c.199-.197.395-.394.608-.588zm20.002-9.987l.294.218-1.254.282s3.286 1.61 8.439 3.978a213.904 213.904 0 0 0-8.754-3.18c.051-.246.118-.598.204-1.061.358-.09.716-.16 1.071-.237zm-5.963 57.422c.783 1.374 2.971 5.179 6.181 10.408.385.73.778 1.476 1.187 2.227-2.597-3.975-5.64-8.426-8.902-12.804.509.048 1.02.1 1.534.17zm11.434 3.062c.143-.06.275-.116.412-.178.24.086.474.175.721.27-.368.161-.565.255-.565.255l.91.051c.083-.018.159-.056.242-.075.36.137.727.288 1.093.442l-.224.148.547-.014c.322.14.645.291.976.44-.032.013-.056.018-.056.018l.118.01c.514.238 1.026.472 1.54.725-.256.138-.509.272-.76.412l-.384-.476s.116.38.369 1.088l-.003.005a62.86 62.86 0 0 0-.883-1.451l-1.173-.254s.08.175.218.49l-.062-.075s.91 2.782 2.591 7.247c-1.62-3.11-3.226-6.027-4.529-8.087l-1.044-.224a29.36 29.36 0 0 1-.433-.759l.38-.008zm-13.057 16.464a.088.088 0 0 0-.037 0 11.11 11.11 0 0 1-.372-.25c.135.089.28.167.41.25zm9.492.663c.358.393.697.775 1.057 1.174-.314-.011-.627-.033-.944-.054-.229-.294-.503-.636-.808-1.02.248-.041.482-.073.695-.1zm-6.946 66.473l-.121-.046c.178-.568.27-.894.27-.894-.135.275-.267.563-.407.851l-.073-.027c.073-.318.162-.716.256-1.195 1.03 1.653 6.063 9.435 13.942 16.736 0 0-5.896-10.433-13.512-17.555l-.323.245c.122-.611.248-1.314.37-2.114.909 1.46 5.973 9.39 14.003 16.822 0 0-6.367-10.16-13.926-17.272.057-.4.11-.805.172-1.236 2.177 2.405 7.476 7.872 14.81 12.608 0 0-6.57-8.52-14.635-14.019.04-.358.078-.721.116-1.11 2.158 1.948 7.992 6.84 16.036 10.683 0 0-3.186-3.32-7.815-6.82a67.146 67.146 0 0 0 8.114 4.61s-2.32-2.419-5.867-5.297c2.027.9 4.263 1.782 6.69 2.55 0 0-7.906-6.45-16.862-9.493.024-.49.048-.974.06-1.478 2.717 1.845 8.93 5.685 17.085 8.383 0 0-2.018-1.645-5.17-3.7a77.786 77.786 0 0 0 4.632 1.968c.266.151.527.307.793.447l-.207-.215c.108.043.216.08.32.124 0 0-.314-.261-.89-.714a100.836 100.836 0 0 0-8.243-7.432 84.334 84.334 0 0 0 9.623 4.338c.003-.003-8.434-6.985-18.038-10.97a93.6 93.6 0 0 0-.191-2.483c.056.024.11.048.167.075 2.422 2.197 7.976 6.832 15.468 10.575 0 0-3.813-4.093-9.16-8.052a83.058 83.058 0 0 0 12.201 3.286s-.355-.208-1.001-.566c.689.205 1.386.399 2.099.574 0 0-3.289-2.071-8.16-4.462a97.913 97.913 0 0 0 8.483 2.639s-9.879-6.234-20.807-9.536c-.076-.46-.154-.92-.243-1.395 3.122 1.5 10.41 4.64 19.71 6.372 0 0-9.597-5.604-19.995-7.804-.065-.326-.137-.652-.207-.973 3.496 1.605 10.307 4.358 18.81 5.944 0 0-1.469-.857-3.867-2.025 1.322.404 2.68.802 4.096 1.163 0 0-9.47-5.98-20.118-9.315a42.195 42.195 0 0 0-.315-1.053c9.55 5.157 19.265 8.348 19.265 8.348-8.66-4.893-16.283-8.003-19.537-9.244-.118-.358-.237-.709-.352-1.061 2.884 1.08 5.756 1.955 8.353 2.655 5.557 2.388 9.722 3.751 9.722 3.751a178.06 178.06 0 0 0-4.604-2.488c2.818.63 4.645.923 4.645.923a123.663 123.663 0 0 0-9.57-3.368 146.733 146.733 0 0 0-9.502-4.112c-.107-.288-.22-.58-.333-.86 6.092 2.217 12.096 3.577 15.255 4.202 1.028.368 1.634.565 1.634.565-.232-.127-.46-.248-.695-.38.85.157 1.357.245 1.357.245a93.451 93.451 0 0 0-2.995-1.152 150.284 150.284 0 0 0-5.63-2.892c4.314 1.764 7.336 2.75 7.336 2.75-8.1-4.573-15.272-7.579-18.838-8.968-.11-.229-.231-.444-.35-.67 9.048 4.717 18.195 7.494 18.195 7.494a139.09 139.09 0 0 0-6.012-3.11c3.218 1.252 5.334 1.949 5.334 1.949-8.257-4.659-15.539-7.688-19.034-9.05-.224-.378-.463-.755-.703-1.143 9.446 5.136 19.489 8.19 19.489 8.19a141.782 141.782 0 0 0-4.76-2.5c2.093.711 4.335 1.4 6.703 2.012 0 0-5.89-3.716-13.6-6.931 8.288 2.534 15.23 3.557 15.23 3.557-13.339-5.739-24.787-7.667-24.787-7.667l.686.921c.267.108.541.221.816.337-.36-.097-.724-.202-1.087-.302l-.119.178a76.421 76.421 0 0 0-1.275-1.807c13.154 4.311 27.817 4.772 27.817 4.772-14.45-4.866-27.212-5.787-28.64-5.879-.267-.344-.534-.692-.803-1.028l-.204-.943s-.049.183-.121.53a70.563 70.563 0 0 0-1.52-1.814V157l.26.377c.25.076.509.156.76.24l.387.547c13.226 4.389 28.057 4.844 28.057 4.844-.907-.302-1.806-.587-2.697-.87.993.062 1.556.081 1.556.081-5.627-1.893-11.001-3.188-15.55-4.069a241.994 241.994 0 0 0-4.289-2.394c.482-.008.964-.021 1.445-.038 1.728.668 3.469 1.306 5.205 1.894 0 0-1.297-.754-3.466-1.96.995-.047 1.956-.109 2.885-.168.37.124.737.272 1.103.39.336.178.667.356 1.004.528l-1.402-.972c.516-.045 1.017-.083 1.51-.124.236.124.473.245.704.37 0 0-.207-.14-.546-.38.2-.02.401-.038.603-.057.048.024.091.051.132.076l-.103-.079c.539-.053 1.058-.102 1.556-.158.188.132.371.269.557.4l-.463-.409c.073-.005.143-.016.21-.024l.581.52s-.175-.186-.479-.525c1.136-.124 2.148-.253 2.99-.358.186.186.366.374.554.563 0 0-.161-.208-.457-.58.31-.043.587-.078.845-.118.985 1.338 2 2.706 3.038 4.096 0 0-.974-1.575-2.63-4.152.617-.09 1.061-.16 1.295-.2 1.031 1.395 2.091 2.812 3.168 4.26 0 0-5.103-8.234-12.253-17.83.323-.131.493-.212.493-.212-.191.038-.38.076-.568.108-.32-.431-.651-.865-.982-1.3.26-.103.4-.173.4-.173-.158.027-.312.056-.465.089a273.974 273.974 0 0 0-3.264-4.215l.067-.04a.426.426 0 0 0-.083.024c-.703-.875-1.41-1.753-2.129-2.63.635.02 1.273.053 1.91.099 2.065 3.213 9.102 14.016 18.472 26.552 0 0-.317-.56-.893-1.543-.224-.469-.651-1.385-1.24-2.62a544.56 544.56 0 0 0 2.736 4.103s-1.865-3.398-4.8-8.377c-1.667-3.417-3.725-7.54-5.663-11.184 1.873 3.135 4.39 7.155 7.086 10.998a343.096 343.096 0 0 0 4.122 7.419s-.793-1.81-2.139-4.694c.476.641.963 1.277 1.453 1.89.84 1.29 1.68 2.527 2.527 3.652 0 0-.242-.52-.662-1.4.092.105.178.202.256.296 0 0-.232-.412-.654-1.142a49.344 49.344 0 0 1-.415-.878c.59 1.048 1.206 2.117 1.828 3.197 0 0-5.471-12.226-12.22-23.862l-.37-.387.273.018c.242-.078.487-.153.737-.231.17.051.347.105.517.153-.595.27-.91.426-.91.426l.902.043c.148-.043.301-.089.454-.14 1.02 2.192 6.462 13.736 14.282 27.516 0 0-6.203-13.799-13.655-26.978l-.508-.573c.075-.019.14-.038.202-.062.441.137.872.275 1.3.42.067.124.169.358.336.7-.035.024-.057.032-.057.032l.068-.005c1.289 2.744 5.729 11.956 12.045 22.903.29.654.59 1.314.888 1.985 0 0-.358-1.131-.996-3.025a64.488 64.488 0 0 0 2.6 3.768s-2.118-4.54-4.79-9.94a225.391 225.391 0 0 0-3.138-8.032 195.7 195.7 0 0 0 2.785 5.418c1.373 3.5 3.079 7.607 5.075 12.007 0 0-.95-3.008-2.532-7.403.425.746.861 1.492 1.303 2.22a247.381 247.381 0 0 0 2.71 6.201s-.477-1.51-1.316-3.956a68.054 68.054 0 0 0 2.852 4.16s-2.408-5.164-5.328-11.024c-1.33-3.506-2.93-7.513-4.718-11.466l-.627-.784s.716 2.203 2.056 5.817c-.479-.905-.952-1.794-1.41-2.634-.438-1.023-.885-2.049-1.345-3.064.328-.103.85-.256 1.539-.485.288.15.568.304.853.46-.016.014-.04.017-.067.03l.043.243-.137-.167.126.38a1.628 1.628 0 0 0-.056-.09l-1.166-.25s1.782 4.015 4.424 9.15c1.491 3.865 3.45 8.671 5.813 13.885 0 0-1.106-3.51-2.933-8.499.966 1.729 1.983 3.48 3.03 5.162a262.358 262.358 0 0 0 2.473 5.526s-.447-1.355-1.235-3.584c.576.87 1.152 1.72 1.733 2.523.245.56.503 1.12.764 1.686 0 0-.134-.423-.39-1.182.054.08.11.164.17.24 0 0-.124-.267-.348-.73-.322-.943-.785-2.252-1.348-3.822a254.067 254.067 0 0 0 2.288 5.208s-3.415-10.83-8.184-21.553c.28-.084.678-.213 1.187-.37.105.076.215.16.323.235-.121.07-.24.137-.353.223l.027.2-.323-.399s3.372 10.33 9.147 23.078c0 0-3.55-11.286-8.487-22.243.129-.035.3-.097.51-.17 1.123 3.162 4.468 12.272 9.422 23.024 0 0-.777-2.364-2.099-5.983.907 2.17 1.919 4.489 3.003 6.894 0 0-3.57-11.327-8.514-22.29l-.627-.78s.552 1.704 1.606 4.583a223.65 223.65 0 0 0-2.403-5.496c.595.43 1.198.88 1.793 1.344.005.005.005.008.005.008l.03.503s.05-.005.134-.021c.872 2.499 4.333 12.096 9.623 23.568 0 0-1.108-3.353-2.93-8.214a320 320 0 0 0 2.69 6.21c.418 1.174.86 2.37 1.309 3.59 0 0-.119-.53-.358-1.47.129.263.247.52.366.788 0 0-.218-.667-.624-1.836-.967-3.85-3.058-11.56-5.854-19.168l-.228-.202a2.67 2.67 0 0 1 .269-.04 71.041 71.041 0 0 1 2.268 2.111c.051.234.272 1.107.644 2.485a70.74 70.74 0 0 0-1.715-3.242l-.659-.821s1.687 5.9 5.689 15.188a258.12 258.12 0 0 0 3.057 8.805s-.396-1.707-1.103-4.424a209.675 209.675 0 0 0 2.196 4.642s-1.755-7.413-5.536-16.025a161.81 161.81 0 0 0-2.029-5.889l-.441-.62c.22.221.438.423.662.644v.027s.008-.003.024-.005c.194.199.393.401.581.598.627 1.793 3.69 10.44 8.512 21.206.498 1.424 1.02 2.892 1.58 4.41 0 0-.17-.732-.485-1.997.033.075.073.161.11.24 0 0-.104-.353-.293-.978-.998-3.921-3.057-11.483-5.81-18.96l-.212-.305c.387.434.772.873 1.157 1.314 2.772 8.566 8.592 20.27 8.592 20.27-1.878-6.698-5.742-14.96-7.728-19.001 4.537 7.548 10.242 15.589 10.242 15.589-3.364-6.506-8.116-13.101-10.178-15.864 1.69 1.766 6.24 6.234 12.71 10.529 0 0-3.907-4.27-9.195-8.431a74.25 74.25 0 0 0 10.33 5.884s-6.635-5.486-14.154-9.027l-.423-.024a4.538 4.538 0 0 0-.115-.23c1.542.464 7.605 2.107 15.15 2.058 0 0-7.624-2.348-15.167-2.359l-.11.06c-.207-.415-.331-.65-.331-.65.067.232.143.47.223.714l-.134.06a35.412 35.412 0 0 0-.681-.881c1.017.178 9.265 1.53 19.378.665 0 0-10.045-2.079-19.332-1.328l-.124.563a57.618 57.618 0 0 0-2.269-2.676c2.5.013 9.643-.135 17.883-2.144 0 0-9.766-.657-18.553 1.395-.22-.242-.454-.485-.68-.738 1.92-.159 9.284-.929 17.685-3.99 0 0-4.063.128-9.211 1.036a70.458 70.458 0 0 0 8.137-2.424s-2.962.103-7.034.687a69.243 69.243 0 0 0 6.001-2.677s-9.464 1.344-17.408 5.316l.021.202a65.403 65.403 0 0 0-1.144-1.107c2.385-.484 9.416-2.149 17.22-5.986 0 0-2.303.331-5.605 1.123a85.094 85.094 0 0 0 4.295-1.75c.25-.073.495-.151.748-.224 0 0-.094 0-.26.005.088-.043.185-.08.279-.129 0 0-.36.054-1.007.162-1.7.078-5.462.301-9.903.958a87.524 87.524 0 0 0 9.045-3.487s-10.347 1.411-19.368 5.33a69.922 69.922 0 0 0-1.609-1.258c.293-.11.616-.232.977-.366 2.925-.275 9.368-1.137 16.615-3.644 0 0-4.96.086-10.88 1.182a90.134 90.134 0 0 0 10.177-5.62s-.352.105-.99.3c.579-.316 1.165-.63 1.752-.96 0 0-3.418.865-8.081 2.516a103.264 103.264 0 0 0 7.236-3.708s-10.816 2.736-20.304 7.806a39.18 39.18 0 0 0-1.047-.692c2.46-.859 9.803-3.624 17.801-8.779 0 0-10.193 2.909-18.633 8.251-.274-.167-.543-.334-.823-.5 3.081-1.126 9.71-3.832 16.876-8.443 0 0-1.48.418-3.77 1.231a86.676 86.676 0 0 0 3.428-1.837s-10.21 2.583-19.486 7.376c-.28-.15-.576-.296-.867-.444 9.659-3.005 18.386-7.322 18.386-7.322-9.118 2.722-16.322 5.808-18.989 7.01-.26-.124-.527-.25-.793-.38 2.704-1.21 5.29-2.54 7.548-3.784 5.145-2.076 8.751-3.859 8.751-3.859-1.582.474-3.1.956-4.56 1.441 2.273-1.373 3.68-2.316 3.68-2.316a127.203 127.203 0 0 0-8.425 3.975 151.432 151.432 0 0 0-9.023 3.616c-.227-.094-.45-.19-.679-.28 5.466-2.51 10.374-5.447 12.907-7.036.925-.43 1.442-.695 1.442-.695-.231.073-.452.146-.68.216.677-.437 1.054-.687 1.054-.687-.939.398-1.851.8-2.726 1.201a157.87 157.87 0 0 0-5.436 1.823c3.937-1.656 6.54-2.946 6.54-2.946a161.011 161.011 0 0 0-17.689 6.441 9.89 9.89 0 0 0-.5-.164c8.708-2.914 16.272-6.837 16.272-6.837-2.074.64-4.042 1.303-5.866 1.955 2.904-1.268 4.734-2.176 4.734-2.176a162.01 162.01 0 0 0-17.56 6.388c-.28-.076-.568-.151-.847-.216 9.025-2.938 17.07-7.114 17.07-7.114-1.61.503-3.158 1.015-4.627 1.521a106.65 106.65 0 0 0 5.67-2.957s-6.146 1.554-13.232 4.495c7.078-3.665 12.39-7.32 12.39-7.32-10.92 4.4-19.126 9.512-20.902 10.648-.118-.013-.242-.035-.374-.051 10.999-5.647 20.6-13.785 20.6-13.785-10.982 5.34-19.37 11.518-22.04 13.572a65.418 65.418 0 0 0-2.166-.22c11.2-5.65 21.077-14.017 21.077-14.017-.794.382-1.572.77-2.333 1.166a50.43 50.43 0 0 0 1.098-.902c-11.066 5.37-19.481 11.606-22.094 13.615a45.619 45.619 0 0 0-1.039-.024l.024-.008c8.945-6.977 16.475-16.098 16.475-16.098a132.468 132.468 0 0 0-8.751 7.443c4.058-4.099 6.735-7.346 6.735-7.346-9.413 7.292-16.033 14.665-17.225 16.028-.13.005-.258.008-.39.01a1.88 1.88 0 0 0-.119-.137l-1.065-.215c8.872-6.956 16.31-15.969 16.31-15.969-.85.662-1.671 1.317-2.476 1.966-.29.142-.67.334-1.146.563a82.941 82.941 0 0 0 2.166-2.483 125.474 125.474 0 0 0-4.47 3.627c-.732.377-1.55.786-2.43 1.25 1.822-1.549 3.62-3.17 5.345-4.85 0 0-1.709.91-4.381 2.477 1.13-1.538 1.932-2.68 2.295-3.223.447-.415.896-.838 1.332-1.271 0 0-1.184.635-3.132 1.745.183-.262.28-.407.28-.407-.213.202-.42.404-.635.617a194.297 194.297 0 0 0-4.758 2.84c.204-.376.404-.726.595-1.06 2.139-1.775 4.26-3.654 6.267-5.62.296-.178.584-.356.877-.53 0 0-2.793 1.074-6.964 2.875.091-.188.164-.318.202-.406a168.403 168.403 0 0 0 6.42-3.824s-2.115.808-5.406 2.216c1.712-.862 3.44-1.753 5.154-2.68 0 0-5.046 1.654-11.806 4.28 3.552-1.627 7.285-3.437 10.963-5.419.587-.218 1.176-.43 1.771-.654 0 0-6.967 1.503-15.823 4.007a309.328 309.328 0 0 0 8.646-2.84c2.384-.424 4.855-.887 7.384-1.415 0 0-1.582.095-4.24.305 1.033-.372 2.077-.757 3.118-1.15 0 0-2.295.495-5.92 1.392-5.506.493-13.56 1.384-21.776 2.852.088-.434.183-.873.28-1.312a326.126 326.126 0 0 0 27.432-3.66s-11.636.655-24.268 2.537c3.488-.67 8.267-1.65 13.765-2.96 3.832-.285 8.062-.672 12.508-1.179 0 0-2.78-.123-7.088-.161.702-.178 1.402-.372 2.12-.555 1.416-.062 2.87-.134 4.341-.218 1.647.124 3.326.248 5.04.364 0 0-15.481-2.728-30.772-3.81.075-.168.143-.337.218-.507 3.91.369 16.378 1.508 31.182 2.494 0 0-15.58-2.755-31.02-2.844.255-.587.543-1.163.831-1.742 3.708.581 16.235 2.431 31.235 3.43 0 0-.624-.142-1.738-.363-.514-.165-1.51-.48-2.855-.894 1.555.22 3.154.433 4.776.638 0 0-3.797-.913-9.445-2.057-3.757-1.126-8.297-2.432-12.363-3.469 3.566.69 8.2 1.487 12.731 1.955a285.35 285.35 0 0 0 8.324 1.952s-1.946-.68-5.076-1.674c.77.05 1.537.088 2.277.11 1.496.232 2.941.39 4.284.482 0 0-.557-.18-1.52-.482.124.003.25.003.371-.008l-1.275-.275c-.304-.091-.64-.196-.985-.307 1.184.267 2.39.533 3.617.792 0 0-13.203-4.47-26.378-7.265l-.482.043.116-.243c.03-.293.05-.581.075-.883.116-.124.237-.245.347-.372.014.779.027 1.204.027 1.204l.393-.824c.019-.178.03-.363.051-.541 2.376.765 14.952 4.726 30.474 8.194 0 0-14.898-5.03-29.747-8.375l-.713.027c.01-.078.016-.161.024-.231.288-.315.581-.62.885-.916.132.043.385.127.764.243a.7.7 0 0 0 .008.078l.027-.062c2.98.94 13.057 4.012 25.434 6.665.7.24 1.41.487 2.134.724 0 0-1.168-.56-3.13-1.443 1.55.237 3.036.412 4.421.498 0 0-4.927-1.57-10.863-3.304a236.594 236.594 0 0 0-8.49-3.377c1.797.528 3.84 1.096 5.992 1.645a256.722 256.722 0 0 0 12.845 4.675s-3.09-1.479-7.691-3.45c.847.183 1.69.35 2.53.515 2.112.77 4.337 1.55 6.657 2.329 0 0-1.553-.749-4.101-1.88 1.706.267 3.353.469 4.881.571 0 0-5.613-1.793-12.058-3.649-3.69-1.521-7.942-3.164-12.223-4.604l-.947-.02s2.282 1.067 6.076 2.659c-1.012-.27-2-.517-2.947-.74a164.44 164.44 0 0 0-3.299-1.159c.038-.39.1-1.012.164-1.844.242-.151.493-.305.74-.456a1 1 0 0 1 .011.09l.24.156-.216-.011s.15.072.396.183c-.03.003-.067-.01-.1-.014l-.68.919s4.332 1.48 10.024 3.032a259.313 259.313 0 0 0 14.82 5.458s-3.607-1.723-8.84-3.942c1.945.458 3.93.87 5.858 1.209 1.91.676 3.902 1.355 5.971 2.022 0 0-1.405-.646-3.735-1.661 1.02.143 2.01.264 2.957.347.609.2 1.209.404 1.825.603 0 0-.433-.202-1.222-.557l.286.022s-.291-.09-.802-.256c-.988-.437-2.355-1.04-4.018-1.748a232.68 232.68 0 0 0 5.643 1.96s-11.133-5.329-22.707-9.285c.035-.339.078-.81.129-1.416.108-.048.229-.083.334-.137.024.177.043.344.07.522l.199.13-.493-.014s10.668 4.987 24.457 9.576c0 0-11.604-5.556-23.437-9.533.003-.156.022-.358.035-.625 3.3 1.433 12.855 5.467 24.518 9.27 0 0-2.448-1.135-6.259-2.756a256.34 256.34 0 0 0 7.44 2.615s-11.646-5.582-23.503-9.557l-.955-.019s1.79.827 4.803 2.111a184.803 184.803 0 0 0-5.934-2.068 53.093 53.093 0 0 1 1.914-.651c.005.008.002.005.008.005l.468.374.035-.153c2.608 1.15 12.65 5.472 25.089 9.524 0 0-3.474-1.615-8.609-3.743 2.107.776 4.349 1.573 6.72 2.378 1.219.525 2.462 1.053 3.746 1.589 0 0-.533-.31-1.475-.827.288.095.568.189.853.28 0 0-.689-.32-1.908-.864-3.87-2.127-11.66-6.25-19.642-9.614l-.264.06c.003-.02.03-.116.057-.286a55.615 55.615 0 0 1 2.804-.487c.21.116 1.071.595 2.497 1.352a66.676 66.676 0 0 0-3.6-.937l-.999-.027s5.999 3.059 15.948 6.613c2.79 1.3 5.89 2.69 9.19 4.072 0 0-1.704-.98-4.449-2.453 1.615.53 3.302 1.06 5.067 1.586 0 0-7.408-4.206-16.676-7.427-1.98-.932-4.04-1.856-6.114-2.73l-.727-.07c.283-.036.55-.087.834-.12l.017.014s.008-.019.013-.019c.25-.032.514-.059.77-.086 1.886.832 10.912 4.772 22.537 8.706 1.478.655 3.006 1.314 4.589 1.98.002-.003-.724-.42-1.98-1.113.08.022.155.052.244.078l-.977-.479c-3.926-2.151-11.598-6.202-19.451-9.508l-.36-.035c.54-.03 1.081-.052 1.636-.065 8.832 4.142 21.7 7.874 21.7 7.874-6.797-3.517-15.777-6.382-20.223-7.69 8.609 1.653 18.114 2.59 18.114 2.59-7.207-1.955-15.038-2.653-18.343-2.874 2.242-.21 8.068-.993 14.492-3.764 0 0-5.399.334-11.236 2.076a45.235 45.235 0 0 0 9.368-5.187s-7.551 1.977-13.679 6.345l-.19.38c-.087-.02-.168-.044-.246-.065 1.001-1.093 4.844-5.577 7.75-12.826 0 0-5.09 5.412-8.021 12.602l.008.146c-.466-.13-.727-.191-.727-.191.24.113.484.229.73.35l.007.175c-.28-.02-.632-.04-1.057-.051.538-.822 4.984-7.619 8.132-17.956 0 0-5.794 7.93-8.721 17.387l.46.566a45.859 45.859 0 0 0-3.305.035c.988-2.356 3.625-9.285 5.01-18.759 0 0-4.388 8.803-5.95 18.81-.3.019-.62.04-.938.067.602-1.944 2.769-9.57 3.267-20.045 0 0-1.472 4.02-2.662 9.686.441-2.833.818-6.121.99-9.754 0 0-1.065 2.914-2.117 7.274.067-2.394.05-5.025-.09-7.866 0 0-2.464 10.093-1.953 20.813l.188.148c-.468.06-.95.132-1.447.213.484-2.663 1.717-10.683 1.27-21.177 0 0-.6 2.48-1.163 6.29.062-1.758.1-3.605.084-5.538.032-.297.064-.587.091-.886l-.097.255c0-.126 0-.247-.002-.369 0 0-.097.38-.248 1.078-.595 1.677-1.843 5.463-2.979 10.246.256-3.331.42-7.193.35-11.426 0 0-2.745 10.99-2.694 22.706-.59.162-1.168.342-1.773.53.021-.36.037-.772.054-1.216.885-3.014 2.613-9.84 3.153-18.745 0 0-1.843 4.817-3.153 11.34-.11-3.965-.426-8.812-1.139-14.19 0 0-.046.423-.113 1.188-.054-.8-.12-1.616-.188-2.434 0 0-.546 3.937-.864 9.705a160.424 160.424 0 0 0-.54-9.842s-1.729 12.48-.824 25.55a37.82 37.82 0 0 0-1.034.454c.178-3.018.522-12.228-1.03-23.94 0 0-1.335 12.025.22 24.315-.253.126-.506.256-.764.396.172-3.835.304-12.31-1.09-22.795 0 0-.191 1.736-.344 4.559-.087-1.525-.194-3.1-.331-4.716 0 0-1.64 11.782-.9 24.435-.247.154-.492.315-.734.469 1.03-11.585.506-23.344.506-23.344-1.074 10.863-1.076 20.183-1.025 23.678-.218.15-.439.304-.654.46-.046-3.543-.248-7.068-.498-10.211.121-6.546-.092-11.399-.092-11.399-.185 1.88-.339 3.714-.468 5.475a141.23 141.23 0 0 0-.67-5.34c-.005 4.053.135 7.863.328 11.191-.231 5.025-.253 9.089-.231 11.48-.172.135-.342.283-.52.423-.142-7.198-.9-14.205-1.348-17.884-.035-1.225-.07-1.93-.07-1.93-.018.277-.05.549-.078.824a60.04 60.04 0 0 0-.215-1.56c.003 1.212.014 2.403.038 3.571-.2 2.316-.347 4.543-.46 6.633.03-5.079-.127-8.593-.127-8.593-.936 9.414-1.057 17.67-1.047 21.979-.11.121-.228.234-.336.35.732-10.61.132-20.942.132-20.942a182.564 182.564 0 0 0-.514 7.136c-.019-3.77-.127-6.226-.127-6.226-.923 9.293-1.057 17.458-1.052 21.807-.17.22-.35.422-.525.643.853-10.944.202-21.928.202-21.928a195.31 195.31 0 0 0-.42 5.631 171.987 171.987 0 0 0-.473-7.766s-.988 7.093-1.08 16.184c-.56-9.654-1.813-17.625-1.813-17.625-.259 13.922 1.184 25.79 1.526 28.386-.073.102-.132.21-.194.315-.84-14.97-4.475-30.578-4.475-30.578.554 14.714 2.9 27.613 3.724 31.787a41.894 41.894 0 0 0-1.039 1.89c-.767-15.155-4.513-31.218-4.513-31.218.043 1.06.092 2.108.154 3.142-.242-1.12-.388-1.75-.388-1.75.563 14.808 2.93 27.785 3.74 31.873-.144.312-.29.64-.432.967l.01-.03c-2.841-14.062-8.175-28.485-8.175-28.485a225.307 225.307 0 0 0 3.329 14.232c-2.132-7.112-4.031-12.229-4.031-12.229 2.949 14.757 7.058 26.91 7.83 29.142-.045.132-.102.246-.142.38-.057 0-.116.006-.172.008l-.94 1.293s.235.013.668.021c-.143.453-.288.921-.425 1.393-.151.008-.294.03-.447.045l.057-.22c-2.85-14.073-8.181-28.491-8.181-28.491 2.871 14.383 6.843 26.296 7.758 28.954l-.094.26c-3.98-13.638-9.952-26.815-9.952-26.815.953 3.42 1.951 6.681 2.942 9.708-1.873-4.67-3.249-7.696-3.249-7.696.45 1.602.907 3.172 1.37 4.696l-.07-.105c-.072-.027-.148-.064-.226-.091-11.8-38.115-52.788-50.75-57.164-51.997.563-.013 1.115-.04 1.653-.062 0 0-.813-.116-2.19-.272-.02-.002-.041-.013-.063-.019l-.21-.323c-9.513-6.853-20.664-11.385-20.664-11.385 8.63 6.277 16.593 10.01 19.658 11.34-4.57-1.363-15.415-4.387-25.509-5.69 0 0 13.165 3.576 25.156 5.891-6.224-.675-18.826-1.806-28.474-1.133 0 0 18.025 2.049 30.541 1.656.756.283 1.496.573 2.234.862l-.477-.13c-11.092-.08-21.994.773-27.588 1.298-.886.035-1.389.068-1.389.068.121.005.234.018.35.021-1.792.18-2.826.3-2.826.3 2.228.015 4.4.015 6.496-.004 16.346 1.204 29.115 1.148 31.763 1.126.754.337 1.5.681 2.228 1.029l-1.011-.283c-2.926-.008-5.845.032-8.66.116-13.036-.865-23.574.299-23.574.299 2.47.26 4.833.479 7.102.67-3.897.337-6.311.609-6.311.609 4.634.046 8.999-.022 12.944-.138 14.037.835 22.565.286 22.565.286l-1.375-.455a105.796 105.796 0 0 0-5.043-.698c1.972-.164 3.213-.28 3.549-.32a110.71 110.71 0 0 1 8.937 4.774l-1.05-.352c-4.884-.402-9.755-.652-14.246-.811 7.32-.17 11.986-.388 11.986-.388l-2.107-1.142c-11.278-.088-22.352.798-27.855 1.32-1.717.019-2.702.051-2.702.051.406.03.804.067 1.205.094-1.34.138-2.096.224-2.096.224 1.808.013 3.58.019 5.307.027 3.288.234 6.429.428 9.37.573-7.21-.086-12.099.04-12.099.04 18.97 1.603 34.08 1.46 36.074 1.439.877.55 1.744 1.104 2.586 1.667-2.807-.221-5.613-.402-8.345-.539 4.287.01 6.784-.062 6.784-.062l-1.318-.444c-16.658-1.269-33.173-.625-33.173-.625 3.66.288 7.169.5 10.452.668-5.377-.019-8.832.067-8.832.067 17.19 1.446 31.216 1.47 35.175 1.446 7.42 5.047 13.243 10.53 17.81 16.19L740 60.72c-.404-.068-.821-.14-1.235-.213l-.767-1.23c-3.308-.712-7.87-1.417-12.7-2.05 6.631.094 10.714-.024 10.714-.024l-.13-.049c.474.043.743.062.743.062l-.87-1.381c-.712-.151-1.493-.305-2.319-.46 1.05-.017 1.618-.03 1.618-.03l-1.316-.445a251.273 251.273 0 0 0-5.189-.339c-1.326-.202-2.702-.393-4.114-.59 5.376.049 8.598-.046 8.598-.046l-1.314-.444c-6.028-.458-12.023-.668-17.236-.751a804.544 804.544 0 0 0-16.903-1.737c2.107.63 4.398 1.21 6.768 1.731-3.608.04-5.812.13-5.812.13 3.275.256 6.415.452 9.392.611 1.165.229 2.34.442 3.514.646-6.512-.01-10.877.162-10.877.162 6.692.53 12.868.813 18.097.97 3.009.422 5.87.775 8.38 1.055a332.508 332.508 0 0 0-11.98-.318c-8.313-.926-15.248-1.546-15.248-1.546a93.468 93.468 0 0 0 6.136 1.587c-2.775.048-4.427.113-4.427.113 1.028.078 2.037.156 3.038.22 19.524 3.423 35.038 4.802 36.674 4.945.492.616.974 1.23 1.44 1.85l-1.262-.49c-20.724-3.447-41.666-5.007-41.666-5.007 22.564 3.781 40.791 5.405 43.006 5.599a68.985 68.985 0 0 1 6.108 9.737l-.417-.204a433.65 433.65 0 0 0-5.678-1.355c3.359.334 5.471.488 5.471.488l-.861-1.377c-.32-.07-.646-.14-.977-.204l-.638-1.314c-1.857-.555-4.141-1.145-6.644-1.737 4.268.433 6.755.62 6.755.62l-1.362-.574c-.293-.052-.592-.103-.888-.157 1.106.103 1.73.143 1.73.143l-.866-1.37a3.83 3.83 0 0 0-.304-.07c.123.013.185.018.185.018l-1.38-.587c-18.37-3.255-36.938-4.626-36.938-4.626 1.712.307 3.394.595 5.043.872-.473-.045-.934-.088-1.348-.132-1.144-.202-1.803-.315-1.803-.315.167.065.34.124.506.192l-2.142-.197a95.224 95.224 0 0 0 5.947 1.54c1.033.34 2.088.668 3.16.991-4.398-.398-7.143-.579-7.143-.579 3.612.625 7.094 1.174 10.382 1.654-.013.328-.04.929-.053 1.774-6.938-1.265-11.497-1.965-11.497-1.965 2.269.565 4.486 1.104 6.645 1.61a347.867 347.867 0 0 0-3.989-.38c-1.568-.285-2.456-.436-2.456-.436a658.18 658.18 0 0 0 8.003 2.327c.024.293.054.632.083 1.007-1.246-.291-2.341-.547-3.275-.754-.102-.232-.167-.364-.167-.364.011.113.04.221.057.329-2.132-.466-3.359-.73-3.359-.73l3.407 1.018c.113.681.232 1.344.355 2.009a36.986 36.986 0 0 1-.845-.189c-.072-.18-.134-.358-.215-.55 0 0 .032.192.105.531-.788-.17-1.362-.288-1.709-.366-.078-.191-.15-.385-.24-.584 0 0 .041.21.133.565a9.816 9.816 0 0 1-.264-.056c.089.03.172.048.269.078.188.84.6 2.555 1.227 4.839a144.146 144.146 0 0 0-2.379-6.191s1.758 8.989 5.267 18.169c-.173-.097-.342-.191-.509-.291-1.03-3.74-3.205-10.898-6.663-19.036 0 0 .665 3.043 1.932 7.443a159.118 159.118 0 0 0-2.188-5.736c-.25-1.007-.532-2.044-.826-3.086 0 0 .032.485.113 1.35-.102-.235-.194-.47-.299-.709 0 0 .135.611.385 1.667.337 3.213 1.101 9.317 2.678 15.57-.248-.11-.503-.229-.754-.344a149.764 149.764 0 0 0-3.08-9.948c-.577-2.9-1.333-6.212-2.323-9.721 0 0 .124 1.82.47 4.656a163.59 163.59 0 0 0-1.92-4.748s.914 4.223 2.66 9.905c.458 2.738 1.064 5.795 1.868 8.862a65.862 65.862 0 0 1-.923-.369c-.794-3.038-3.065-11.124-7.058-20.512 0 0 2.217 10.214 6.329 20.237-.342-.129-.686-.256-1.036-.385-2.164-11.006-7.067-21.174-7.067-21.174.218 1.411.468 2.782.727 4.112-.877-2.45-1.54-3.953-1.54-3.953.821 9.145 3.047 16.489 4.193 19.809-.35-.105-.702-.213-1.052-.31-1.055-10.717-5.646-21.11-5.646-21.11.915 10.217 3.59 18.194 4.553 20.811-.476-.126-.936-.245-1.402-.363-2.061-11.372-7.257-22.146-7.257-22.146.479 3.059 1.076 5.94 1.722 8.555-1.8-4.99-3.437-8.386-3.437-8.386.11.714.226 1.417.353 2.109a50.416 50.416 0 0 0-.428-1.015 86.75 86.75 0 0 0 2.029 12.327c-3.216-5.614-6.693-9.72-6.693-9.72 2.842 7.706 6.666 13.58 8.51 16.162.123.385.244.738.355 1.053a106.46 106.46 0 0 0-2.333-.404c-2.791-10.16-8.902-19.607-8.902-19.607a84.8 84.8 0 0 0 3.213 9.867 100.047 100.047 0 0 0-6.2-8.766c-.361-.6-.576-.923-.576-.923.026.097.059.21.08.312-.11-.137-.177-.215-.177-.215l.328.77c.444 1.659.928 3.25 1.442 4.758-1.63-3.26-2.968-5.372-2.968-5.372 2 9.11 5.49 16.033 6.747 18.325-.644-.051-1.257-.094-1.863-.132l.208-.127c-1.981-9.325-7.514-18.004-7.514-18.004a65.562 65.562 0 0 0 1.798 6.813c-2.366-3.743-4.408-6.226-4.408-6.226 1.09 3.118 2.354 5.932 3.576 8.364-2.847-4.842-5.64-8.246-5.64-8.246 3.164 9.043 7.718 15.603 8.95 17.275-.411-.008-.794-.013-1.178-.024-4.381-8.633-12.01-16.125-12.01-16.125 4.033 8.165 9.017 14.089 10.817 16.109a86.83 86.83 0 0 0-4.125.075l.441-.5c-5.966-8.109-15.126-14.8-15.126-14.8 6.448 8.859 13.633 14.616 14.532 15.31-.539.028-.966.055-1.31.079l-.033-.154c.272-.11.554-.218.818-.328 0 0-.302.073-.85.191l-.027-.124c-5.404-6.145-13.084-10.68-13.084-10.68 5.374 6.189 11.262 9.956 12.796 10.88-.092.024-.189.043-.294.064l-.325-.323c-8.714-3.59-18.62-5.057-18.62-5.057a87.213 87.213 0 0 0 12.93 4.195c-7.693-1.325-14.501-1.44-14.501-1.44 8.665 2.189 16.124 2.692 18.988 2.806-4.07.293-13.663 1.15-22.177 3.072 0 0 11.636-1.117 21.97-2.827-5.213 1.287-15.724 4.058-23.348 7.332 0 0 15.14-3.657 25.153-7.532.695-.008 1.375-.013 2.059-.008l-.444.046c-8.975 3.116-17.54 6.872-21.924 8.87-.727.294-1.128.46-1.128.46.102-.029.197-.056.294-.08-1.41.646-2.213 1.037-2.213 1.037a298.454 298.454 0 0 0 5.264-1.877c13.547-3.794 23.848-7.502 25.982-8.278.318.013.654.027.977.046l.014.016.024-.014c.358.022.716.054 1.08.081l-.905.086c-2.376.824-4.72 1.697-6.97 2.57-10.778 3.096-18.985 6.987-18.985 6.987a322.568 322.568 0 0 0 5.93-1.537c-3.064 1.362-4.94 2.267-4.94 2.267a315.318 315.318 0 0 0 10.441-3.824c11.575-3.409 18.31-6.266 18.31-6.266l-1.235.057c-1.442.28-2.866.592-4.268.934 1.558-.69 2.522-1.144 2.788-1.258a113.5 113.5 0 0 1 3.617.326c.072.143.116.224.134.25l-.341-.037c-9.142 3.175-17.856 7.01-22.159 8.98-1.386.507-2.171.806-2.171.806.336-.092.659-.178.993-.278-1.045.493-1.634.779-1.634.779 1.47-.51 2.906-1.007 4.303-1.511 2.732-.77 5.334-1.527 7.759-2.265-5.87 1.998-9.799 3.512-9.799 3.512 14.53-3.924 26.007-7.998 28.983-9.078l.073.135.5-.342c.87.156 1.72.326 2.56.498a274.53 274.53 0 0 0-6.884 1.985c3.455-1.218 5.455-1.982 5.455-1.982l-1.187.045c-13.824 3.835-26.994 9.057-26.994 9.057 3.03-.835 5.917-1.683 8.625-2.502-4.352 1.527-7.118 2.58-7.118 2.58 13.622-3.668 24.558-7.478 28.329-8.833.086.226.15.407.207.541-13.797 3.835-26.93 9.032-26.93 9.032 16.088-4.435 28.187-9.099 28.187-9.099l-.609.024.218-.12c-.013-.152-.035-.3-.048-.445.15.027.296.056.45.097.212.525.379.937.505 1.222-13.48 3.816-26.06 8.8-26.06 8.8a311.52 311.52 0 0 0 6.51-1.871c-1.881.662-3.432 1.23-4.546 1.637-.6.162-.936.245-.936.245.118-.008.234-.021.347-.024-.893.331-1.38.514-1.38.514.713-.19 1.423-.385 2.12-.579 1.17-.105 2.376-.242 3.612-.395-2.66.953-4.252 1.556-4.252 1.556a341.549 341.549 0 0 0 6.961-1.944c2.317-.356 4.688-.776 7.005-1.234-5.99 2.093-10.064 3.706-10.064 3.706a339.647 339.647 0 0 0 17.169-5.23c6.72-1.527 11.76-2.946 11.76-2.946l-1.08-.775c-.037.002-.08.01-.115.013l.447-.167-.264.006.258-.138-.008-.075c.345.118.697.245 1.034.366.285.72.51 1.266.653 1.6-1.28.355-2.564.732-3.826 1.104-1.128.229-2.293.485-3.493.746 4.348-1.506 6.932-2.502 6.932-2.502l-1.184.054c-4.997 1.379-9.893 2.946-14.12 4.381-7.594 1.815-14.163 3.563-14.163 3.563a95.865 95.865 0 0 0 5.947-.657c-2.898 1.063-4.661 1.764-4.661 1.764a351.96 351.96 0 0 0 7.758-2.24c1.01-.168 2.01-.346 3.022-.529-2.44.865-4.499 1.624-6.006 2.192-14.255 2.044-25.097 7.341-30.334 10.346 5.124-2.122 19.554-7.882 27.495-9a87.26 87.26 0 0 0 4.45-.479c.13-.01.262-.024.391-.032-2.18.819-3.466 1.333-3.466 1.333.842-.242 1.671-.474 2.492-.708 1.432-.264 2.834-.523 4.206-.79a71.254 71.254 0 0 1 4.357-.007c-1.424.342-2.745.676-3.964.996l-.118-.024a.7.7 0 0 0-.122.075l.426-.393-1.287.622c-1.036.264-1.97.506-2.801.727.7-.635 1.076-.98 1.076-.98l-1.364.668c-.253.197-.503.401-.759.587-.584.153-1.09.296-1.526.412a1558.9 1558.9 0 0 0 1.69-1.519l-1.37.663c-.505.393-1.02.789-1.525 1.18-.286.085-.442.123-.442.123.127-.019.25-.046.374-.073-1.23.964-2.454 1.936-3.651 2.9a285.662 285.662 0 0 0 4.733-4.287l-1.318.633c-13.827 10.764-26.268 22.61-26.268 22.61a460.76 460.76 0 0 0 6.496-5.138c-1.816 1.607-3.31 2.962-4.383 3.926-.595.46-.934.71-.934.71.12-.061.25-.129.374-.196-.85.778-1.324 1.217-1.324 1.217.732-.554 1.44-1.101 2.145-1.648a133.13 133.13 0 0 0 3.888-2.194c-2.554 2.297-4.071 3.702-4.071 3.702a484.55 484.55 0 0 0 6.956-5.437 232.93 232.93 0 0 0 7.344-4.728c-5.791 5.103-9.64 8.773-9.64 8.773a467.786 467.786 0 0 0 16.965-13.841c3.716-2.645 6.89-5 9.018-6.625.07-.008.129-.021.202-.032-.162.121-.315.245-.474.366-.11.033-.178.043-.178.043.043 0 .097 0 .135-.008-4.066 3.237-7.939 6.512-11.343 9.458a890.428 890.428 0 0 0-14.325 10.64c2.062-1.075 4.217-2.306 6.419-3.62-2.777 2.534-4.446 4.11-4.446 4.11a402.836 402.836 0 0 0 7.729-6.13c1.06-.67 2.115-1.352 3.17-2.03-5.08 4.508-8.38 7.65-8.38 7.65a466.933 466.933 0 0 0 14.744-11.956 343.521 343.521 0 0 0 7.234-5.152 405.652 405.652 0 0 0-9.548 8.117c-7.094 5.183-12.912 9.602-12.912 9.602a109.99 109.99 0 0 0 5.837-3.263c-2.134 1.96-3.374 3.15-3.374 3.15.85-.67 1.681-1.322 2.51-1.97a602.389 602.389 0 0 0 21.744-14.895c.476-.03.95-.065 1.424-.108-14.381 10.023-26.069 19.15-26.069 19.15a761.6 761.6 0 0 0 25.197-17.429c.775-.06 1.553-.116 2.314-.178-11.59 8.098-20.592 15.129-20.592 15.129a441.777 441.777 0 0 0 4.494-2.952c-.39.3-.772.585-1.12.849-1.022.67-1.617 1.053-1.617 1.053.175-.076.35-.154.525-.232-1.14.854-1.803 1.365-1.803 1.365 1.83-.95 3.733-2.025 5.667-3.175a129.678 129.678 0 0 0 3.117-1.564c-3.7 2.806-5.964 4.602-5.964 4.602a496.39 496.39 0 0 0 10.302-6.934c4.43-2.432 8.802-5.039 12.602-7.384.127.01.256.013.38.019a689.986 689.986 0 0 0-11.432 8.288c-7.107 4.551-11.792 7.72-11.792 7.72a439.282 439.282 0 0 0 6.246-3.594 793.932 793.932 0 0 0-3.375 2.545c-1.413.9-2.188 1.416-2.188 1.416a837.815 837.815 0 0 0 23.964-12.958c.301.094.595.18.896.275-.465.24-.92.493-1.375.738-.487-.095-.759-.146-.759-.146.218.07.433.132.657.2-.175.1-.353.193-.53.29-.216-.05-.34-.075-.34-.075.097.032.197.07.289.102-11.976 6.498-20.552 11.776-20.552 11.776a2759.167 2759.167 0 0 0 20.288-10.653c.325.121.643.232.969.353-1.47.837-2.877 1.65-4.233 2.432a30.904 30.904 0 0 1-.493-.377s.121.17.345.463c-8.787 5.092-14.745 8.77-14.745 8.77 2.304-1.2 4.567-2.386 6.774-3.554.336-.138.662-.286 1.003-.418 1.914-.535 3.795-1.066 5.644-1.594a689.378 689.378 0 0 0-6.997 3.482c-1.669.512-2.594.81-2.594.81.602-.137 1.202-.271 1.8-.406-.557.296-.87.452-.87.452.49-.19.97-.385 1.446-.576 1.359-.307 2.699-.611 4.034-.918-1.114.463-1.733.727-1.733.727.987-.337 1.964-.665 2.928-1.007.694-.154 1.383-.31 2.064-.48.269.27.562.566.904.903-.708.28-1.37.54-2 .805-2.952.686-4.685 1.12-4.685 1.12.727-.094 1.453-.194 2.175-.296.053.048.115.097.17.143-.908.377-1.702.705-2.353.985-.234.067-.371.113-.371.113.067-.021.132-.035.204-.043-1.37.566-2.131.897-2.131.897 1.348-.434 2.675-.875 3.983-1.309.376-.086.75-.175 1.133-.258.161.142.328.282.495.422-1.548.372-2.43.582-2.43.582.896-.118 1.795-.237 2.685-.366.31.258.614.503.92.756-.28.06-.438.09-.438.09.167-.011.331-.03.495-.044.428.342.853.684 1.279 1.02l-.92.195c-.63-.323-1.255-.644-1.893-.956 0 0 1.45 1.139 3.88 2.876-.169.021-.274.04-.274.04.113.003.23 0 .348.014.729.517 1.552 1.088 2.443 1.699-.535.064-.982.13-1.348.167a185.34 185.34 0 0 0-7.253-3.698s2.118 1.6 5.555 3.905a159.116 159.116 0 0 0-7.177-3.783s3.097 2.45 7.85 5.609c-.342.062-.558.094-.617.105a178.414 178.414 0 0 0-10.067-5.243s3.014 2.273 7.688 5.302a184.073 184.073 0 0 0-6.644-3.525 127.509 127.509 0 0 0-3.21-2.173s.406.417 1.151 1.153c-.282-.135-.56-.272-.845-.407 0 0 .603.452 1.677 1.22 2.793 2.693 8.27 7.71 14.685 12.204-.355.094-.697.183-1.039.283a176.873 176.873 0 0 0-10.79-6.679 146.344 146.344 0 0 0-9.834-7.093s1.52 1.59 4.047 3.916a192.636 192.636 0 0 0-5.597-2.825s4.174 3.159 10.32 6.99c2.568 2.155 5.538 4.482 8.717 6.665-.412.132-.83.264-1.236.407-3.14-2.162-11.665-7.782-22.96-13.214 0 0 10.113 7.626 22.01 13.548-.449.156-.91.315-1.353.474-10.657-8.388-23.482-13.801-23.482-13.801 1.31 1.12 2.615 2.184 3.912 3.196-2.79-1.55-4.623-2.396-4.623-2.396 7.863 7.771 15.775 12.748 19.494 14.88a53.27 53.27 0 0 0-1.31.566c-9.306-9.034-21.973-14.902-21.973-14.902 8.773 8.682 17.621 13.87 20.627 15.516-.578.264-1.152.528-1.711.792-10.835-8.822-24.425-14.555-24.425-14.555 2.84 2.429 5.66 4.602 8.332 6.503-5.673-3.142-9.96-4.957-9.96-4.957.665.57 1.33 1.122 1.992 1.664-.775-.385-1.227-.595-1.227-.595a97.81 97.81 0 0 0 11.542 9.726c-7.605-2.569-14.298-3.54-14.298-3.54 8.813 4.8 17.234 7.127 21.1 8.016.431.261.819.482 1.177.69-.918.5-1.822 1-2.697 1.515-10.662-7.114-24.163-10.884-24.163-10.884a100.173 100.173 0 0 0 10.87 6.503 123.01 123.01 0 0 0-13.063-3.073 93.45 93.45 0 0 0-1.305-.393c.105.081.215.154.33.24-.225-.043-.352-.065-.352-.065.312.151.616.305.923.442a97.303 97.303 0 0 0 5.124 3.229c-4.169-1.691-7.161-2.559-7.161-2.559 9.05 6.79 17.92 10.352 20.974 11.45-.694.466-1.361.927-2.01 1.38l.116-.278c-9.18-6.999-21.497-10.53-21.497-10.53a76.072 76.072 0 0 0 7.062 4.829c-5.296-1.543-9.284-2.17-9.284-2.17a83.478 83.478 0 0 0 10.078 4.814c-6.631-2.167-12.107-3.042-12.107-3.042 10.188 5.778 19.878 8.145 22.427 8.7-.428.318-.829.625-1.227.93-11.109-4.428-24.658-5.16-24.658-5.16 10.384 4.265 20.032 5.703 23.428 6.104a121.008 121.008 0 0 0-4.16 3.41l.056-.816c-12.317-2.658-26.82-1.42-26.82-1.42 13.386 2.952 25.157 2.454 26.608 2.373-.523.452-.945.827-1.281 1.128l-.151-.108c.196-.325.4-.654.59-.966 0 0-.265.307-.725.859l-.126-.094c-10.24-1.296-21.566.74-21.566.74 10.247 1.357 19.15.062 21.423-.315-.07.092-.153.197-.24.302l-.591-.043c-11.655 3.745-22.915 10.402-22.915 10.402 6.566-2.082 12.282-4.57 16.437-6.59-8.878 5.001-15.934 10.411-15.934 10.411 10.55-5 18.553-10.583 21.575-12.794-3.937 3.58-13.082 12.132-20.318 20.792 0 0 11.039-10.446 20.296-20.388-4.351 5.4-12.97 16.47-18.248 25.66 0 0 12.68-15.623 19.933-27.31.702-.577 1.405-1.118 2.102-1.67l-.42.407c-6.784 10.133-12.66 20.527-15.608 25.927-.514.853-.797 1.33-.797 1.33.075-.1.159-.205.242-.307-.942 1.742-1.472 2.755-1.472 2.755a320.923 320.923 0 0 0 3.937-6.005c10.95-14.464 18.633-26.213 20.218-28.666.34-.248.697-.5 1.039-.746.016 0 .021.003.021.003l.014-.027c.387-.283.772-.53 1.162-.8l-.853.803a289.616 289.616 0 0 0-5.156 8.016c-8.643 11.577-14.052 21.815-14.052 21.815a378.847 378.847 0 0 0 4.884-6.218c-2.08 3.735-3.305 6.094-3.305 6.094a428.37 428.37 0 0 0 7.74-11.986c9.214-12.508 13.905-20.592 13.905-20.592l-1.22 1.05a155.99 155.99 0 0 0-3.643 4.303 199.989 199.989 0 0 0 1.883-3.411c1.324-.908 2.64-1.78 3.943-2.62.191.067.304.102.342.115l-.38.24c-6.91 10.327-12.88 20.926-15.77 26.228a156.046 156.046 0 0 0-1.595 2.502c.272-.35.538-.703.81-1.058-.705 1.292-1.08 2.03-1.08 2.03a891.819 891.819 0 0 0 3.238-4.871 531.636 531.636 0 0 0 6.198-8.37c-4.468 6.595-7.336 11.165-7.336 11.165 11.862-15.374 20.463-28.426 22.672-31.824l.18.056.245-.716.008-.008c1.001-.555 2-1.09 2.99-1.6a358.844 358.844 0 0 0-5.506 7.392c2.6-3.913 4.047-6.237 4.047-6.237l-1.176.997c-11.186 14.735-20.645 30.214-20.645 30.214a477.42 477.42 0 0 0 6.897-9.285c-3.28 4.92-5.294 8.135-5.294 8.135 11.11-14.415 19.365-26.783 22.175-31.084.264.146.476.253.627.331-11.168 14.709-20.59 30.134-20.59 30.134 13.041-17.11 21.825-31.208 21.825-31.208l-.597.509.118-.286c-.118-.123-.253-.245-.39-.368.183-.092.363-.189.546-.278.616.318 1.112.558 1.456.722-10.853 14.423-19.898 29.217-19.898 29.217a464.395 464.395 0 0 0 5.229-7.004 405.298 405.298 0 0 0-3.399 5.198c-.484.624-.761.977-.761.977.113-.102.223-.207.33-.307l-1.017 1.605c.584-.762 1.163-1.513 1.736-2.257a164.797 164.797 0 0 0 3.38-3.29c-1.983 3.026-3.143 4.882-3.143 4.882 1.97-2.556 3.84-5.038 5.619-7.427a257.547 257.547 0 0 0 6.21-6.818c-4.517 6.783-7.443 11.57-7.443 11.57a478.121 478.121 0 0 0 13.547-18.72c5.686-6.848 9.747-12.242 9.747-12.242l-1.695.16c-.035.037-.075.075-.1.107.205-.334.323-.514.323-.514l-.263.218.156-.342a.33.33 0 0 1-.065-.06c.447-.164.893-.339 1.343-.492.84.433 1.485.748 1.889.94a300.697 300.697 0 0 0-3.06 4.12 396.687 396.687 0 0 0-2.998 3.514c3.292-4.915 5.165-7.92 5.165-7.92l-1.18 1c-4.036 5.317-7.846 10.733-11.073 15.483-6.362 7.828-11.736 14.749-11.736 14.749a127.735 127.735 0 0 0 5.565-5.424 344.979 344.979 0 0 0-3.398 5.402 503.101 503.101 0 0 0 6.21-8.348c.9-.972 1.79-1.946 2.684-2.932-3.95 5.986-6.467 10.08-6.467 10.08a472.32 472.32 0 0 0 11.798-16.185 384.88 384.88 0 0 0 5.982-7.211 409.805 409.805 0 0 0-7.535 10.863c-5.829 7.217-10.554 13.294-10.554 13.294a117.528 117.528 0 0 0 5.07-4.9c-1.65 2.582-2.59 4.125-2.59 4.125l2.01-2.658c13.047-14.469 22.843-26.802 25.706-30.472l.08.01s-.02-.016-.053-.05c.363-.461.608-.768.732-.933a74.323 74.323 0 0 1 1.938-.377c.08.038.164.076.252.119l-.917.724c-15.512 17.447-29.545 35.977-29.545 35.977 16.24-18.228 28.345-33.693 30.613-36.626.183.097.369.183.563.272l1.246.095s-.374-.275-1.071-.754c.253-.046.516-.097.77-.135.303.159.607.312.914.452l.363.027-.653.482c-13.91 15.374-26.33 31.803-26.33 31.803 1.294-1.433 2.56-2.844 3.797-4.228-.334.407-.648.81-.936 1.177-.861.964-1.354 1.508-1.354 1.508.153-.121.312-.248.466-.377-.926 1.182-1.464 1.874-1.464 1.874a122.078 122.078 0 0 0 4.924-4.747c.91-.79 1.825-1.605 2.748-2.437-3.006 3.856-4.825 6.293-4.825 6.293 3.07-3.41 5.955-6.719 8.63-9.832 5.232-4.995 10.285-10.273 14.11-14.401-4.126 4.836-8.599 10.338-12.256 14.91-6.02 6.57-9.94 11.081-9.94 11.081 1.848-1.825 3.654-3.608 5.39-5.361-1.303 1.65-2.258 2.884-2.748 3.506a276.486 276.486 0 0 0-1.843 2.041c17.841-16.208 31.814-30.34 35.923-34.55.89.044 1.773.103 2.634.186-19.227 16.115-36.192 33.974-36.192 33.974a2957.98 2957.98 0 0 0 36.714-33.933c.25.027.49.051.732.078-18.127 16.553-34.989 34.294-34.989 34.294a1579.08 1579.08 0 0 0 5.95-5.443 953.495 953.495 0 0 0 5.654-4.4c1.055-.633 2.118-1.244 3.146-1.866-5.353 4.5-8.717 7.467-8.717 7.467a801.993 801.993 0 0 0 16.728-12.295 823.366 823.366 0 0 0 13.033-8.111c-.048.159-.108.312-.153.48-14.344 10.1-25.633 18.814-25.633 18.814a866.36 866.36 0 0 0 25.108-17.218c-.137.42-.277.848-.41 1.276a776.603 776.603 0 0 0-15.352 11.05 693.612 693.612 0 0 0-8.665 5.312c1.671-.845 3.313-1.699 4.952-2.55-3.512 2.634-5.582 4.23-5.582 4.23a693.113 693.113 0 0 0 10.517-6.826 707.533 707.533 0 0 0 12.766-6.926c0 .014-.002.019-.002.024-13.033 7.527-22.788 13.659-22.788 13.659.944-.488 1.889-.964 2.82-1.447a563.86 563.86 0 0 0 18.687-8.135c-10.87 5.443-18.703 9.687-18.703 9.687a412.734 412.734 0 0 0 8.888-3.733 550.606 550.606 0 0 0-8.786 4.282 460.569 460.569 0 0 0 16.077-6.18c-9.042 4.225-15.264 7.349-15.264 7.349.522-.18 1.05-.383 1.577-.574 4.696-.994 9.454-2.176 14.117-3.458-.05.208-.113.41-.18.606-8.289 3.076-13.934 5.41-13.934 5.41a234.974 234.974 0 0 0 13.057-3.137c-.175.197-.342.396-.506.593-7.016 2.639-11.64 4.548-11.64 4.548 3.22-.676 6.465-1.457 9.697-2.278-.108.129-.22.258-.326.385-5.75 2.434-9.408 4.09-9.408 4.09 2.309-.606 2.28 1.056 3.52-.137.25-.27.423-.458.506-.563-.191.237-.358.42-.506.563-3.399 3.63-21.744 22.143-45.53 48.73C620.566 269.9 561.467 342.156 537.925 401.94c16.437 25.019 31.903 7.973 31.903 7.973 31.43-63.587 76.195-130.028 108.165-174.503 23.017-32.023 39.397-52.664 39.397-52.664.832.977 2.576-3.506 2.527-3.25 0 0 .514-2.292.76-2.976l.072-.358c-.116.6-.234 1.2-.342 1.799-.161.514-.323 1.034-.49 1.534 0 0 1.601-3.632 3.983-9.368l.649-.83a469.434 469.434 0 0 0-3.601 10.942s1.453-3.334 3.668-8.631a542.518 542.518 0 0 0-3.186 8.698s2.478-5.246 5.968-13.068c.1-.038.2-.073.3-.105a611.454 611.454 0 0 0-4.91 13.087c-.414.926-.823 1.853-1.24 2.779.003-.003 3.786-6.913 8.878-16.822.07-.033.143-.054.212-.081-1.073 2.27-2.169 4.602-3.277 6.99-1.91 3.32-3.88 6.792-5.87 10.384 0 0 1.376-2.046 3.647-5.534a459.334 459.334 0 0 0-2.183 4.86s1.793-3.276 4.567-8.544a839.092 839.092 0 0 0 5.77-9.118c.369-.134.737-.272 1.103-.404a872.847 872.847 0 0 0-11.065 18.7s5.409-8.063 12.365-19.184c.331-.119.651-.24.969-.356a782.753 782.753 0 0 0-3.674 6.824 827.046 827.046 0 0 0-10.6 16.585s2.568-3.352 6.456-8.69a276.406 276.406 0 0 0-1.606 3.108c-1.24 1.829-2.514 3.697-3.8 5.612-1.542 1.936-3.111 3.92-4.704 5.949 0 0 14.459-15.94 28.385-33.446.312-.121.614-.248.923-.369a3044.02 3044.02 0 0 0-28.907 36.16s15.468-17.054 29.39-36.214c.082.84.142 1.675.185 2.537-3.639 4.123-15.88 18.14-29.887 35.963 0 0 .637-.66 1.765-1.855.544-.504 1.607-1.465 3.036-2.793A579.467 579.467 0 0 0 719 198.67s3.896-3.959 9.583-10.015c3.974-3.706 8.737-8.23 12.936-12.4-3.572 3.85-8.144 8.926-12.47 14.156a597.843 597.843 0 0 0-8.518 8.708s2.11-1.85 5.46-4.898c-.71.918-1.426 1.834-2.104 2.739a131.382 131.382 0 0 0-4.115 4.928s.605-.547 1.628-1.484c-.105.156-.218.32-.315.468 0 0 .466-.498 1.295-1.365.32-.296.672-.614 1.025-.945a484.078 484.078 0 0 0-3.66 3.826s14.255-12.626 27.573-26.637l.414-.65.032.35c.127.292.262.577.396.86-.03.248-.07.498-.105.743-.433-.649-.667-.994-.667-.994l.086 1.196c.08.178.161.35.253.53-2.554 2.3-15.969 14.58-31.766 30.944 0 0 16.077-14.261 31.203-29.888l.617-.92c.045.085.08.163.107.236-.089.628-.196 1.25-.31 1.874-.134.132-.403.377-.81.744-.026-.027-.05-.049-.05-.049l.018.084c-3.18 2.905-13.877 12.834-26.41 25.975a437.4 437.4 0 0 0-2.314 2.041s1.343-.975 3.582-2.658a122.397 122.397 0 0 0-4.244 5.082s5.288-4.799 11.537-10.707a383.31 383.31 0 0 0 9.437-7.699 369.442 369.442 0 0 0-6.262 6.054 444.624 444.624 0 0 0-14.045 12.015s3.558-2.577 8.76-6.635c-.859.894-1.704 1.799-2.538 2.704a397.153 397.153 0 0 0-7.25 6.322s1.798-1.308 4.694-3.503c-1.677 1.888-3.273 3.767-4.688 5.582 0 0 6.004-5.458 12.793-11.897 4.115-3.301 8.816-7.19 13.434-11.296l.87-1.17s-2.622 1.926-6.882 5.295a297.197 297.197 0 0 0 3.044-3.027c1.19-1.018 2.384-2.06 3.579-3.115.177.385.45.985.84 1.78-.14.441-.28.872-.423 1.306-.016-.02-.032-.033-.062-.06l-.293.17.193-.264-.446.331c.035-.027.059-.07.094-.102l.118-1.637s-4.68 4.128-10.616 9.88a443.569 443.569 0 0 0-16.243 13.806s4.16-3.005 10.046-7.647c-1.986 2.043-3.991 4.15-5.897 6.269a428.51 428.51 0 0 0-6.447 5.703s1.598-1.193 4.233-3.215a150.868 150.868 0 0 0-2.842 3.374l-1.957 1.758s.49-.363 1.386-1.042a9.882 9.882 0 0 0-.255.331l.842-.767c1.114-.856 2.656-2.041 4.51-3.49a411.133 411.133 0 0 0-6.07 5.321s12.854-9.306 25.363-20.347c.148.326.366.789.648 1.373-.073.175-.161.35-.237.528-.107-.116-.215-.24-.336-.364l-.237.14.444-.597s-12.255 9.026-27.099 22.28c0 0 13.396-9.705 26.165-21.05.07.143.167.34.29.582-3.732 2.887-14.472 11.337-26.977 22.615 0 0 2.796-2.06 7.067-5.418a431.883 431.883 0 0 0-8.06 7.01s13.453-9.738 26.23-21.108l.864-1.176s-2.024 1.494-5.417 4.157a356.649 356.649 0 0 0 6.42-5.598c-.44.972-.906 1.95-1.375 2.938-.005.003-.005.003-.008.003l-.621.266.045.167c-2.95 2.276-14.284 11.084-27.62 23.124 0 0 3.966-2.944 9.692-7.508a537.087 537.087 0 0 0-7.263 6.304 713.12 713.12 0 0 0-4.227 3.31s.64-.39 1.765-1.12c-.307.274-.611.546-.918.826 0 0 .794-.595 2.17-1.637 4.614-2.997 13.823-9.186 22.793-16.257l.215-.38c.005.035.04.146.097.326a179.289 179.289 0 0 1-2.255 3.905c-.286.183-1.324.848-2.974 1.95 1.26-1.19 2.508-2.419 3.74-3.687l.905-1.22s-7.027 4.855-17.885 14.234c-3.2 2.362-6.72 5.025-10.398 7.942 0 0 2.042-1.28 5.288-3.431a488.193 488.193 0 0 0-5.393 4.947s8.904-5.626 18.956-14.415a287.715 287.715 0 0 0 6.961-5.286l.69-.862c-.227.388-.447.77-.684 1.155l-.03.008s0 .008.008.03c-.21.337-.441.69-.648 1.031-2.124 1.622-12.336 9.504-24.885 20.617a357.486 357.486 0 0 0-5.207 4.045s.88-.552 2.392-1.538c-.096.089-.183.167-.277.25 0 0 .42-.288 1.16-.824 4.696-3.061 13.73-9.142 22.54-16.081l.348-.423c-.482.69-.956 1.387-1.443 2.09-10.156 7.461-23.705 20.298-23.705 20.298 7.987-5.455 17.591-14.202 22.279-18.602-8.614 9.304-17.653 20.347-17.653 20.347 7.516-7.31 14.91-16.458 18.003-20.39-1.905 2.997-6.717 10.925-10.988 21.266 0 0 4.656-7.005 8.956-15.743-1.73 4.066-3.862 9.67-5.613 16.063 0 0 5.715-11.087 8.885-22.459l-.037-.557c.091-.086.172-.172.26-.25-.314 2.197-1.372 10.811-.09 20.603 0 0 1.679-10.966.454-20.754l-.083-.121c.487-.464.759-.727.759-.727-.28.196-.557.4-.845.605l-.105-.14c.266-.325.584-.75.98-1.273-.055 1.4-.396 12.715 2.305 25.458 0 0 .964-13.981-1.474-25.706l-.719.083a99.524 99.524 0 0 0 2.95-4.141c.38 3.25 1.722 12.46 5.543 22.259 0 0-.759-12.985-4.72-23.474.261-.39.528-.791.8-1.214.505 2.432 2.655 11.638 7.8 21.174 0 0-.815-5.222-2.766-11.499 1.114 2.94 2.527 6.191 4.303 9.485 0 0-.594-3.81-1.978-8.833a70.247 70.247 0 0 0 4.28 6.587s-3.192-11.677-9.393-20.216l-.247.122c.387-.644.786-1.304 1.187-1.982.993 2.878 4.187 11.256 10.193 19.66 0 0-.78-2.835-2.29-6.77a88.593 88.593 0 0 0 2.858 4.791c.13.288.267.576.404.864 0 0-.027-.115-.057-.339l.202.318s-.12-.45-.352-1.236a126.392 126.392 0 0 0-2.796-12.428 92.165 92.165 0 0 0 5.777 10.163s-3.412-12.802-9.725-22.752c.441-.862.869-1.75 1.294-2.652.186.336.388.7.611 1.096.815 3.68 2.928 11.67 7.204 19.943 0 0-.915-6.401-3.227-13.594 2.223 3.24 5.092 6.983 8.61 10.683 0 0-.186-.42-.534-1.158.477.62.966 1.23 1.47 1.847 0 0-1.615-4.042-4.416-9.36 1.676 2.483 3.6 5.106 5.75 7.726 0 0-5.131-12.816-12.933-22.85.229-.557.45-1.117.678-1.671 1.456 2.806 6.077 11.089 13.749 19.157 0 0-5.248-11.922-13.221-20.482.159-.426.317-.862.479-1.288 1.892 3.482 6.31 10.88 13.18 18.105 0 0-.756-1.73-2.136-4.336a97.353 97.353 0 0 0 2.831 3.617s-4.844-12.086-12.28-21.982c.143-.434.272-.88.412-1.314 5.28 11.183 12.035 20.576 12.035 20.576-4.847-10.62-9.836-18.578-11.752-21.51.118-.394.237-.8.344-1.202a103.829 103.829 0 0 0 5.907 8.095c3.396 5.747 6.19 9.627 6.19 9.627a147.712 147.712 0 0 0-2.514-5.262c2.062 2.338 3.458 3.724 3.458 3.724a130.029 130.029 0 0 0-6.283-9.147 161.94 161.94 0 0 0-5.942-10.09c.083-.334.167-.671.242-1.01 3.98 5.964 8.42 11.022 10.8 13.599.683.999 1.086 1.562 1.086 1.562-.123-.272-.244-.528-.368-.8.648.692 1.02 1.066 1.02 1.066a116.84 116.84 0 0 0-1.935-3.005 165.152 165.152 0 0 0-3.135-6.234c2.69 4.37 4.706 7.168 4.706 7.168-4.2-9.201-8.506-16.407-10.837-20.075.043-.234.081-.477.124-.719 5.022 9.985 11.1 18.05 11.1 18.05a160.01 160.01 0 0 0-3.366-6.735c2.037 3.202 3.453 5.165 3.453 5.165-4.15-9.083-8.402-16.221-10.737-19.93.043-.395.088-.8.126-1.206 2.65 5.423 5.676 10.335 7.963 13.806.304.908.61 1.815.923 2.701 0 0-.11-.64-.31-1.78 1.777 2.653 2.985 4.252 2.985 4.252a159.463 159.463 0 0 0-2.632-5.329 103.24 103.24 0 0 0 4.583 6.038s-1.485-3.695-4.066-8.671c-.17-.79-.366-1.662-.587-2.618.474.582.931 1.134 1.383 1.672a189.729 189.729 0 0 0 1.992 5.058s-.28-1.358-.789-3.66a125.908 125.908 0 0 0 2.724 3.032c.07.259.129.52.196.773 0 0-.038-.232-.094-.654a84.856 84.856 0 0 0 2.608 2.692c-.453-.754-.897-1.5-1.346-2.224-.067-.544-.304-2.324-.673-4.998.046.043.1.09.148.13.312 1.607.638 3.226.98 4.874 0 0-.108-1.59-.337-4.298.291.26.582.506.85.743.19.932.372 1.869.571 2.811.1.86.197 1.713.302 2.594 0 0-.003-1.737-.07-4.718.056.05.107.094.158.137.027 1.632.052 3.272.09 4.947 0 0 .128-1.702.295-4.624.076.062.14.121.216.178.118 1.064.242 2.13.374 3.229 0 0-.008-1.053-.06-2.963.24.202.458.375.665.55-.003.883.006 1.777.01 2.685 0 0 .068-.921.162-2.542.471.385.837.667 1.096.87-.07 1.602-.13 3.236-.186 4.892 0 0 .511-3.68 1.157-9.422.054.994.105 1.995.172 3.013a574.541 574.541 0 0 0-.452 5.887c-.339 2.16-.68 4.362-1.017 6.608 0 0 4.36-19.009 7.465-38.672.132.145.256.293.39.439a2374.322 2374.322 0 0 0-6.407 39.693s4.397-19.122 6.74-39.303c.434.504.854 1.024 1.274 1.546-1.233 5.779-4.37 21.09-7.177 39.55 0 0 .207-.797.56-2.213.212-.63.624-1.853 1.17-3.512-.417 2.006-.823 4.069-1.238 6.172 0 0 1.33-4.769 3.116-11.943 1.494-4.626 3.254-10.23 4.715-15.303-1.106 4.521-2.435 10.426-3.485 16.318a445.36 445.36 0 0 0-2.858 10.484s.856-2.38 2.156-6.242a96.365 96.365 0 0 0-.423 3.016 90.276 90.276 0 0 0-1.028 5.577s.235-.69.63-1.875a7.701 7.701 0 0 0-.046.496s.151-.593.428-1.632c.113-.372.245-.76.374-1.177-.387 1.487-.783 3.003-1.181 4.557 0 0 5.702-16.136 9.965-32.794l.035-.668.186.234c.083.046.175.095.266.148.127.24.264.474.398.717-.428-.154-.68-.24-.68-.24l.64.805c.148.081.301.16.455.248-.99 2.903-6.16 18.376-11.338 37.967 0 0 6.41-18.223 11.38-36.936l.073-.813c.275.533.541 1.072.802 1.621-.067.175-.145.434-.263.773l-.062-.013.048.053c-1.227 3.668-5.293 16.096-9.322 31.741-.306.86-.616 1.724-.923 2.607 0 0 .64-1.365 1.68-3.687a99.342 99.342 0 0 0-1.066 5.742s2.05-6.065 4.373-13.403a324.566 324.566 0 0 0 4.088-10.217 306.528 306.528 0 0 0-2.253 7.46 394.05 394.05 0 0 0-5.823 15.586s1.698-3.617 4.036-9.115c-.274 1.06-.535 2.132-.799 3.19a405.405 405.405 0 0 0-2.941 8.141s.856-1.828 2.196-4.85a108.547 108.547 0 0 0-1.198 6.326s2.333-6.894 4.847-14.88c1.81-4.423 3.821-9.542 5.654-14.78l.158-1.265s-1.232 2.68-3.132 7.22c.371-1.266.724-2.505 1.06-3.684.493-1.33.977-2.666 1.45-4.01.388.224 1.075.6 2.008 1.088.097.337.202.66.288.996-.18-.04-.363-.075-.549-.115l-.161.26.035-.274s-.075.164-.213.458l.035-.116-.691-1.228s-1.87 5.286-4.015 12.36a412.452 412.452 0 0 0-6.774 17.97s1.989-4.228 4.623-10.483a194.258 194.258 0 0 0-1.865 7.421 424.442 424.442 0 0 0-2.578 7.295s.751-1.648 1.951-4.424a92.037 92.037 0 0 0-.72 3.842c-.262.738-.52 1.482-.776 2.24 0 0 .232-.513.643-1.45-.018.129-.04.247-.062.371 0 0 .127-.347.334-.977a462.784 462.784 0 0 0 2.043-4.721 346.286 346.286 0 0 0-2.455 6.816s6.13-13.074 11.152-27.206c.366.202.934.511 1.671.902-.035.075-.075.18-.129.296-.247-.049-.492-.1-.737-.14l-.14.21.08-.641s-5.764 12.573-11.657 29.46c0 0 6.4-13.642 11.48-28.116.124.059.293.15.517.261-1.685 3.926-6.491 15.333-11.389 29.643 0 0 1.308-2.87 3.213-7.392a377.789 377.789 0 0 0-3.272 9.013s6.413-13.682 11.504-28.183l.148-1.269s-.947 2.074-2.467 5.663a298.821 298.821 0 0 0 2.631-7.297c.197.102.423.21.673.33.092.846.186 1.703.259 2.57-.173-.067-.358-.143-.533-.21l-.092.11.016-.105s-.03.076-.086.202l-.387.498s.05.033.126.095c-1.353 3.094-6.464 15.058-11.695 30.313 0 0 1.862-4.077 4.394-10.19a445.816 445.816 0 0 0-2.965 8.117 638.081 638.081 0 0 0-1.892 4.48s.339-.605.918-1.688c-.124.353-.243.7-.358 1.05l.998-2.25c2.357-4.447 6.991-13.473 10.99-23.014l-.005-.366c.024.019.318.242.842.608-.008.609-.01 1.223-.027 1.84l-.454.635s.072.054.166.119l-.016.035s.097.102.264.258c-.016.455-.024.894-.054 1.347l-.508.61s.166.162.45.424c-.03.4-.057.829-.092 1.244a11.688 11.688 0 0 0-.23-.16l-.077.079.115-.945s-5.172 11.59-10.82 27.585a315.565 315.565 0 0 0-2.347 5.494s.46-.832 1.238-2.292l-.113.313s.207-.418.568-1.172c2.4-4.535 6.93-13.394 10.853-22.75l.207-1.224s-1.77 3.29-4.419 8.714c1.626-4.107 3.24-8.56 4.51-12.832.119.13.254.294.418.477a109.182 109.182 0 0 1-.493 4.405l-.067.052s.016.032.046.083c-.084.668-.178 1.336-.272 2.017-4.804 10.397-9.833 26.377-9.833 26.377 3.966-7.882 7.683-18.923 9.437-24.403-2.642 10.941-4.798 23.33-4.798 23.33 2.691-8.983 4.41-19.213 5.07-23.556-.134 3.064-.307 11.119 1.122 20.66 0 0 .487-7.328-.159-15.71.528 3.775 1.448 8.826 3.066 14.271 0 0-.592-10.768-3.418-20.447l-.304-.382c.032-.105.067-.205.097-.31.783 1.716 4.036 8.378 9.776 14.714 0 0-3.859-8.647-9.553-15z" transform="rotate(-17 303.146 2221.816)"/>
</svg>
