<svg xmlns="http://www.w3.org/2000/svg" width="201" height="369" viewBox="0 0 201 369">
    <defs>
        <linearGradient id="a" x1="50%" x2="50%" y1="0%" y2="100%">
            <stop offset="0%" stop-color="#FF7E02"/>
            <stop offset="100%" stop-color="#FF8802"/>
        </linearGradient>
    </defs>
    <path fill="url(#a)" fill-rule="evenodd" d="M269.149 207.478c.007.016.019.042.023.061a6.465 6.465 0 0 0-.08.177l.057-.238zm.599-13.359l-.455.61-.05-1.554s-1.606 3.36-4.022 8.696a267.67 267.67 0 0 0 3.473-9.295c.259.196.712.526 1.344.96.005.232.003.458-.002.683-.095-.029-.194-.069-.288-.1zm-.632-4.546l.04-.316c.052.037.11.082.167.122l-.177.194s.267.274.76.739c.04.618.07 1.241.087 1.87-.34-.138-.681-.272-1.026-.407.078-.217.154-.434.229-.656l.146-1.157s-.91 2.04-2.354 5.538a249.61 249.61 0 0 0 2.128-5.927zm.056-4.56l.033-.263c.057.029.102.055.163.085.007.074.021.147.03.227-.075-.012-.148-.033-.226-.05zm-4.994-17.05l.033-.596c.104.22.21.44.307.657-.13-.024-.245-.05-.34-.062zm-3.46-6.667l-.625-.873c.014-.08.035-.144.05-.222.075.115.15.231.223.34l-.002.002.01.019c.325.48.63.968.934 1.461-.253.744-.814 2.384-1.58 4.747.41-2.046.759-3.916.99-5.474zm-18.082 13.75a111.596 111.596 0 0 0-1.953-2.809c-.13-.571-.271-1.166-.415-1.79.342.338.68.671 1.012.992a164.43 164.43 0 0 0 1.356 3.607zm3.923-15.674c-.045-.571-.092-1.15-.141-1.732.125.066.252.13.372.195-.011.553-.025 1.12-.03 1.69a4.942 4.942 0 0 1-.2-.153zm-7.343 6.76c-.092-.38-.194-.773-.288-1.168.066.073.13.144.196.213.146.444.297.885.44 1.326a24.452 24.452 0 0 0-.348-.37zm8.898 7.337c-.007 1.056-.01 2.12-.012 3.199-.2-.272-.406-.54-.613-.812-.029-.869-.06-1.867-.111-2.99.266.211.51.417.736.603zm14.472-43.53c-.323 0-.641.007-.962.007a78.446 78.446 0 0 0 4.843-4.134c-2.126 2.141-3.492 3.678-3.88 4.127zm-33.601 44.234c-.123-.135-.224-.241-.297-.33l.493-.773-.196 1.103zm27.57-43.843l.035-.002.34-.345c.065.08.139.166.228.267-.203.024-.408.057-.604.08zm-10.246.17c.21-.285.43-.576.632-.857.227-.134.449-.257.654-.38-.024.05-.052.111-.08.163-.41.361-.81.713-1.206 1.074zm6.174-12.13c-.944.481-1.904.974-2.857 1.477.104-.198.182-.359.238-.467.864-.34 1.767-.715 2.699-1.107a3.497 3.497 0 0 0-.08.097zm-11.054 6.817c.143-.003.221-.003.221-.003a4.033 4.033 0 0 0-.238-.052 198.856 198.856 0 0 0-3.088-6.994c.017-.174.043-.354.066-.526a.434.434 0 0 0 .045.035l-.04-.097c.012-.096.026-.207.042-.311a231.998 231.998 0 0 0 2.522 5.252l-.304.366s.148-.052.42-.144c.358.722.681 1.355.95 1.879l-.141.203s.07-.038.2-.092c.165.319.302.588.427.814l-.332.46s.059-.03.181-.073c-.122.234-.238.472-.349.701-.19-.474-.387-.946-.582-1.418zm-8.604-2.481c-.03-.085-.066-.168-.096-.248.12.106.24.21.358.307-.087-.021-.174-.038-.262-.06zm-15.854 10.023c.007-.05.02-.097.028-.144.035.054.07.108.094.16l-.122-.016zm-3.588-.298c.059-.243.113-.484.165-.724.033.03.059.068.085.103-.064.201-.128.411-.196.617l-.054.004zm14.614-19.52c.009-.046.025-.086.04-.131.059.061.125.115.181.167-.026.045-.05.085-.068.128-.054-.06-.106-.109-.153-.163zm-5.042 5.263c-.016-.076-.047-.15-.066-.227l.406.08-.46-.304-.007-.01c.142-.318.29-.67.436-1.029.25-.03.491-.054.725-.085.004.045.014.095.023.142-.17.472-.33.949-.493 1.433h-.564zm-14.965 7.067c.283-.033.569-.066.856-.087a96.648 96.648 0 0 0 3.544 5.051c-.095.274-.182.562-.276.86-.109.295-.225.613-.328.925a116.04 116.04 0 0 0-3.796-6.749zm-.413 6.765c-.983-1.192-2.89-3.42-5.555-6.198.667-.06 1.333-.12 1.993-.182a88.504 88.504 0 0 0 4.78 6.487l.03.014a38.4 38.4 0 0 0-1.248-.12zm18.95-36.758c.391.227.78.456 1.153.677-.179.305-.372.643-.585 1.013a121.87 121.87 0 0 1-.993-.62c.142-.352.281-.716.425-1.07zm-13.008 31.516c-.19-.324-.391-.657-.594-.997.134.04.28.093.41.128.095.186.19.37.281.564-.033.095-.066.2-.097.305zm20.896-26.927c.446.911.894 1.799 1.333 2.658l-1.069-.708c-.59-1.01-1.137-1.926-1.622-2.727.493.279.938.531 1.358.777zm-26.467 14.838c.059-.016.125-.026.186-.042.087.026.17.042.252.066a.918.918 0 0 1 .05.12c-.163-.05-.33-.101-.488-.144zm-21.104 20.73a12.234 12.234 0 0 0-.36-.342c.381-.08.759-.155 1.134-.238l-.774.58zM175.2 139.08l-.28.23a140.05 140.05 0 0 0-1.489 1.984 254.987 254.987 0 0 0-5.772 6.668c3.602-5.235 5.678-8.5 5.678-8.5l-1.071.923c-4.3 5.6-8.346 11.323-11.616 16.099-1.165 1.45-2.279 2.833-3.293 4.107 8.688-11.824 14.25-20.544 14.25-20.544l-1.056.907.11-.265-.242-.2a91.399 91.399 0 0 1 4.147-1.747c.269.14.479.257.634.338zm-34.533 25.387c2.829-4.796 4.588-8.026 4.98-8.755 1.196-.925 2.376-1.82 3.553-2.675a.72.72 0 0 0 .122.012c-3.02 3.602-5.991 7.601-8.655 11.418zm64.46-70.431c-.046-.411-.102-.919-.173-1.513.028.03.061.068.094.106.085.524.177 1.048.276 1.577a3.415 3.415 0 0 0-.198-.17zm-.355-2.894c-.113-.805-.243-1.705-.41-2.708.038.043.078.097.116.14.106.863.221 1.734.344 2.61-.019-.016-.035-.028-.05-.042zm-14.078 16.592c-.057-.005-.113-.017-.172-.024.186-.096.37-.205.554-.302.071.012.142.028.203.043-.191.094-.392.19-.585.283zm15.746-33.897c-.028-.119-.045-.234-.075-.36 0 0-.01.126-.017.35l-1.061-.11-1.04-.194c-.11-.534-.23-1.08-.347-1.62.342.05.686.097 1.03.151 5.502 1.464 11.14 2.656 15.494 3.496-4.56-.647-9.615-1.239-13.984-1.713zm-2.524 12.017a89.78 89.78 0 0 0-.205-1.046c.141.116.288.227.434.343.021.304.047.613.075.915-.099-.068-.212-.144-.304-.212zm-.474-2.365c.205.13.403.264.604.401.016.198.028.397.045.607a20.933 20.933 0 0 0-.505-.338c-.043-.215-.097-.446-.144-.67zm-5.454 6.531c-.123-.47-.28-1.012-.453-1.605.208.562.42 1.136.642 1.702-.062-.033-.125-.064-.189-.097zm-14.012 16.522a9.138 9.138 0 0 0-.347-.007c.255-.18.505-.352.755-.529.12.024.243.054.363.078-.257.156-.519.302-.771.458zm-9.634-8.118c-.033-.002-.055.01-.088.019-.462.085-.809.144-1.038.186.031-.026.066-.056.1-.087.377-.068.757-.137 1.134-.208-.04.029-.073.06-.108.09zm12.453-11.666c-.616.165-1.239.345-1.847.524-1.996.37-4.294.845-6.679 1.372 4.695-1.558 7.518-2.611 7.518-2.611l-1.08.05c-5.284 1.432-10.481 3.078-14.75 4.506-1.397.342-2.725.675-3.952.982 10.92-3.225 18.483-6.05 18.483-6.05l-1.074.044.194-.113c-.01-.094-.031-.18-.043-.267 1.137.32 2.237.652 3.303 1.004.085.238.155.417.205.547l-.278.012zm-10.63-3.036c-1.906.513-3.8 1.058-5.64 1.61 2.925-.993 4.784-1.678 5.206-1.83.109.015.224.041.333.053.068.085.11.132.11.132l.116-.101c.036.011.083.016.116.023a.797.797 0 0 0 .056.097l-.297.016zm27.871-31.4a231.127 231.127 0 0 0-6.777-.455c3.574.05 5.857.019 6.383.014.392.234.79.463 1.173.699l-.779-.257zm46.477 44.945a36.647 36.647 0 0 1 1.64-2.514c.009.55.025.85.025.85l.345-.718c.016-.247.04-.486.063-.729.135-.177.27-.359.41-.533.003.11.013.172.013.172l.23-.484c.185-.234.378-.458.572-.692.002.19.004.352.004.484l-.188.024s.035.012.106.03c-.061-.009-.127-.016-.184-.028l-.602.805s.378.13 1.052.352c-.176-.045-.356-.085-.533-.125l-.868.07s1.56.53 4.235 1.341c-1.593-.221-3.039-.382-4.218-.46l-.453.817c-.21-.036-.413-.071-.611-.111l-.6.807s1.324.451 3.419 1.098a161.683 161.683 0 0 0-3.586-.496l-.271.04zm5.834-7.332c.014.185.037.34.05.463l-.583.052c.174-.172.346-.345.533-.515zm17.534-8.755l.257.191-1.1.248s2.881 1.412 7.399 3.487c-2.423-.935-5.035-1.9-7.674-2.788.045-.215.104-.524.18-.93.313-.078.627-.14.938-.208zm-5.228 50.336c.687 1.204 2.605 4.54 5.419 9.124.337.64.682 1.293 1.04 1.952-2.276-3.484-4.944-7.386-7.803-11.224.446.042.894.087 1.344.148zm10.024 2.684c.125-.052.24-.101.36-.155.21.075.416.153.633.236-.323.141-.496.224-.496.224l.798.045c.073-.017.139-.05.212-.066.316.12.637.252.958.387-.13.085-.196.13-.196.13l.479-.012c.283.123.566.255.856.385a.328.328 0 0 1-.05.016l.104.01c.451.207.9.413 1.35.634-.224.12-.446.239-.665.362l-.338-.418s.102.333.323.953l-.002.005a55.1 55.1 0 0 0-.774-1.272l-1.028-.222s.07.153.19.43l-.053-.066s.797 2.438 2.271 6.352c-1.42-2.727-2.828-5.283-3.97-7.089l-.915-.196a25.736 25.736 0 0 1-.38-.666l.333-.007zm-11.446 14.433a.077.077 0 0 0-.033 0 9.74 9.74 0 0 1-.326-.22c.118.078.246.147.359.22zm8.32.58c.314.345.611.68.927 1.03-.276-.01-.55-.029-.828-.048-.2-.257-.441-.557-.708-.894.217-.036.423-.064.61-.088zm-6.088 58.27l-.107-.04c.156-.498.236-.783.236-.783-.118.24-.233.493-.356.746l-.064-.024c.064-.279.142-.628.225-1.048.903 1.45 5.314 8.271 12.221 14.67 0 0-5.168-9.144-11.844-15.388l-.283.215c.106-.536.217-1.152.323-1.853.797 1.28 5.237 8.231 12.276 14.746 0 0-5.581-8.906-12.208-15.14.05-.352.097-.706.151-1.084 1.909 2.108 6.554 6.9 12.982 11.052 0 0-5.758-7.468-12.828-12.289.035-.314.068-.632.101-.972 1.892 1.707 7.006 5.996 14.057 9.364 0 0-2.793-2.91-6.85-5.98a58.86 58.86 0 0 0 7.112 4.042s-2.033-2.12-5.142-4.643a56.26 56.26 0 0 0 5.864 2.235s-6.93-5.653-14.781-8.32c.02-.43.042-.855.052-1.296 2.382 1.616 7.829 4.983 14.977 7.348 0 0-1.77-1.442-4.532-3.243a68.187 68.187 0 0 0 4.06 1.725c.233.132.462.27.696.392l-.182-.189c.095.038.189.07.28.109 0 0-.275-.23-.78-.626a88.392 88.392 0 0 0-7.225-6.515 73.926 73.926 0 0 0 8.435 3.803c.003-.003-7.393-6.123-15.812-9.617-.047-.71-.1-1.442-.167-2.176.05.02.096.042.146.066 2.123 1.926 6.992 5.988 13.56 9.27 0 0-3.343-3.589-8.03-7.059a72.808 72.808 0 0 0 10.695 2.88s-.312-.181-.878-.495c.604.179 1.215.349 1.84.502 0 0-2.882-1.815-7.152-3.911a85.83 85.83 0 0 0 7.435 2.313s-8.66-5.464-18.24-8.358a53.467 53.467 0 0 0-.212-1.223c2.737 1.315 9.125 4.067 17.278 5.585 0 0-8.413-4.912-17.528-6.84-.056-.287-.12-.572-.181-.853 3.064 1.407 9.035 3.82 16.489 5.21 0 0-1.288-.751-3.39-1.775 1.158.354 2.35.703 3.59 1.02 0 0-8.3-5.243-17.635-8.166-.09-.311-.177-.609-.276-.923 8.372 4.52 16.888 7.318 16.888 7.318-7.591-4.29-14.274-7.016-17.126-8.104-.104-.314-.208-.62-.31-.93a81.694 81.694 0 0 0 7.323 2.328c4.871 2.093 8.523 3.288 8.523 3.288a156.082 156.082 0 0 0-4.036-2.181c2.47.552 4.071.81 4.071.81a108.402 108.402 0 0 0-8.388-2.954c-3.59-1.7-6.53-2.906-8.33-3.604a31.245 31.245 0 0 0-.292-.753c5.34 1.942 10.603 3.135 13.373 3.682.9.324 1.432.496 1.432.496-.203-.111-.404-.217-.61-.333.746.137 1.19.215 1.19.215-.89-.364-1.77-.694-2.626-1.01a131.739 131.739 0 0 0-4.935-2.536c3.782 1.546 6.43 2.41 6.43 2.41-7.1-4.008-13.386-6.642-16.512-7.86-.097-.2-.203-.39-.307-.588 7.931 4.136 15.95 6.57 15.95 6.57a121.926 121.926 0 0 0-5.27-2.727 104.975 104.975 0 0 0 4.675 1.709c-7.237-4.084-13.62-6.74-16.685-7.934-.196-.33-.406-.66-.616-1 8.28 4.5 17.084 7.178 17.084 7.178a124.285 124.285 0 0 0-4.173-2.19 82.08 82.08 0 0 0 5.876 1.763s-5.164-3.258-11.922-6.076c7.265 2.22 13.352 3.118 13.352 3.118-11.694-5.03-21.729-6.72-21.729-6.72l.602.807c.233.094.474.193.714.295-.316-.085-.634-.177-.953-.265l-.103.156a66.987 66.987 0 0 0-1.119-1.584c11.531 3.78 24.385 4.183 24.385 4.183-12.668-4.265-23.854-5.073-25.106-5.153-.234-.302-.467-.607-.703-.902l-.18-.826s-.042.16-.106.465a61.852 61.852 0 0 0-1.333-1.59v-.128l.23.33c.219.066.445.137.664.21l.34.48c11.594 3.847 24.595 4.246 24.595 4.246-.795-.264-1.583-.515-2.364-.762.87.054 1.364.07 1.364.07-4.933-1.66-9.644-2.795-13.63-3.566-.85-.49-2.143-1.214-3.76-2.099.421-.007.844-.019 1.266-.033 1.514.585 3.04 1.145 4.562 1.66 0 0-1.137-.661-3.038-1.719.873-.04 1.715-.094 2.529-.146.325.108.646.238.967.342.295.156.585.312.88.463l-1.23-.853c.454-.04.892-.073 1.324-.108.208.108.415.215.618.323 0 0-.181-.123-.479-.333l.529-.05c.042.022.08.046.115.067l-.09-.069c.472-.047.928-.09 1.364-.139.165.116.326.236.488.352 0 0-.15-.135-.405-.359.063-.005.125-.014.184-.021.174.156.342.307.51.455 0 0-.154-.162-.42-.46.995-.108 1.882-.222 2.62-.314.163.163.321.328.486.494 0 0-.141-.182-.4-.508.27-.038.513-.068.74-.104a596.215 596.215 0 0 0 2.663 3.59s-.854-1.38-2.305-3.64c.54-.077.93-.139 1.135-.174.904 1.223 1.833 2.464 2.777 3.734 0 0-4.473-7.218-10.74-15.629.282-.116.43-.186.43-.186-.167.033-.332.066-.497.094-.28-.378-.57-.758-.86-1.14.228-.09.35-.151.35-.151-.139.023-.273.05-.408.078a240.167 240.167 0 0 0-2.861-3.695l.059-.035a.373.373 0 0 0-.073.021 308.218 308.218 0 0 0-1.866-2.306c.557.019 1.116.047 1.675.087 1.81 2.817 7.978 12.287 16.192 23.275 0 0-.279-.49-.783-1.352-.196-.41-.571-1.214-1.088-2.297a477.35 477.35 0 0 0 2.4 3.597s-1.636-2.979-4.21-7.343c-1.46-2.996-3.264-6.61-4.962-9.804 1.641 2.748 3.847 6.272 6.21 9.64a300.757 300.757 0 0 0 3.615 6.504s-.696-1.586-1.876-4.114c.418.562.845 1.119 1.274 1.657a57.542 57.542 0 0 0 2.215 3.2s-.212-.455-.58-1.227c.08.092.156.177.224.26 0 0-.203-.361-.573-1a43.266 43.266 0 0 1-.364-.77c.517.918 1.057 1.855 1.602 2.802 0 0-4.796-10.717-10.712-20.917l-.323-.34.238.016c.213-.068.427-.134.647-.203.148.045.304.092.452.135-.52.236-.797.373-.797.373l.79.038c.13-.038.265-.078.4-.123.893 1.921 5.663 12.041 12.518 24.12 0 0-5.437-12.096-11.97-23.648l-.445-.503c.066-.016.123-.033.177-.054.387.12.764.24 1.14.368.058.109.148.314.294.614-.03.021-.05.028-.05.028l.06-.004c1.13 2.405 5.022 10.48 10.558 20.076.255.574.517 1.152.779 1.74 0 0-.314-.992-.873-2.651a56.529 56.529 0 0 0 2.279 3.302s-1.857-3.98-4.2-8.713a197.578 197.578 0 0 0-2.75-7.041c.71 1.43 1.531 3.05 2.442 4.75a219.993 219.993 0 0 0 4.449 10.525s-.833-2.637-2.22-6.49c.373.655.755 1.309 1.142 1.946.73 1.733 1.519 3.553 2.375 5.436 0 0-.417-1.324-1.153-3.467a59.656 59.656 0 0 0 2.5 3.647s-2.111-4.528-4.67-9.664c-1.166-3.074-2.57-6.586-4.136-10.052l-.55-.687s.628 1.931 1.803 5.1c-.42-.794-.835-1.573-1.236-2.31-.385-.896-.777-1.796-1.18-2.686.288-.09.746-.224 1.35-.425.252.133.497.267.747.404-.014.012-.035.014-.059.026l.038.213-.12-.147.11.333a1.428 1.428 0 0 0-.049-.078l-1.021-.22s1.561 3.52 3.878 8.022a232.299 232.299 0 0 0 5.095 12.17s-.97-3.075-2.571-7.45c.847 1.516 1.738 3.05 2.656 4.526a229.98 229.98 0 0 0 2.168 4.844s-.392-1.188-1.083-3.142a64.34 64.34 0 0 0 1.52 2.212c.214.49.44.982.67 1.477 0 0-.119-.37-.343-1.036.047.071.097.144.149.21 0 0-.109-.233-.304-.64a276.35 276.35 0 0 0-1.182-3.35 222.712 222.712 0 0 0 2.005 4.566s-2.994-9.494-7.174-18.894c.246-.073.595-.186 1.04-.323.092.066.19.14.284.205-.107.062-.21.12-.31.196l.024.175-.283-.35s2.956 9.056 8.018 20.23c0 0-3.111-9.893-7.44-19.498.113-.03.264-.085.448-.148.984 2.771 3.916 10.757 8.259 20.182 0 0-.682-2.072-1.84-5.245a238.36 238.36 0 0 0 2.633 6.043s-3.13-9.928-7.464-19.538l-.55-.685s.484 1.495 1.408 4.018a196.056 196.056 0 0 0-2.106-4.818c.521.378 1.05.772 1.571 1.178.005.005.005.007.005.007l.026.442s.044-.005.118-.02c.764 2.191 3.798 10.604 8.435 20.66 0 0-.972-2.939-2.569-7.2.722 1.714 1.51 3.541 2.36 5.444.365 1.03.752 2.077 1.146 3.147 0 0-.104-.465-.314-1.29.113.232.217.456.32.692 0 0-.19-.585-.546-1.61-.847-3.375-2.68-10.133-5.131-16.802l-.2-.177a2.34 2.34 0 0 1 .235-.035c.665.59 1.328 1.21 1.989 1.85.045.206.238.97.564 2.18a62.01 62.01 0 0 0-1.503-2.843l-.578-.72s1.48 5.172 4.987 13.314c.776 2.37 1.668 4.968 2.68 7.718 0 0-.347-1.496-.968-3.878.6 1.303 1.234 2.658 1.925 4.07 0 0-1.538-6.499-4.852-14.048a141.84 141.84 0 0 0-1.779-5.162l-.387-.543c.194.193.385.37.58.564V148l.022-.004c.17.174.344.351.51.524.55 1.572 3.234 9.152 7.461 18.589.436 1.249.894 2.535 1.385 3.867 0 0-.149-.642-.425-1.752.028.066.064.142.097.21l-.257-.857c-.876-3.437-2.68-10.065-5.093-16.62l-.187-.267c.34.38.677.765 1.015 1.152 2.43 7.509 7.532 17.768 7.532 17.768-1.647-5.87-5.034-13.113-6.775-16.656 3.977 6.616 8.978 13.665 8.978 13.665-2.949-5.703-7.115-11.484-8.922-13.906 1.482 1.548 5.47 5.465 11.142 9.23 0 0-3.425-3.744-8.06-7.391a65.086 65.086 0 0 0 9.055 5.158s-5.817-4.809-12.408-7.913l-.37-.021a3.978 3.978 0 0 0-.102-.2c1.352.405 6.667 1.845 13.281 1.803 0 0-6.683-2.059-13.295-2.068l-.096.052c-.182-.364-.29-.57-.29-.57.058.204.124.412.195.626l-.118.052a31.04 31.04 0 0 0-.597-.772c.892.156 8.122 1.341 16.987.583 0 0-8.806-1.822-16.946-1.163l-.109.493a50.506 50.506 0 0 0-1.989-2.346c2.192.011 8.453-.118 15.676-1.88 0 0-8.56-.575-16.263 1.223-.193-.212-.399-.424-.597-.646 1.684-.14 8.139-.815 15.503-3.499 0 0-3.562.114-8.074.91a61.763 61.763 0 0 0 7.133-2.125s-2.597.09-6.166.602a60.698 60.698 0 0 0 5.26-2.347s-8.296 1.178-15.26 4.66l.019.177a57.335 57.335 0 0 0-1.003-.97c2.09-.425 8.254-1.884 15.095-5.248 0 0-2.019.29-4.913.985a74.594 74.594 0 0 0 3.765-1.535c.219-.063.434-.132.655-.196 0 0-.082 0-.228.005.077-.038.162-.07.245-.113 0 0-.316.047-.882.141-1.491.069-4.789.265-8.681.84a76.723 76.723 0 0 0 7.928-3.056s-9.07 1.237-16.977 4.671a61.295 61.295 0 0 0-1.411-1.102l.856-.321c2.564-.24 8.212-.996 14.565-3.194 0 0-4.348.076-9.538 1.036a79.01 79.01 0 0 0 8.922-4.926s-.31.092-.868.262c.507-.276 1.021-.552 1.535-.84 0 0-2.995.757-7.084 2.204a90.52 90.52 0 0 0 6.344-3.25s-9.48 2.398-17.799 6.843a34.347 34.347 0 0 0-.917-.607c2.156-.753 8.593-3.177 15.604-7.695 0 0-8.936 2.55-16.333 7.233-.24-.147-.477-.293-.722-.44 2.7-.986 8.511-3.358 14.793-7.4 0 0-1.297.366-3.305 1.08a75.98 75.98 0 0 0 3.005-1.61s-8.95 2.263-17.08 6.465c-.246-.132-.506-.26-.76-.39 8.466-2.634 16.116-6.418 16.116-6.418-7.992 2.387-14.307 5.092-16.645 6.145l-.696-.333a89.933 89.933 0 0 0 6.617-3.317c4.51-1.82 7.672-3.383 7.672-3.383-1.388.416-2.718.838-3.999 1.263 1.993-1.203 3.227-2.03 3.227-2.03a111.505 111.505 0 0 0-7.386 3.484 132.744 132.744 0 0 0-7.91 3.17c-.198-.082-.393-.167-.594-.245 4.791-2.2 9.094-4.775 11.314-6.168.811-.378 1.264-.609 1.264-.609-.203.064-.396.128-.597.189.595-.383.925-.602.925-.602a90.95 90.95 0 0 0-2.39 1.053 138.388 138.388 0 0 0-4.765 1.598c3.451-1.452 5.733-2.583 5.733-2.583a141.141 141.141 0 0 0-15.506 5.647 8.67 8.67 0 0 0-.439-.144c7.634-2.554 14.265-5.994 14.265-5.994a124.974 124.974 0 0 0-5.143 1.714c2.546-1.112 4.15-1.907 4.15-1.907a142.017 142.017 0 0 0-15.392 5.6 21.414 21.414 0 0 0-.744-.19c7.912-2.575 14.963-6.236 14.963-6.236-1.41.441-2.767.89-4.055 1.333a93.489 93.489 0 0 0 4.97-2.591s-5.387 1.362-11.598 3.94c6.204-3.213 10.86-6.417 10.86-6.417-9.572 3.857-16.765 8.338-18.322 9.334-.104-.012-.212-.03-.328-.045 9.641-4.95 18.058-12.084 18.058-12.084-9.627 4.681-16.98 10.096-19.32 11.898a57.344 57.344 0 0 0-1.899-.194c9.818-4.952 18.476-12.287 18.476-12.287-.696.336-1.378.675-2.045 1.022.62-.498.962-.79.962-.79-9.7 4.707-17.077 10.174-19.367 11.935a39.995 39.995 0 0 0-.91-.022l.02-.007c7.842-6.116 14.442-14.111 14.442-14.111a116.12 116.12 0 0 0-7.671 6.524c3.557-3.592 5.904-6.44 5.904-6.44-8.251 6.393-14.055 12.856-15.1 14.05-.113.006-.226.008-.342.01a1.647 1.647 0 0 0-.103-.12l-.935-.189c7.778-6.097 14.298-13.998 14.298-13.998-.745.58-1.465 1.154-2.17 1.723-.255.125-.587.293-1.005.494a72.704 72.704 0 0 0 1.899-2.177 109.99 109.99 0 0 0-3.918 3.18c-.642.33-1.359.69-2.13 1.095a93.499 93.499 0 0 0 4.685-4.251s-1.498.798-3.84 2.171a89.345 89.345 0 0 0 2.011-2.825c.392-.364.786-.734 1.168-1.114 0 0-1.038.557-2.746 1.53.16-.23.245-.357.245-.357-.186.177-.368.354-.556.54a170.318 170.318 0 0 0-4.17 2.49c.178-.33.353-.636.52-.93a89.92 89.92 0 0 0 5.494-4.926c.26-.155.512-.311.77-.465 0 0-2.45.942-6.106 2.521.08-.165.144-.278.177-.356a147.619 147.619 0 0 0 5.629-3.352s-1.854.708-4.74 1.943c1.501-.756 3.016-1.537 4.518-2.349 0 0-4.423 1.45-10.349 3.75 3.114-1.425 6.386-3.011 9.61-4.749.515-.19 1.032-.377 1.553-.573 0 0-6.107 1.317-13.87 3.512 2.387-.748 4.939-1.576 7.579-2.49 2.09-.37 4.255-.777 6.473-1.24 0 0-1.387.083-3.718.267.906-.325 1.821-.663 2.734-1.008 0 0-2.012.435-5.19 1.22-4.826.433-11.887 1.214-19.089 2.5.078-.38.16-.764.246-1.149a285.88 285.88 0 0 0 24.047-3.208s-10.2.574-21.273 2.224a284.03 284.03 0 0 0 12.066-2.594c3.36-.25 7.068-.59 10.965-1.034 0 0-2.437-.109-6.214-.142.616-.156 1.23-.326 1.859-.486 1.24-.055 2.515-.118 3.805-.192 1.444.11 2.916.218 4.418.32 0 0-13.57-2.392-26.975-3.341.066-.146.125-.295.191-.444a1050.04 1050.04 0 0 0 27.334 2.186s-13.656-2.415-27.192-2.493c.224-.514.477-1.02.729-1.527 3.25.51 14.232 2.132 27.38 3.007 0 0-.547-.125-1.523-.318-.45-.144-1.324-.42-2.503-.784 1.363.194 2.765.38 4.187.56 0 0-3.329-.8-8.28-1.804-3.293-.987-7.273-2.132-10.837-3.04 3.125.604 7.188 1.303 11.16 1.713 2.295.574 4.744 1.155 7.296 1.712 0 0-1.705-.597-4.449-1.468.675.044 1.347.077 1.996.096 1.312.203 2.578.343 3.756.423 0 0-.489-.158-1.333-.423.108.003.22.003.325-.007l-1.118-.24c-.266-.08-.561-.173-.863-.27 1.038.234 2.095.468 3.17.694 0 0-11.573-3.918-23.122-6.368l-.423.037.102-.212c.026-.257.045-.51.066-.774.101-.109.207-.215.304-.326.012.682.024 1.055.024 1.055l.344-.722c.017-.156.026-.319.045-.475 2.083.67 13.106 4.143 26.713 7.183 0 0-13.06-4.41-26.076-7.34l-.625.023c.01-.069.014-.142.021-.203.252-.276.51-.543.776-.803.116.038.337.111.67.213a.614.614 0 0 0 .007.068l.024-.054c2.611.824 11.445 3.517 22.294 5.842.614.21 1.236.427 1.871.635 0 0-1.024-.49-2.743-1.265a43.98 43.98 0 0 0 3.875.437s-4.319-1.377-9.523-2.897a207.396 207.396 0 0 0-7.442-2.96c1.575.463 3.366.96 5.253 1.442 3.25 1.28 7.084 2.708 11.26 4.098 0 0-2.709-1.296-6.743-3.024.744.16 1.482.307 2.218.451 1.852.675 3.803 1.36 5.836 2.042 0 0-1.361-.656-3.595-1.648 1.496.234 2.94.411 4.28.5 0 0-4.922-1.571-10.571-3.198-3.235-1.333-6.962-2.773-10.715-4.036l-.83-.017s2 .935 5.326 2.33a94.103 94.103 0 0 0-2.583-.649c-.96-.347-1.92-.687-2.892-1.015.033-.342.087-.888.144-1.617.212-.132.432-.267.649-.399l.01.078.21.137-.19-.01s.132.064.347.16c-.026.003-.059-.009-.087-.01l-.597.804s3.798 1.298 8.787 2.658a227.312 227.312 0 0 0 12.991 4.785s-3.16-1.51-7.75-3.456c1.706.401 3.447.762 5.136 1.06a198.21 198.21 0 0 0 5.235 1.773s-1.231-.567-3.274-1.457c.894.125 1.762.232 2.592.305.533.174 1.06.354 1.6.529 0 0-.38-.178-1.071-.49.085.008.172.015.25.02 0 0-.255-.078-.703-.224a275.8 275.8 0 0 0-3.522-1.532c1.585.57 3.232 1.15 4.946 1.718 0 0-9.759-4.672-19.905-8.14.031-.297.069-.71.114-1.24.094-.043.2-.074.292-.121.021.156.038.302.062.458l.174.113-.432-.012s9.351 4.372 21.439 8.394c0 0-10.172-4.87-20.545-8.356.003-.137.02-.314.031-.548 2.892 1.256 11.269 4.792 21.493 8.125 0 0-2.147-.993-5.487-2.414 2.047.755 4.234 1.527 6.522 2.292 0 0-10.21-4.894-20.603-8.378l-.837-.016s1.568.724 4.21 1.85c-1.698-.62-3.448-1.24-5.201-1.813a46.54 46.54 0 0 1 1.677-.571c.005.007.002.005.007.005l.41.328.031-.135c2.286 1.008 11.09 4.797 21.993 8.35 0 0-3.045-1.417-7.546-3.282 1.847.68 3.812 1.379 5.89 2.085 1.069.46 2.158.923 3.284 1.392 0 0-.467-.271-1.293-.724.252.082.498.165.748.245 0 0-.604-.28-1.673-.757-3.392-1.865-10.221-5.48-17.218-8.428l-.231.052c.002-.016.026-.101.05-.25.794-.163 1.618-.3 2.458-.427.184.101.938.522 2.189 1.185-1.045-.3-2.097-.58-3.157-.822l-.875-.023s5.258 2.681 13.98 5.797a223.09 223.09 0 0 0 8.055 3.57s-1.493-.86-3.9-2.151c1.416.465 2.895.93 4.443 1.39 0 0-6.494-3.687-14.619-6.51a145.514 145.514 0 0 0-5.36-2.394l-.636-.061c.248-.03.481-.076.731-.104l.014.012s.007-.017.012-.017c.22-.028.45-.052.675-.075 1.653.73 9.565 4.183 19.756 7.632a230.26 230.26 0 0 0 4.022 1.735 75.27 75.27 0 0 0-1.736-.975c.07.018.137.044.215.068l-.857-.42c-3.441-1.886-10.167-5.436-17.05-8.335l-.316-.03c.474-.027.948-.046 1.434-.058 7.742 3.631 19.023 6.903 19.023 6.903-5.96-3.083-13.831-5.595-17.728-6.742 7.546 1.45 15.878 2.27 15.878 2.27-6.317-1.713-13.182-2.324-16.079-2.518 1.965-.184 7.073-.87 12.703-3.3 0 0-4.732.293-9.848 1.82a39.653 39.653 0 0 0 8.211-4.546s-6.619 1.732-11.99 5.561l-.168.333c-.075-.017-.146-.038-.214-.057.877-.958 4.246-4.888 6.793-11.243 0 0-4.463 4.745-7.032 11.047l.007.128c-.408-.113-.637-.168-.637-.168.21.1.425.2.64.307l.007.154a21.482 21.482 0 0 0-.927-.045c.471-.72 4.369-6.678 7.129-15.74 0 0-5.08 6.951-7.646 15.242l.403.495a40.2 40.2 0 0 0-2.896.031c.865-2.065 3.177-8.14 4.392-16.444 0 0-3.847 7.717-5.216 16.489-.264.016-.545.035-.823.059.528-1.704 2.427-8.39 2.864-17.572 0 0-1.29 3.524-2.333 8.49a80.36 80.36 0 0 0 .868-8.549s-.934 2.554-1.857 6.376a89.312 89.312 0 0 0-.077-6.895s-2.161 8.847-1.713 18.244l.165.13c-.41.052-.833.116-1.269.187.425-2.335 1.505-9.365 1.113-18.564 0 0-.526 2.174-1.019 5.515.055-1.542.088-3.161.073-4.856.029-.26.057-.515.08-.777l-.084.225c0-.111 0-.218-.003-.324 0 0-.085.333-.217.944-.521 1.471-1.616 4.79-2.611 8.982.224-2.92.368-6.305.307-10.016 0 0-2.407 9.634-2.362 19.905-.516.141-1.023.3-1.554.465.019-.317.033-.678.047-1.067.776-2.642 2.29-8.626 2.765-16.432 0 0-1.616 4.223-2.765 9.94a120.731 120.731 0 0 0-.998-12.438s-.04.371-.099 1.041c-.047-.7-.106-1.416-.165-2.134 0 0-.479 3.452-.757 8.508a140.626 140.626 0 0 0-.475-8.628s-1.514 10.941-.721 22.397c-.3.127-.604.26-.906.399.155-2.646.457-10.72-.904-20.985 0 0-1.17 10.54.194 21.313-.222.11-.444.224-.67.347.15-3.361.266-10.79-.956-19.982 0 0-.167 1.523-.302 3.996-.075-1.336-.17-2.717-.29-4.133 0 0-1.436 10.327-.788 21.42-.217.134-.431.276-.644.41.904-10.155.444-20.463.444-20.463-.941 9.522-.944 17.692-.899 20.756a31.4 31.4 0 0 0-.573.404c-.04-3.107-.217-6.197-.437-8.951.107-5.739-.08-9.993-.08-9.993a190.855 190.855 0 0 0-.41 4.8c-.31-2.845-.588-4.682-.588-4.682-.004 3.553.118 6.893.288 9.81a187.089 187.089 0 0 0-.203 10.064c-.15.118-.3.248-.455.37-.125-6.31-.79-12.451-1.182-15.676a89.67 89.67 0 0 0-.061-1.692c-.017.243-.045.481-.069.722-.11-.871-.188-1.367-.188-1.367.002 1.062.012 2.106.033 3.13-.175 2.03-.305 3.982-.404 5.814.026-4.452-.11-7.532-.11-7.532-.821 8.252-.928 15.49-.918 19.266-.097.107-.2.206-.295.307.642-9.3.116-18.358.116-18.358a160.034 160.034 0 0 0-.451 6.256c-.016-3.305-.11-5.458-.11-5.458-.81 8.146-.928 15.304-.923 19.116-.149.193-.307.37-.46.564.748-9.593.177-19.222.177-19.222a171.206 171.206 0 0 0-.368 4.936 150.762 150.762 0 0 0-.415-6.808s-.866 6.218-.946 14.187c-.491-8.462-1.59-15.45-1.59-15.45-.227 12.204 1.038 22.607 1.337 24.883-.063.09-.115.184-.17.276-.736-13.122-3.923-26.804-3.923-26.804.486 12.898 2.543 24.205 3.265 27.864a36.724 36.724 0 0 0-.91 1.657c-.673-13.285-3.956-27.366-3.956-27.366.037.93.08 1.849.134 2.755-.212-.982-.34-1.534-.34-1.534.493 12.98 2.57 24.356 3.28 27.94-.128.273-.255.56-.38.846l.009-.025c-2.491-12.327-7.167-24.97-7.167-24.97.902 4.53 1.928 8.776 2.919 12.475-1.869-6.234-3.534-10.72-3.534-10.72 2.585 12.937 6.187 23.59 6.864 25.547-.04.115-.09.215-.125.333-.05 0-.101.004-.15.007l-.824 1.133s.205.012.585.019c-.125.396-.252.807-.373 1.22-.132.007-.257.026-.391.04l.05-.193c-2.499-12.337-7.172-24.975-7.172-24.975 2.517 12.608 5.999 23.05 6.801 25.38l-.083.23c-3.488-11.957-8.723-23.507-8.723-23.507a200.23 200.23 0 0 0 2.578 8.51c-1.642-4.093-2.847-6.746-2.847-6.746.394 1.404.795 2.78 1.2 4.116l-.06-.092c-.064-.023-.13-.056-.199-.08-10.344-33.411-46.273-44.487-50.11-45.58.494-.011.978-.035 1.45-.054 0 0-.713-.101-1.92-.238-.017-.003-.036-.012-.055-.017l-.184-.283c-8.34-6.008-18.115-9.98-18.115-9.98 7.566 5.502 14.546 8.774 17.233 9.94-4.006-1.195-13.513-3.846-22.361-4.988 0 0 11.54 3.135 22.052 5.165-5.457-.593-16.504-1.584-24.96-.994 0 0 15.8 1.796 26.771 1.452.663.248 1.312.502 1.958.755l-.417-.113c-9.724-.071-19.28.677-24.185 1.138-.776.03-1.217.059-1.217.059.106.004.205.016.307.018-1.571.159-2.477.262-2.477.262 1.953.015 3.857.015 5.695-.002 14.328 1.055 25.521 1.006 27.843.987.66.295 1.313.597 1.953.902l-.887-.248c-2.564-.007-5.124.028-7.591.101-11.427-.758-20.665.262-20.665.262 2.166.23 4.237.42 6.225.588-3.415.295-5.531.533-5.531.533 4.062.04 7.888-.018 11.346-.12 12.305.732 19.78.25 19.78.25l-1.205-.399a92.74 92.74 0 0 0-4.421-.611c1.73-.144 2.817-.246 3.112-.28a97.048 97.048 0 0 1 7.834 4.184l-.92-.309a270.789 270.789 0 0 0-12.489-.71c6.417-.15 10.507-.34 10.507-.34l-1.847-1.001c-9.886-.078-19.594.698-24.418 1.156-1.505.017-2.368.045-2.368.045.356.026.705.06 1.057.083-1.175.12-1.838.196-1.838.196 1.585.012 3.138.016 4.652.023 2.883.206 5.636.376 8.214.503-6.32-.075-10.606.036-10.606.036 16.628 1.404 29.874 1.279 31.622 1.26.77.482 1.529.968 2.267 1.461-2.46-.193-4.92-.351-7.315-.472 3.758.01 5.947-.054 5.947-.054l-1.156-.39c-14.602-1.111-29.08-.547-29.08-.547 3.209.252 6.285.439 9.163.585-4.713-.016-7.742.06-7.742.06 15.07 1.267 27.364 1.288 30.834 1.267 6.504 4.423 11.609 9.23 15.612 14.191l-1.026-.436c-.354-.06-.72-.123-1.083-.187l-.672-1.079c-2.9-.623-6.898-1.241-11.132-1.796 5.812.083 9.39-.021 9.39-.021l-.113-.043c.416.038.651.055.651.055l-.761-1.211a97.6 97.6 0 0 0-2.034-.404c.92-.014 1.418-.026 1.418-.026l-1.154-.39a220.265 220.265 0 0 0-4.548-.297c-1.163-.177-2.368-.344-3.607-.517 4.714.043 7.537-.04 7.537-.04l-1.15-.39c-5.285-.4-10.54-.585-15.11-.658-7.915-.902-14.817-1.523-14.817-1.523a84.002 84.002 0 0 0 5.933 1.518c-3.163.036-5.095.114-5.095.114 2.87.224 5.623.396 8.232.535 1.022.201 2.053.388 3.081.567-5.709-.01-9.535.142-9.535.142 5.867.465 11.28.712 15.864.85 2.638.37 5.145.68 7.346.925-3.75-.17-7.339-.25-10.502-.279a686.482 686.482 0 0 0-13.366-1.355c1.687.505 3.5.966 5.379 1.39-2.433.043-3.881.1-3.881.1.901.068 1.786.137 2.663.193 17.115 3 30.714 4.21 32.148 4.334.432.54.854 1.079 1.262 1.622l-1.106-.43c-18.166-3.021-36.524-4.388-36.524-4.388 19.78 3.314 35.757 4.738 37.699 4.908a60.471 60.471 0 0 1 5.355 8.535l-.366-.179a380.134 380.134 0 0 0-4.977-1.187c2.944.292 4.795.427 4.795.427l-.754-1.206a38.92 38.92 0 0 0-.857-.18l-.559-1.152c-1.627-.486-3.63-1.003-5.824-1.522 3.741.38 5.92.543 5.92.543l-1.193-.503c-.257-.045-.519-.09-.778-.137.97.09 1.517.125 1.517.125l-.76-1.201a3.358 3.358 0 0 0-.267-.062l.163.017-1.21-.515c-16.102-2.854-32.38-4.055-32.38-4.055 1.501.269 2.975.521 4.422.764-.416-.04-.819-.077-1.182-.115-1.003-.177-1.58-.276-1.58-.276.145.056.296.108.443.167l-1.878-.172c1.64.484 3.394.94 5.213 1.35.906.298 1.83.586 2.77.869-3.855-.35-6.261-.508-6.261-.508 3.166.548 6.218 1.03 9.1 1.45-.01.288-.034.814-.046 1.555a403.648 403.648 0 0 0-10.078-1.723c1.989.496 3.933.968 5.824 1.412a304.937 304.937 0 0 0-3.496-.333c-1.375-.25-2.153-.383-2.153-.383 2.399.713 4.741 1.396 7.015 2.04.022.257.048.555.073.883-1.092-.255-2.052-.48-2.87-.661-.09-.203-.147-.319-.147-.319.01.1.036.194.05.288-1.868-.408-2.944-.64-2.944-.64l2.986.893c.1.597.203 1.178.312 1.76-.267-.056-.512-.11-.741-.165-.064-.158-.118-.313-.189-.481 0 0 .029.168.092.465-.69-.149-1.193-.253-1.498-.321-.068-.168-.132-.338-.21-.512 0 0 .036.184.116.495-.151-.03-.231-.05-.231-.05.078.027.15.043.236.07.165.736.526 2.24 1.075 4.241-.618-1.723-1.309-3.54-2.085-5.427 0 0 1.54 7.88 4.617 15.927-.151-.085-.3-.168-.446-.255-.904-3.279-2.81-9.553-5.841-16.687 0 0 .583 2.668 1.694 6.525a139.482 139.482 0 0 0-1.918-5.028 91.645 91.645 0 0 0-.724-2.705s.028.425.099 1.182c-.09-.205-.17-.41-.262-.62 0 0 .118.535.337 1.46.295 2.817.965 8.168 2.347 13.65-.217-.097-.44-.201-.66-.303-.49-1.82-1.38-4.912-2.701-8.72a111.295 111.295 0 0 0-2.036-8.521s.109 1.595.413 4.081c-.52-1.34-1.08-2.736-1.684-4.162 0 0 .802 3.702 2.333 8.683.4 2.4.931 5.08 1.637 7.768a57.731 57.731 0 0 1-.81-.323c-.695-2.663-2.686-9.752-6.187-17.98 0 0 1.944 8.953 5.548 17.739-.3-.113-.601-.224-.908-.338-1.897-9.647-6.195-18.56-6.195-18.56a94.68 94.68 0 0 0 .637 3.604c-.769-2.148-1.349-3.465-1.349-3.465.72 8.016 2.67 14.453 3.675 17.364-.306-.092-.615-.187-.922-.272-.925-9.395-4.95-18.504-4.95-18.504.803 8.956 3.148 15.948 3.992 18.242-.417-.11-.82-.214-1.229-.318-1.807-9.969-6.362-19.413-6.362-19.413.42 2.681.944 5.207 1.51 7.499-1.578-4.374-3.013-7.35-3.013-7.35.097.625.198 1.24.31 1.848-.237-.574-.376-.89-.376-.89a76.045 76.045 0 0 0 1.779 10.806c-2.82-4.921-5.867-8.521-5.867-8.521 2.491 6.756 5.843 11.904 7.46 14.168.108.337.214.646.31.923a93.322 93.322 0 0 0-2.045-.354c-2.446-8.907-7.803-17.188-7.803-17.188a74.335 74.335 0 0 0 2.817 8.65 87.7 87.7 0 0 0-5.436-7.684c-.316-.526-.504-.81-.504-.81.023.085.052.184.07.274-.096-.12-.155-.189-.155-.189.096.227.193.451.287.675.39 1.454.814 2.85 1.265 4.171-1.43-2.858-2.602-4.709-2.602-4.709 1.753 7.986 4.812 14.055 5.914 16.064a94.557 94.557 0 0 0-1.633-.116l.182-.111c-1.736-8.175-6.586-15.783-6.586-15.783a57.471 57.471 0 0 0 1.576 5.973c-2.074-3.282-3.864-5.458-3.864-5.458a61.727 61.727 0 0 0 3.135 7.332c-2.496-4.244-4.945-7.228-4.945-7.228 2.774 7.927 6.766 13.677 7.846 15.143-.36-.007-.696-.012-1.033-.021-3.84-7.568-10.528-14.135-10.528-14.135 3.536 7.157 7.905 12.35 9.483 14.12a76.115 76.115 0 0 0-3.616.066l.387-.439c-5.23-7.107-13.26-12.973-13.26-12.973 5.652 7.766 11.95 12.813 12.738 13.422-.472.024-.847.047-1.149.068l-.028-.134c.238-.097.486-.191.717-.288 0 0-.264.064-.745.167l-.024-.108c-4.737-5.387-11.47-9.362-11.47-9.362 4.712 5.424 9.873 8.727 11.218 9.537-.08.02-.165.037-.257.056l-.286-.283c-7.638-3.147-16.321-4.433-16.321-4.433a76.45 76.45 0 0 0 11.334 3.678c-6.744-1.162-12.712-1.263-12.712-1.263 7.596 1.919 14.135 2.36 16.645 2.46-3.567.257-11.977 1.007-19.44 2.693 0 0 10.2-.98 19.258-2.479-4.57 1.128-13.783 3.557-20.466 6.428 0 0 13.271-3.206 22.049-6.603a92.267 92.267 0 0 1 1.805-.007l-.39.04c-7.867 2.732-15.375 6.025-19.218 7.776-.637.257-.989.404-.989.404.09-.026.173-.05.258-.071-1.237.567-1.94.909-1.94.909 1.593-.55 3.133-1.103 4.615-1.646 11.875-3.326 20.905-6.576 22.776-7.256.278.012.573.024.856.04l.012.014.02-.011c.315.019.628.047.947.07l-.793.076a180.702 180.702 0 0 0-6.11 2.252c-9.447 2.715-16.642 6.126-16.642 6.126 1.816-.451 3.545-.904 5.2-1.348-2.688 1.194-4.332 1.987-4.332 1.987a276.404 276.404 0 0 0 9.153-3.352c10.146-2.988 16.05-5.493 16.05-5.493l-1.082.05a80.69 80.69 0 0 0-3.742.819c1.366-.604 2.21-1.003 2.444-1.102 1.076.078 2.133.177 3.17.285.064.125.102.196.118.22l-.3-.033c-8.013 2.783-15.65 6.144-19.423 7.872-1.215.444-1.904.706-1.904.706.295-.08.578-.156.87-.243-.914.432-1.431.682-1.431.682 1.288-.446 2.548-.883 3.772-1.324a347.12 347.12 0 0 0 6.8-1.985c-5.144 1.751-8.588 3.078-8.588 3.078 12.736-3.44 22.797-7.011 25.406-7.958l.064.118.438-.3c.762.137 1.508.286 2.244.437a240.65 240.65 0 0 0-6.034 1.74c3.029-1.067 4.781-1.737 4.781-1.737l-1.04.04c-12.118 3.361-23.663 7.938-23.663 7.938a316.352 316.352 0 0 0 7.56-2.193c-3.814 1.339-6.239 2.262-6.239 2.262 11.941-3.215 21.528-6.556 24.833-7.743.076.198.132.357.182.475-12.095 3.361-23.607 7.917-23.607 7.917 14.102-3.888 24.708-7.976 24.708-7.976l-.533.02.191-.105c-.012-.133-.03-.262-.042-.39.132.024.26.05.394.085.186.46.332.822.443 1.072-11.816 3.345-22.844 7.714-22.844 7.714 1.98-.543 3.883-1.098 5.706-1.64-1.649.58-3.007 1.078-3.984 1.435-.526.141-.821.214-.821.214.104-.007.205-.018.304-.02-.783.29-1.21.45-1.21.45.625-.168 1.248-.337 1.86-.507a93.72 93.72 0 0 0 3.165-.347c-2.33.835-3.727 1.364-3.727 1.364a299.4 299.4 0 0 0 6.102-1.704c2.031-.312 4.11-.68 6.14-1.081-5.25 1.834-8.822 3.248-8.822 3.248a297.732 297.732 0 0 0 15.05-4.585c5.89-1.338 10.31-2.582 10.31-2.582l-.947-.68c-.033.003-.07.01-.101.012l.391-.146-.23.004.226-.12a5.857 5.857 0 0 0-.007-.066c.301.104.61.215.905.32.25.631.449 1.11.574 1.403a223.42 223.42 0 0 0-3.355.968c-.988.2-2.01.425-3.062.654a205.639 205.639 0 0 0 6.077-2.193l-1.038.047c-4.38 1.209-8.672 2.582-12.378 3.84-6.657 1.592-12.415 3.124-12.415 3.124a84.035 84.035 0 0 0 5.213-.576c-2.54.932-4.085 1.546-4.085 1.546 2.38-.654 4.656-1.322 6.8-1.964a177.96 177.96 0 0 0 2.65-.463c-2.14.758-3.944 1.424-5.265 1.922-12.496 1.791-22 6.434-26.59 9.069 4.49-1.86 17.14-6.91 24.1-7.89 1.251-.1 2.556-.24 3.903-.42.113-.009.228-.02.342-.028-1.911.718-3.039 1.169-3.039 1.169.739-.213 1.465-.416 2.185-.62 1.255-.232 2.484-.459 3.687-.693a62.461 62.461 0 0 1 3.819-.007 168.3 168.3 0 0 0-3.475.874l-.104-.021a.614.614 0 0 0-.106.066l.373-.345-1.128.545c-.908.232-1.726.444-2.455.638.613-.557.943-.86.943-.86l-1.196.586c-.221.172-.44.351-.665.514-.512.135-.955.26-1.338.362.963-.864 1.482-1.332 1.482-1.332l-1.2.58c-.444.346-.895.693-1.338 1.035-.25.075-.387.108-.387.108.11-.016.22-.04.328-.063a316.389 316.389 0 0 0-3.201 2.542c2.646-2.354 4.149-3.758 4.149-3.758l-1.156.555c-12.12 9.435-23.026 19.819-23.026 19.819a403.897 403.897 0 0 0 5.695-4.504c-1.593 1.41-2.902 2.597-3.843 3.442-.521.403-.819.623-.819.623.107-.055.22-.114.328-.173a280 280 0 0 0-1.16 1.067 213.97 213.97 0 0 0 1.88-1.444 116.7 116.7 0 0 0 3.408-1.924c-2.238 2.013-3.569 3.246-3.569 3.246a424.756 424.756 0 0 0 6.098-4.766 204.186 204.186 0 0 0 6.438-4.145c-5.077 4.473-8.45 7.69-8.45 7.69a410.056 410.056 0 0 0 14.871-12.133 306.51 306.51 0 0 0 7.905-5.807c.061-.007.113-.019.177-.028-.142.106-.276.215-.415.32a1.41 1.41 0 0 1-.156.039c.038 0 .085 0 .118-.007-3.564 2.837-6.959 5.707-9.943 8.29-6.77 4.92-12.557 9.326-12.557 9.326 1.807-.942 3.697-2.02 5.626-3.172-2.434 2.221-3.897 3.602-3.897 3.602a353.122 353.122 0 0 0 6.775-5.373c.93-.587 1.854-1.185 2.78-1.78-4.455 3.952-7.347 6.707-7.347 6.707a409.308 409.308 0 0 0 12.925-10.481 301.132 301.132 0 0 0 6.341-4.516 355.592 355.592 0 0 0-8.37 7.115c-6.218 4.544-11.318 8.418-11.318 8.418a96.417 96.417 0 0 0 5.117-2.861c-1.871 1.718-2.959 2.761-2.959 2.761.746-.587 1.475-1.159 2.201-1.727a528.05 528.05 0 0 0 19.06-13.057c.418-.026.834-.056 1.249-.094-12.607 8.786-22.852 16.786-22.852 16.786a667.614 667.614 0 0 0 22.087-15.278c.68-.052 1.362-.101 2.03-.155-10.16 7.098-18.052 13.261-18.052 13.261a387.271 387.271 0 0 0 3.94-2.587c-.342.262-.677.512-.982.743-.896.588-1.417.923-1.417.923.153-.066.306-.134.46-.203-1 .749-1.58 1.197-1.58 1.197a100.582 100.582 0 0 0 4.967-2.783c.901-.434 1.812-.897 2.732-1.371-3.244 2.46-5.228 4.034-5.228 4.034a435.128 435.128 0 0 0 9.03-6.079c3.883-2.131 7.717-4.416 11.048-6.472.11.01.224.012.332.016a604.841 604.841 0 0 0-10.02 7.266c-6.23 3.99-10.338 6.768-10.338 6.768a385.081 385.081 0 0 0 5.475-3.152 695.997 695.997 0 0 0-2.958 2.231c-1.238.789-1.918 1.242-1.918 1.242a734.42 734.42 0 0 0 21.007-11.36c.264.084.521.159.786.242-.408.21-.807.432-1.206.646l-.665-.127c.191.061.38.116.576.175-.154.087-.31.17-.465.255a8.47 8.47 0 0 0-.297-.066c.085.028.172.06.252.09-10.497 5.695-18.015 10.322-18.015 10.322 6.444-3.35 12.488-6.53 17.784-9.338.285.106.564.203.85.309-1.289.734-2.523 1.447-3.712 2.131-.139-.104-.283-.214-.431-.33 0 0 .106.149.302.406-7.702 4.464-12.925 7.688-12.925 7.688 2.02-1.053 4.003-2.091 5.937-3.116.295-.12.58-.25.88-.366 1.678-.47 3.326-.934 4.947-1.397a604.32 604.32 0 0 0-6.133 3.052c-1.463.449-2.274.71-2.274.71l1.578-.356c-.488.26-.762.397-.762.397.43-.168.85-.338 1.267-.505 1.191-.27 2.366-.536 3.536-.805-.977.406-1.52.637-1.52.637.866-.295 1.723-.583 2.567-.883a69.856 69.856 0 0 0 1.81-.42c.235.236.493.496.792.79-.62.246-1.2.475-1.753.707-2.587.602-4.107.982-4.107.982.637-.083 1.274-.17 1.906-.26.048.042.102.085.15.125-.796.33-1.492.618-2.063.864-.205.059-.325.1-.325.1a.896.896 0 0 1 .18-.039c-1.202.496-1.87.786-1.87.786 1.183-.38 2.346-.767 3.492-1.147.33-.075.658-.153.993-.226.142.125.288.247.434.37-1.356.326-2.13.51-2.13.51.786-.104 1.574-.208 2.354-.321.272.227.538.441.807.663-.245.052-.384.078-.384.078.146-.01.29-.026.434-.038.375.3.747.6 1.12.895l-.807.17c-.552-.283-1.099-.564-1.658-.838 0 0 1.272.999 3.402 2.521-.149.019-.24.036-.24.036.098.002.2 0 .303.011.64.454 1.362.954 2.142 1.49-.47.057-.86.113-1.182.146a162.467 162.467 0 0 0-6.357-3.24s1.857 1.401 4.869 3.422a139.48 139.48 0 0 0-6.291-3.317s2.715 2.149 6.88 4.917c-.299.055-.488.083-.54.092a156.396 156.396 0 0 0-8.824-4.595s2.642 1.992 6.74 4.647c-1.798-1-3.752-2.044-5.825-3.09-.901-.63-1.845-1.27-2.814-1.904 0 0 .356.365 1.01 1.01-.248-.118-.491-.239-.741-.357 0 0 .528.397 1.47 1.07 2.448 2.36 7.248 6.758 12.872 10.698-.311.082-.61.16-.91.248a155.046 155.046 0 0 0-9.46-5.855 128.284 128.284 0 0 0-8.62-6.217s1.333 1.392 3.548 3.432a168.865 168.865 0 0 0-4.906-2.476s3.658 2.769 9.046 6.128c2.25 1.888 4.855 3.928 7.641 5.842-.361.116-.727.231-1.083.357-2.753-1.896-10.226-6.822-20.127-11.584 0 0 8.865 6.685 19.294 11.876-.393.137-.797.276-1.186.416-9.342-7.353-20.584-12.098-20.584-12.098a99.576 99.576 0 0 0 3.43 2.802c-2.447-1.36-4.053-2.101-4.053-2.101 6.893 6.812 13.828 11.175 17.088 13.044-.387.163-.774.326-1.149.496-8.157-7.92-19.26-13.063-19.26-13.063 7.69 7.61 15.446 12.159 18.08 13.601-.506.232-1.009.463-1.5.694-9.497-7.733-21.41-12.758-21.41-12.758 2.49 2.129 4.961 4.034 7.304 5.7-4.973-2.755-8.73-4.346-8.73-4.346.582.5 1.165.985 1.745 1.46-.68-.338-1.076-.522-1.076-.522a85.74 85.74 0 0 0 10.118 8.526c-6.667-2.252-12.533-3.104-12.533-3.104 7.725 4.209 15.107 6.248 18.496 7.027.378.23.718.423 1.031.604-.804.44-1.597.879-2.363 1.33-9.347-6.237-21.182-9.542-21.182-9.542a87.811 87.811 0 0 0 9.528 5.7 107.829 107.829 0 0 0-11.45-2.693 81.91 81.91 0 0 0-1.144-.344c.092.07.188.134.29.21-.198-.038-.31-.057-.31-.057.274.132.541.267.81.387a85.296 85.296 0 0 0 4.491 2.83c-3.654-1.482-6.277-2.242-6.277-2.242 7.933 5.951 15.709 9.074 18.386 10.037-.609.409-1.194.812-1.762 1.209l.101-.243c-8.046-6.135-18.843-9.23-18.843-9.23a66.684 66.684 0 0 0 6.19 4.232c-4.643-1.352-8.139-1.902-8.139-1.902a73.177 73.177 0 0 0 8.835 4.22c-5.813-1.9-10.613-2.667-10.613-2.667 8.93 5.066 17.425 7.14 19.66 7.627-.376.278-.727.548-1.076.814-9.738-3.88-21.616-4.523-21.616-4.523 9.104 3.74 17.56 5 20.538 5.352a106.074 106.074 0 0 0-3.647 2.988l.05-.715c-10.798-2.33-23.51-1.244-23.51-1.244 11.733 2.587 22.051 2.15 23.323 2.08a87.96 87.96 0 0 0-1.123.989l-.132-.095c.172-.285.351-.573.516-.847 0 0-.23.269-.634.753l-.111-.083c-8.976-1.135-18.905.65-18.905.65 8.983 1.19 16.787.054 18.78-.277-.061.08-.134.173-.21.265l-.519-.038c-10.217 3.283-20.087 9.119-20.087 9.119 5.756-1.825 10.767-4.006 14.409-5.777-7.782 4.384-13.967 9.126-13.967 9.126 9.247-4.383 16.262-9.277 18.911-11.215-3.45 3.137-11.467 10.635-17.81 18.226 0 0 9.677-9.156 17.792-17.872-3.815 4.733-11.37 14.437-15.997 22.494 0 0 11.116-13.696 17.473-23.94.616-.506 1.232-.98 1.843-1.464l-.368.356c-5.947 8.883-11.097 17.995-13.682 22.728-.451.748-.699 1.166-.699 1.166.066-.088.14-.18.213-.27-.826 1.528-1.29 2.415-1.29 2.415a281.325 281.325 0 0 0 3.45-5.264c9.6-12.678 16.334-22.977 17.723-25.128.298-.217.611-.439.911-.653.014 0 .019.002.019.002l.012-.024c.34-.248.677-.465 1.019-.7l-.748.703a253.877 253.877 0 0 0-4.52 7.027c-7.577 10.148-12.318 19.123-12.318 19.123a332.095 332.095 0 0 0 4.281-5.45c-1.823 3.273-2.897 5.341-2.897 5.341a375.512 375.512 0 0 0 6.785-10.507c8.077-10.964 12.189-18.05 12.189-18.05l-1.07.92a136.74 136.74 0 0 0-3.193 3.772c.932-1.66 1.5-2.705 1.651-2.99a148.29 148.29 0 0 1 3.456-2.298c.168.06.267.09.3.102l-.333.21c-6.058 9.053-11.29 18.344-13.824 22.992-.903 1.392-1.398 2.193-1.398 2.193.238-.307.471-.616.71-.928-.618 1.133-.946 1.78-.946 1.78.972-1.454 1.915-2.87 2.837-4.27a466.022 466.022 0 0 0 5.433-7.337c-3.916 5.781-6.43 9.787-6.43 9.787 10.398-13.476 17.937-24.918 19.874-27.897l.158.05.215-.628.007-.007a95.208 95.208 0 0 1 2.62-1.403 314.56 314.56 0 0 0-4.826 6.48c2.279-3.43 3.548-5.467 3.548-5.467l-1.03.873c-9.807 12.917-18.099 26.486-18.099 26.486a418.506 418.506 0 0 0 6.046-8.14c-2.875 4.313-4.64 7.132-4.64 7.132 9.738-12.636 16.975-23.478 19.438-27.248.231.128.418.222.55.29-9.79 12.894-18.049 26.415-18.049 26.415 11.432-14.999 19.131-27.356 19.131-27.356l-.523.446.104-.25c-.104-.11-.222-.215-.343-.324.16-.08.319-.165.48-.243.54.278.974.489 1.276.633-9.514 12.643-17.443 25.611-17.443 25.611a407.084 407.084 0 0 0 4.584-6.14 355.3 355.3 0 0 0-2.98 4.557c-.424.547-.667.856-.667.856.099-.09.196-.181.29-.269l-.892 1.407c.512-.668 1.02-1.326 1.522-1.978a144.46 144.46 0 0 0 2.963-2.885c-1.739 2.654-2.756 4.28-2.756 4.28a490.578 490.578 0 0 0 4.926-6.51 225.766 225.766 0 0 0 5.444-5.977c-3.96 5.946-6.524 10.143-6.524 10.143a419.118 419.118 0 0 0 11.875-16.41c4.984-6.003 8.544-10.731 8.544-10.731l-1.486.139c-.031.033-.066.066-.088.094.18-.292.283-.45.283-.45l-.23.19.136-.3a.29.29 0 0 1-.057-.051c.392-.144.784-.298 1.178-.432.736.38 1.302.656 1.656.824a263.575 263.575 0 0 0-2.683 3.611c-.856.992-1.733 2.021-2.627 3.08 2.885-4.307 4.526-6.941 4.526-6.941l-1.033.875c-3.538 4.662-6.879 9.41-9.707 13.573a838.271 838.271 0 0 0-10.287 12.93 111.972 111.972 0 0 0 4.878-4.755c-1.87 2.922-2.98 4.735-2.98 4.735a441.02 441.02 0 0 0 5.445-7.317c.788-.853 1.569-1.707 2.352-2.571-3.463 5.247-5.669 8.835-5.669 8.835a414.03 414.03 0 0 0 10.342-14.186 337.372 337.372 0 0 0 5.244-6.322 359.237 359.237 0 0 0-6.605 9.522c-5.11 6.327-9.252 11.654-9.252 11.654 1.448-1.31 2.94-2.759 4.444-4.296-1.446 2.264-2.269 3.617-2.269 3.617.597-.791 1.184-1.568 1.762-2.33 11.436-12.683 20.023-23.495 22.533-26.712l.07.01s-.018-.015-.046-.046c.318-.403.533-.672.641-.816a65.152 65.152 0 0 1 1.699-.33c.07.032.144.065.222.103l-.805.635c-13.597 15.294-25.9 31.537-25.9 31.537 14.237-15.979 24.848-29.535 26.837-32.106.16.085.323.16.493.239l1.092.082s-.328-.24-.939-.66c.222-.04.453-.086.675-.119.266.14.533.274.802.397l.318.023-.573.423c-12.194 13.476-23.08 27.878-23.08 27.878a977.056 977.056 0 0 0 3.328-3.706c-.292.356-.568.71-.82 1.031-.756.846-1.187 1.322-1.187 1.322.134-.106.273-.217.408-.33-.812 1.036-1.283 1.643-1.283 1.643a107.013 107.013 0 0 0 4.316-4.162c.798-.691 1.6-1.407 2.409-2.136-2.635 3.38-4.23 5.517-4.23 5.517 2.692-2.989 5.22-5.89 7.566-8.619 4.585-4.379 9.016-9.005 12.368-12.624-3.617 4.24-7.537 9.062-10.743 13.07-5.277 5.76-8.714 9.714-8.714 9.714 1.62-1.6 3.203-3.163 4.725-4.7-1.142 1.447-1.98 2.528-2.409 3.074-1.038 1.14-1.616 1.789-1.616 1.789 15.64-14.208 27.888-26.596 31.49-30.286.781.038 1.555.09 2.31.163-16.855 14.125-31.726 29.78-31.726 29.78a2592.942 2592.942 0 0 0 32.184-29.745c.219.024.429.045.641.069-15.89 14.51-30.671 30.061-30.671 30.061 1.778-1.619 3.522-3.212 5.215-4.77a835.836 835.836 0 0 0 4.957-3.857c.924-.555 1.856-1.091 2.757-1.636-4.692 3.944-7.64 6.545-7.64 6.545a703.02 703.02 0 0 0 14.663-10.778 721.75 721.75 0 0 0 11.424-7.11c-.042.14-.094.274-.134.42-12.573 8.855-22.47 16.494-22.47 16.494a759.446 759.446 0 0 0 22.01-15.094c-.12.368-.243.744-.359 1.12a680.761 680.761 0 0 0-13.457 9.684c-4.678 2.828-7.596 4.658-7.596 4.658 1.465-.741 2.904-1.49 4.34-2.236-3.078 2.309-4.892 3.709-4.892 3.709 3.194-2.035 6.27-4.03 9.218-5.984a620.218 620.218 0 0 0 11.191-6.072c0 .012-.002.017-.002.022-11.424 6.597-19.976 11.972-19.976 11.972.828-.427 1.656-.845 2.473-1.267a494.273 494.273 0 0 0 16.38-7.131c-9.528 4.77-16.395 8.49-16.395 8.49a361.799 361.799 0 0 0 7.792-3.271c-4.741 2.266-7.702 3.753-7.702 3.753a403.733 403.733 0 0 0 14.093-5.417c-7.927 3.703-13.38 6.442-13.38 6.442.457-.159.92-.336 1.382-.503a214.719 214.719 0 0 0 12.375-3.031c-.045.182-.1.359-.158.53-7.266 2.697-12.215 4.743-12.215 4.743 3.798-.79 7.655-1.73 11.446-2.75-.153.173-.3.347-.444.52-6.15 2.313-10.202 3.986-10.202 3.986a209.336 209.336 0 0 0 8.5-1.997c-.095.114-.194.227-.286.338-5.041 2.134-8.247 3.586-8.247 3.586 2.024-.531 1.998.925 3.085-.12.22-.237.37-.402.444-.494a5.354 5.354 0 0 1-.444.493c-2.98 3.182-19.06 19.411-39.911 42.717-36.88 41.215-88.686 104.553-109.322 156.96 14.409 21.931 27.966 6.989 27.966 6.989 27.55-55.74 66.792-113.981 94.816-152.968 20.176-28.072 34.536-46.165 34.536-46.165.728.857 2.257-3.074 2.215-2.85 0 0 .45-2.008.665-2.608l.064-.314c-.102.527-.206 1.053-.3 1.577-.142.451-.283.907-.43 1.346 0 0 1.404-3.185 3.492-8.213l.568-.727a411.501 411.501 0 0 0-3.156 9.591s1.274-2.922 3.215-7.565a475.554 475.554 0 0 0-2.793 7.624s2.173-4.598 5.233-11.456c.087-.033.174-.063.261-.092-1.448 3.74-2.899 7.587-4.302 11.473-.364.812-.722 1.624-1.088 2.436.003-.003 3.32-6.06 7.782-14.747.062-.028.125-.047.187-.07a935.12 935.12 0 0 0-2.873 6.128 630.694 630.694 0 0 0-5.145 9.102s1.205-1.794 3.196-4.851c-.64 1.407-1.28 2.825-1.913 4.26 0 0 1.571-2.872 4.003-7.49 1.477-2.299 3.194-5.006 5.058-7.992.323-.118.646-.239.967-.354a765.129 765.129 0 0 0-9.7 16.391s4.741-7.067 10.84-16.816c.29-.104.57-.21.849-.312a686.14 686.14 0 0 0-3.22 5.982 724.984 724.984 0 0 0-9.292 14.538s2.25-2.938 5.659-7.617c-.47.892-.942 1.808-1.409 2.724-1.087 1.603-2.203 3.241-3.33 4.92a1007.18 1007.18 0 0 0-4.124 5.214s12.675-13.972 24.882-29.318c.274-.106.538-.217.81-.323a2668.365 2668.365 0 0 0-25.34 31.697s13.559-14.95 25.762-31.745c.073.737.125 1.469.163 2.224-3.19 3.614-13.92 15.9-26.2 31.525 0 0 .56-.578 1.548-1.626.477-.442 1.409-1.285 2.661-2.448a507.971 507.971 0 0 0-4.055 4.74s3.416-3.47 8.4-8.78c3.485-3.247 7.66-7.213 11.34-10.87-3.13 3.376-7.138 7.826-10.931 12.41a524.06 524.06 0 0 0-7.467 7.634s1.85-1.622 4.787-4.294c-.623.805-1.25 1.608-1.845 2.4a115.169 115.169 0 0 0-3.607 4.32s.531-.479 1.427-1.3c-.092.137-.19.28-.276.41 0 0 .409-.436 1.135-1.196.28-.26.59-.538.899-.829a424.331 424.331 0 0 0-3.208 3.355s12.495-11.069 24.17-23.35l.363-.57.028.307c.111.255.23.505.347.753-.026.217-.061.437-.092.652-.38-.57-.585-.871-.585-.871l.076 1.048c.07.155.141.307.221.465-2.238 2.016-13.998 12.78-27.845 27.125 0 0 14.092-12.502 27.352-26.2l.54-.807c.04.075.071.144.095.207-.078.55-.172 1.096-.271 1.643-.118.116-.354.33-.71.652l-.045-.043.016.074c-2.788 2.547-12.165 11.25-23.15 22.77-.673.587-1.345 1.182-2.03 1.789 0 0 1.178-.855 3.14-2.33a107.292 107.292 0 0 0-3.72 4.454s4.636-4.206 10.113-9.385a336.006 336.006 0 0 0 8.273-6.75 323.851 323.851 0 0 0-5.49 5.307 389.755 389.755 0 0 0-12.31 10.533s3.118-2.259 7.678-5.816c-.753.783-1.494 1.577-2.225 2.37a348.14 348.14 0 0 0-6.355 5.542s1.576-1.147 4.114-3.07c-1.47 1.654-2.868 3.302-4.11 4.893 0 0 5.264-4.785 11.215-10.43 3.607-2.893 7.728-6.302 11.776-9.902l.762-1.024s-2.297 1.688-6.032 4.64a260.52 260.52 0 0 0 2.668-2.653c1.043-.892 2.09-1.805 3.138-2.73.156.337.394.863.736 1.56-.123.387-.246.764-.37 1.144-.015-.016-.029-.028-.055-.052l-.257.15.17-.232-.392.29c.031-.023.052-.061.083-.09l.104-1.435s-4.103 3.619-9.306 8.661a388.83 388.83 0 0 0-14.24 12.103s3.648-2.635 8.807-6.704a195.93 195.93 0 0 0-5.169 5.495 375.634 375.634 0 0 0-5.652 5s1.401-1.046 3.71-2.819a132.25 132.25 0 0 0-2.49 2.958l-1.715 1.541s.43-.318 1.215-.913a8.66 8.66 0 0 0-.224.29l.738-.673c.977-.75 2.328-1.789 3.954-3.059a360.401 360.401 0 0 0-5.322 4.665s11.269-8.158 22.233-17.837c.13.286.32.692.569 1.204-.064.154-.142.307-.208.463-.094-.102-.189-.21-.295-.319l-.207.123.389-.524s-10.743 7.912-23.755 19.531c0 0 11.743-8.507 22.936-18.452.062.125.146.297.255.51-3.272 2.53-12.687 9.937-23.649 19.823 0 0 2.451-1.805 6.195-4.75a378.586 378.586 0 0 0-7.065 6.145s11.792-8.535 22.993-18.502l.757-1.031s-1.774 1.31-4.749 3.645a312.64 312.64 0 0 0 5.629-4.908c-.387.852-.795 1.71-1.206 2.575-.004.003-.004.003-.007.003l-.545.233.04.147c-2.585 1.994-12.52 9.716-24.212 20.27 0 0 3.477-2.58 8.497-6.581a470.815 470.815 0 0 0-6.367 5.526c-1.21.94-2.448 1.91-3.706 2.9 0 0 .562-.342 1.548-.981-.27.24-.536.479-.805.724 0 0 .696-.521 1.902-1.435 4.045-2.627 12.118-8.052 19.98-14.25l.189-.333c.005.03.035.127.085.285a157.166 157.166 0 0 1-1.977 3.423c-.25.16-1.16.744-2.607 1.71a108.178 108.178 0 0 0 3.28-3.232l.792-1.07s-6.16 4.256-15.678 12.478a332.64 332.64 0 0 0-9.115 6.961s1.79-1.12 4.635-3.007a427.973 427.973 0 0 0-4.727 4.336s7.806-4.93 16.617-12.636a252.21 252.21 0 0 0 6.102-4.633l.604-.756c-.198.34-.391.675-.599 1.013l-.026.007s0 .007.007.026c-.184.295-.387.604-.568.904-1.862 1.421-10.814 8.33-21.814 18.072-1.479 1.126-3 2.309-4.564 3.546 0 0 .771-.484 2.097-1.348l-.243.22s.368-.253 1.016-.723c4.117-2.684 12.036-8.014 19.76-14.097l.304-.37c-.423.604-.838 1.215-1.265 1.831-8.903 6.541-20.78 17.794-20.78 17.794 7.001-4.782 15.42-12.45 19.53-16.307-7.551 8.156-15.475 17.837-15.475 17.837 6.589-6.41 13.071-14.428 15.782-17.874-1.67 2.627-5.888 9.576-9.632 18.64 0 0 4.08-6.139 7.85-13.799-1.516 3.565-3.385 8.477-4.92 14.08 0 0 5.01-9.718 7.79-19.686l-.034-.489c.08-.075.151-.15.229-.22-.276 1.927-1.203 9.478-.08 18.061 0 0 1.472-9.612.398-18.193l-.073-.106c.427-.406.665-.637.665-.637-.245.172-.488.352-.74.531l-.092-.123c.233-.285.512-.658.858-1.116-.047 1.227-.346 11.146 2.022 22.316 0 0 .845-12.256-1.293-22.533l-.63.073a87.242 87.242 0 0 0 2.586-3.63c.332 2.848 1.51 10.921 4.86 19.512 0 0-.666-11.383-4.138-20.577.229-.343.462-.694.7-1.065.444 2.132 2.329 10.202 6.839 18.561 0 0-.715-4.577-2.425-10.08a69.284 69.284 0 0 0 3.772 8.314s-.521-3.34-1.734-7.742a61.578 61.578 0 0 0 3.75 5.774s-2.797-10.236-8.232-17.721l-.217.106c.34-.564.689-1.142 1.04-1.737.87 2.523 3.67 9.867 8.936 17.234 0 0-.684-2.485-2.007-5.934a77.661 77.661 0 0 0 2.505 4.2c.113.252.233.504.354.757 0 0-.024-.102-.05-.297l.177.278s-.106-.394-.309-1.083c-.323-1.915-1.111-6.1-2.45-10.894a80.792 80.792 0 0 0 5.064 8.908s-2.991-11.222-8.525-19.944c.386-.755.761-1.534 1.134-2.325.163.295.34.614.536.96.714 3.228 2.566 10.231 6.315 17.483 0 0-.802-5.611-2.829-11.916 1.949 2.84 4.463 6.12 7.547 9.364 0 0-.163-.368-.467-1.015a71.6 71.6 0 0 0 1.288 1.62s-1.416-3.544-3.872-8.206a90.941 90.941 0 0 0 5.042 6.773s-4.499-11.234-11.338-20.03c.2-.488.394-.98.595-1.465 1.276 2.46 5.326 9.72 12.052 16.792 0 0-4.6-10.45-11.59-17.954.14-.373.279-.755.42-1.128 1.658 3.052 5.532 9.536 11.554 15.87 0 0-.663-1.516-1.873-3.8a85.34 85.34 0 0 0 2.482 3.17s-4.246-10.595-10.764-19.27c.125-.38.238-.772.36-1.152 4.63 9.804 10.55 18.037 10.55 18.037-4.248-9.31-8.622-16.285-10.301-18.856.103-.344.207-.7.301-1.053a91.016 91.016 0 0 0 5.178 7.096c2.977 5.038 5.426 8.44 5.426 8.44a129.485 129.485 0 0 0-2.203-4.613c1.807 2.049 3.031 3.264 3.031 3.264a113.982 113.982 0 0 0-5.508-8.018 141.955 141.955 0 0 0-5.209-8.845c.073-.293.147-.588.213-.886 3.488 5.229 7.38 9.662 9.466 11.921.6.876.953 1.37.953 1.37-.108-.24-.215-.463-.323-.702.568.607.894.935.894.935a102.42 102.42 0 0 0-1.696-2.634 144.771 144.771 0 0 0-2.748-5.465c2.359 3.831 4.126 6.284 4.126 6.284-3.683-8.066-7.457-14.383-9.5-17.598.038-.206.07-.418.108-.63 4.402 8.752 9.731 15.822 9.731 15.822a140.264 140.264 0 0 0-2.95-5.903c1.785 2.806 3.026 4.527 3.026 4.527-3.638-7.962-7.365-14.22-9.413-17.47.038-.347.078-.701.111-1.058 2.324 4.754 4.975 9.06 6.98 12.103.267.795.536 1.59.81 2.367l-.272-1.56a88.671 88.671 0 0 0 2.616 3.727c-.77-1.636-1.545-3.2-2.307-4.671a90.5 90.5 0 0 0 4.018 5.292s-1.302-3.239-3.565-7.6c-.148-.692-.32-1.457-.514-2.295.415.51.816.994 1.213 1.466.566 1.492 1.141 2.97 1.745 4.433 0 0-.245-1.19-.691-3.208.89 1.02 1.7 1.921 2.387 2.658.062.226.114.455.173.677 0 0-.034-.203-.083-.573a74.384 74.384 0 0 0 2.286 2.36c-.397-.66-.786-1.315-1.18-1.95-.059-.476-.266-2.037-.59-4.38.04.037.088.077.13.112.274 1.41.56 2.828.859 4.273 0 0-.094-1.393-.295-3.767.255.229.51.443.746.651.165.817.325 1.638.5 2.465.087.753.172 1.5.264 2.273 0 0-.003-1.523-.061-4.136.05.045.094.083.139.12.023 1.43.045 2.869.078 4.337 0 0 .113-1.492.259-4.053.066.054.123.106.189.156.104.932.212 1.867.328 2.83 0 0-.007-.923-.052-2.597.21.177.4.328.582.482-.002.774.005 1.558.01 2.353 0 0 .059-.807.141-2.228.413.337.734.585.96.762a452.318 452.318 0 0 0-.162 4.29s.448-3.227 1.014-8.26c.047.87.092 1.75.151 2.641-.14 1.679-.269 3.404-.396 5.16a828.246 828.246 0 0 0-.892 5.793s3.822-16.663 6.544-33.9c.115.128.224.258.342.385-.915 5.361-3.187 18.868-5.617 34.795 0 0 3.855-16.763 5.91-34.452.38.441.747.897 1.115 1.354-1.08 5.066-3.83 18.488-6.291 34.67 0 0 .181-.699.49-1.94a435.1 435.1 0 0 0 1.027-3.079c-.366 1.759-.722 3.567-1.085 5.41 0 0 1.165-4.18 2.731-10.468 1.31-4.056 2.852-8.968 4.133-13.415-.97 3.963-2.135 9.14-3.055 14.305a390.4 390.4 0 0 0-2.505 9.19s.75-2.088 1.89-5.473c-.137.897-.267 1.78-.37 2.644a79.137 79.137 0 0 0-.902 4.889s.205-.604.552-1.643a6.75 6.75 0 0 0-.04.434s.132-.519.375-1.43c.1-.326.215-.666.328-1.032-.34 1.303-.687 2.632-1.036 3.994 0 0 4.999-14.144 8.736-28.746l.03-.586.163.206c.073.04.153.082.234.13.11.21.23.415.349.627-.375-.134-.597-.21-.597-.21l.561.706c.13.07.265.14.399.217-.868 2.545-5.4 16.109-9.938 33.281 0 0 5.619-15.973 9.976-32.377l.063-.713c.241.468.475.94.703 1.421-.059.154-.127.38-.23.678l-.055-.012.042.047c-1.075 3.215-4.64 14.11-8.171 27.824-.269.753-.54 1.51-.81 2.285 0 0 .562-1.197 1.473-3.232a87.081 87.081 0 0 0-.934 5.033s1.797-5.316 3.833-11.748a284.514 284.514 0 0 0 3.583-8.956 268.704 268.704 0 0 0-1.974 6.539 345.422 345.422 0 0 0-5.105 13.662s1.489-3.17 3.538-7.99c-.24.93-.469 1.87-.7 2.797a355.375 355.375 0 0 0-2.578 7.136s.75-1.603 1.924-4.251a95.151 95.151 0 0 0-1.05 5.545s2.046-6.043 4.25-13.045c1.587-3.876 3.349-8.363 4.955-12.954l.14-1.11s-1.08 2.349-2.746 6.329c.325-1.11.634-2.196.93-3.23.43-1.166.855-2.336 1.27-3.514.34.196.942.526 1.76.953.085.295.177.579.253.874-.158-.036-.319-.066-.481-.102l-.142.23.03-.242s-.065.144-.186.402l.031-.102-.606-1.076s-1.64 4.634-3.52 10.835a361.552 361.552 0 0 0-5.937 15.752s1.743-3.706 4.052-9.19a170.285 170.285 0 0 0-1.634 6.506c-.741 2.037-1.5 4.18-2.26 6.394 0 0 .658-1.444 1.71-3.878a80.68 80.68 0 0 0-.632 3.369c-.229.646-.455 1.298-.68 1.964 0 0 .203-.451.564-1.273-.016.114-.035.217-.054.326 0 0 .11-.305.292-.857a405.694 405.694 0 0 0 1.79-4.138 303.55 303.55 0 0 0-2.15 5.975s5.373-11.46 9.775-23.849c.32.177.819.449 1.465.79-.03.067-.066.159-.113.26-.217-.042-.432-.087-.647-.122l-.122.184.07-.562s-5.052 11.021-10.219 25.824c0 0 5.61-11.958 10.064-24.646.108.052.257.132.453.229-1.477 3.442-5.69 13.44-9.983 25.985 0 0 1.146-2.517 2.816-6.48a331.17 331.17 0 0 0-2.868 7.9s5.621-11.993 10.084-24.705l.13-1.111s-.83 1.817-2.163 4.964a261.95 261.95 0 0 0 2.307-6.397c.172.09.37.184.59.29.08.741.162 1.492.226 2.252-.15-.059-.314-.125-.467-.184l-.08.097.014-.092s-.026.066-.075.177l-.34.436s.045.029.11.083c-1.186 2.712-5.666 13.2-10.251 26.573 0 0 1.632-3.574 3.852-8.933a390.79 390.79 0 0 0-2.6 7.115c-.545 1.277-1.099 2.59-1.658 3.928 0 0 .297-.531.804-1.48-.108.31-.212.614-.313.92l.875-1.973c2.066-3.897 6.128-11.81 9.634-20.173l-.005-.321c.021.016.278.212.738.533-.007.534-.009 1.072-.023 1.613l-.399.557s.064.047.146.104l-.014.03s.085.09.231.227c-.014.399-.02.784-.047 1.18l-.446.536s.147.142.394.37c-.026.352-.05.728-.08 1.091a10.249 10.249 0 0 0-.2-.14l-.069.07.102-.83s-4.534 10.16-9.486 24.182a276.61 276.61 0 0 0-2.057 4.816s.404-.73 1.085-2.01c-.033.095-.066.185-.099.275 0 0 .182-.366.498-1.027 2.104-3.975 6.074-11.742 9.514-19.942l.181-1.074s-1.552 2.884-3.873 7.639c1.425-3.6 2.84-7.505 3.954-11.248.103.113.221.257.365.417a95.709 95.709 0 0 1-.431 3.862l-.06.045.04.073c-.072.586-.155 1.171-.238 1.768-4.21 9.114-8.62 23.122-8.62 23.122 3.478-6.91 6.736-16.588 8.274-21.391-2.317 9.59-4.206 20.451-4.206 20.451 2.359-7.874 3.866-16.842 4.444-20.65-.118 2.687-.269 9.747.984 18.11 0 0 .427-6.423-.14-13.771.463 3.31 1.27 7.738 2.687 12.51 0 0-.519-9.439-2.996-17.923l-.266-.335c.028-.092.059-.18.085-.271.686 1.503 3.538 7.343 8.57 12.898 0 0-3.383-7.58-8.374-13.149z" transform="rotate(-17 3.604 514.568)"/>
</svg>
