<svg xmlns="http://www.w3.org/2000/svg" width="247" height="434" viewBox="0 0 247 434">
    <defs>
        <linearGradient id="a" x1="75.953%" x2="2.87%" y1="11.098%" y2="85.086%">
            <stop offset="0%" stop-color="#FF7902"/>
            <stop offset="100%" stop-color="#FF8901"/>
        </linearGradient>
    </defs>
    <path fill="url(#a)" fill-rule="evenodd" d="M349.028 247.363c.008.019.022.048.027.07-.03.061-.061.134-.09.2.018-.085.04-.168.063-.27zm.68-15.16l-.517.69-.056-1.762s-1.82 3.812-4.558 9.87a304.039 304.039 0 0 0 3.935-10.55c.294.222.808.597 1.524 1.09.006.263.003.52-.002.774-.107-.032-.22-.077-.327-.112zm-.717-5.16l.045-.359.19.14-.2.22s.302.31.86.838c.046.701.08 1.409.1 2.121-.386-.155-.773-.308-1.164-.46.089-.247.174-.493.26-.745l.166-1.313s-1.032 2.315-2.669 6.285a283.533 283.533 0 0 0 2.412-6.727zm.064-5.176l.037-.297c.065.032.115.062.185.096.008.083.024.167.035.258-.086-.014-.169-.038-.257-.057zm-5.66-19.35l.038-.675c.117.25.238.498.347.745-.147-.027-.278-.056-.385-.07zm-3.922-7.565l-.708-.991c.016-.091.04-.164.056-.252.085.131.171.262.254.386l-.003.002.01.022c.37.544.715 1.098 1.06 1.658-.286.844-.923 2.706-1.792 5.387.466-2.322.861-4.444 1.123-6.212zm-20.492 15.605a126.655 126.655 0 0 0-2.214-3.188c-.147-.648-.307-1.324-.47-2.03.387.382.77.76 1.147 1.124.497 1.372 1.01 2.74 1.537 4.094zm4.446-17.788c-.05-.649-.104-1.305-.16-1.967.141.075.286.148.422.223-.014.626-.03 1.27-.035 1.918a5.6 5.6 0 0 1-.227-.174zm-8.323 7.672c-.104-.431-.219-.879-.326-1.326.075.083.147.163.222.241.166.504.337 1.005.5 1.506-.128-.14-.26-.279-.396-.421zm10.085 8.326c-.008 1.198-.011 2.406-.014 3.63-.227-.308-.46-.613-.695-.921-.032-.986-.067-2.12-.125-3.395.302.242.577.475.834.686zm16.402-49.402c-.367 0-.728.008-1.091.008 1.92-1.5 3.77-3.105 5.489-4.691-2.41 2.43-3.957 4.174-4.398 4.683zm-38.082 50.2c-.139-.152-.254-.273-.337-.374l.56-.877c-.076.416-.148.828-.223 1.252zm31.245-49.756l.04-.002.386-.391c.074.09.157.187.259.302-.23.027-.463.065-.685.091zm-11.61.193c.237-.324.486-.653.716-.972.257-.153.508-.292.74-.432-.026.057-.058.126-.09.185-.466.41-.917.81-1.367 1.22zm6.996-13.767c-1.07.547-2.157 1.106-3.238 1.677.118-.225.206-.407.27-.53.979-.386 2.003-.812 3.059-1.257l-.091.11zm-12.528 7.737c.163-.003.251-.003.251-.003a4.567 4.567 0 0 0-.27-.059 225.838 225.838 0 0 0-3.5-7.937c.02-.199.049-.402.076-.598.016.016.05.04.05.04l-.045-.11c.013-.11.03-.235.048-.353a263.444 263.444 0 0 0 2.858 5.96l-.345.416s.169-.06.476-.164c.406.82.773 1.538 1.077 2.133l-.16.23s.08-.043.227-.104c.187.361.342.667.484.924l-.377.522s.067-.034.206-.083c-.139.266-.27.536-.396.796-.216-.539-.438-1.074-.66-1.61zm-9.75-2.816c-.035-.096-.075-.19-.11-.281.136.12.273.238.406.348-.098-.024-.197-.043-.296-.067zm-17.969 11.375c.008-.056.024-.11.032-.163.04.061.08.123.107.182l-.139-.019zm-4.066-.337c.067-.276.128-.55.187-.823.037.035.067.078.096.118-.072.228-.144.466-.222.7l-.061.005zm16.562-22.153c.01-.053.03-.099.046-.15.066.07.141.132.205.19-.029.051-.056.097-.077.145-.062-.067-.12-.123-.174-.185zm-5.713 5.972c-.019-.086-.054-.169-.075-.257l.46.09-.522-.345-.008-.01c.16-.362.33-.761.495-1.169.283-.035.556-.061.82-.096.006.05.017.107.028.16a82.555 82.555 0 0 0-.56 1.627h-.638zm-16.96 8.02c.32-.037.643-.074.97-.099 1.245 1.9 2.587 3.834 4.015 5.733-.107.311-.206.638-.313.976a36.61 36.61 0 0 0-.371 1.05 131.745 131.745 0 0 0-4.302-7.66zm-.469 7.678c-1.115-1.352-3.275-3.881-6.296-7.035.757-.067 1.51-.136 2.26-.206 1.66 2.473 3.48 4.983 5.416 7.362l.034.016c-.47-.054-.949-.1-1.414-.137zm21.476-41.716c.444.257.885.517 1.308.769-.203.345-.423.728-.663 1.149-.377-.233-.757-.472-1.126-.705.16-.399.318-.811.481-1.213zm-14.741 35.766c-.217-.367-.444-.744-.674-1.13.152.045.318.104.465.145.107.211.214.42.318.64a7.567 7.567 0 0 0-.11.345zm23.682-30.558a197.382 197.382 0 0 0 1.51 3.016l-1.21-.804a207.85 207.85 0 0 0-1.84-3.094c.558.316 1.064.603 1.54.882zm-29.997 16.84c.067-.02.142-.03.211-.049.1.03.193.049.286.075.022.043.04.089.056.137-.184-.056-.374-.115-.553-.163zm-23.917 23.526c-.11-.11-.244-.236-.41-.388.434-.091.862-.177 1.287-.27l-.877.658zm-13.197 4.169l-.318.262c-.57.742-1.128 1.495-1.687 2.25a289.268 289.268 0 0 0-6.542 7.568c4.083-5.941 6.435-9.646 6.435-9.646l-1.213 1.047c-4.874 6.354-9.46 12.851-13.165 18.27-1.32 1.645-2.582 3.215-3.732 4.662 9.846-13.419 16.15-23.315 16.15-23.315l-1.197 1.029.126-.3-.276-.228c1.58-.715 3.152-1.372 4.7-1.983.305.159.543.292.72.384zm-39.137 28.812c3.205-5.444 5.2-9.109 5.644-9.937a165.19 165.19 0 0 1 4.026-3.035c.048.008.09.014.139.014-3.422 4.088-6.79 8.626-9.81 12.958zm73.053-79.932c-.05-.466-.115-1.042-.195-1.717.032.034.07.077.107.12.096.595.2 1.19.313 1.79a3.871 3.871 0 0 0-.225-.193zm-.4-3.285c-.129-.913-.276-1.934-.466-3.072.043.048.088.11.131.158.12.98.252 1.969.39 2.963-.02-.02-.04-.033-.056-.049zm-15.956 18.83c-.064-.005-.128-.018-.195-.026.211-.11.42-.233.628-.343.08.013.16.032.23.048a50.6 50.6 0 0 1-.663.322zm17.846-38.47c-.033-.133-.051-.264-.086-.406 0 0-.01.142-.019.396-.406-.043-.807-.083-1.203-.126l-1.179-.22c-.123-.605-.26-1.224-.393-1.837.388.056.778.11 1.169.171 6.234 1.661 12.624 3.014 17.56 3.968-5.169-.734-10.898-1.407-15.85-1.945zm-2.861 13.64c-.072-.384-.152-.788-.233-1.187.16.131.326.257.492.388.024.346.054.697.086 1.04-.112-.078-.24-.164-.345-.242zm-.537-2.685c.232.148.457.3.684.456.019.225.032.45.05.688-.2-.14-.387-.262-.571-.383-.048-.244-.11-.506-.163-.76zm-6.182 7.413c-.139-.533-.318-1.15-.513-1.822.235.638.476 1.289.727 1.932-.07-.038-.141-.073-.214-.11zm-15.88 18.75c-.142-.006-.27-.008-.393-.008.289-.204.572-.4.855-.6.137.027.276.061.412.088-.291.177-.588.343-.874.52zm-10.919-9.213c-.037-.003-.061.01-.099.021-.524.097-.917.164-1.176.212.035-.03.075-.064.112-.1.428-.077.858-.155 1.286-.235-.045.032-.083.067-.123.102zm14.114-13.24c-.698.188-1.404.392-2.094.595-2.262.42-4.865.96-7.568 1.557 5.32-1.768 8.52-2.963 8.52-2.963l-1.224.056c-5.99 1.626-11.879 3.493-16.718 5.114-1.583.389-3.088.766-4.478 1.115 12.376-3.66 20.947-6.867 20.947-6.867l-1.216.051.219-.128c-.011-.107-.035-.204-.048-.303 1.288.362 2.534.74 3.743 1.139.096.27.176.474.232.621l-.315.014zm-12.047-3.445c-2.16.582-4.307 1.2-6.393 1.827 3.316-1.127 5.422-1.904 5.9-2.076.124.016.255.046.378.06.077.096.126.15.126.15l.13-.116c.04.013.094.019.132.027.018.037.04.075.064.11l-.337.018zm31.587-35.635a261.59 261.59 0 0 0-7.68-.517c4.05.056 6.638.021 7.234.016.444.265.895.525 1.329.793l-.883-.292zm52.674 51.007a41.596 41.596 0 0 1 1.858-2.853c.01.624.03.965.03.965l.39-.815c.018-.281.045-.552.072-.828.152-.2.304-.407.465-.605.003.126.013.195.013.195l.262-.549c.209-.265.428-.52.647-.785.003.215.006.4.006.55l-.214.026s.04.014.12.035c-.07-.01-.144-.019-.209-.032l-.681.914s.427.147 1.192.399c-.2-.051-.404-.097-.604-.142l-.984.08s1.767.6 4.799 1.522c-1.805-.252-3.444-.434-4.78-.523l-.514.927c-.238-.04-.467-.08-.692-.126l-.68.917s1.5.511 3.875 1.245c-1.348-.2-2.706-.39-4.064-.562l-.307.045zm6.611-8.32c.016.208.043.385.056.524l-.66.06c.198-.196.393-.392.604-.585zm19.872-9.937l.292.217-1.246.281s3.264 1.602 8.384 3.957a212.318 212.318 0 0 0-8.697-3.164c.05-.243.118-.594.203-1.055.356-.089.711-.158 1.064-.236zm-5.924 57.126a379.499 379.499 0 0 0 6.14 10.354c.383.726.774 1.468 1.18 2.216-2.58-3.954-5.604-8.383-8.844-12.739.505.049 1.013.1 1.524.17zm11.36 3.046c.141-.059.272-.115.409-.177.238.086.47.174.716.268-.366.161-.561.255-.561.255l.903.05c.083-.018.158-.056.241-.074.358.136.722.286 1.085.439-.147.096-.221.147-.221.147l.542-.013c.321.14.642.29.97.437a.372.372 0 0 1-.055.018l.117.011c.51.236 1.019.469 1.53.72-.255.137-.506.271-.754.41l-.383-.474s.115.378.366 1.083l-.002.005a62.55 62.55 0 0 0-.877-1.444l-1.166-.252s.08.174.217.488l-.062-.075s.904 2.767 2.575 7.209c-1.61-3.094-3.206-5.996-4.5-8.045l-1.037-.222a29.222 29.222 0 0 1-.43-.756l.377-.008zm-12.972 16.38a.087.087 0 0 0-.038 0c-.136-.09-.243-.161-.369-.25.134.089.278.166.407.25zm9.43.658c.355.391.692.772 1.05 1.168-.313-.01-.623-.032-.938-.053-.228-.292-.5-.632-.803-1.016.246-.04.479-.072.69-.099zm-6.901 66.13l-.12-.045c.176-.566.267-.89.267-.89-.134.274-.265.56-.404.847l-.072-.027c.072-.316.16-.713.254-1.19 1.024 1.646 6.023 9.388 13.851 16.65 0 0-5.857-10.378-13.423-17.464l-.321.244c.12-.608.246-1.307.366-2.103.904 1.452 5.935 9.342 13.913 16.735 0 0-6.325-10.107-13.835-17.182l.17-1.23c2.164 2.392 7.428 7.83 14.713 12.543 0 0-6.526-8.476-14.538-13.947.04-.356.077-.718.115-1.103 2.144 1.936 7.94 6.804 15.931 10.627 0 0-3.165-3.303-7.764-6.786a66.684 66.684 0 0 0 8.06 4.587s-2.304-2.406-5.827-5.27a63.708 63.708 0 0 0 6.646 2.537s-7.855-6.416-16.752-9.443c.024-.488.048-.97.059-1.471 2.7 1.835 8.873 5.655 16.974 8.34 0 0-2.006-1.637-5.136-3.681a77.222 77.222 0 0 0 4.6 1.958c.266.15.525.305.79.445l-.206-.215c.107.043.214.08.318.124 0 0-.313-.26-.885-.71a100.227 100.227 0 0 0-8.189-7.394 83.727 83.727 0 0 0 9.56 4.316c.003-.003-8.378-6.95-17.92-10.915a93.241 93.241 0 0 0-.19-2.47l.166.075c2.406 2.186 7.924 6.797 15.367 10.52 0 0-3.788-4.071-9.1-8.01a82.426 82.426 0 0 0 12.121 3.269s-.353-.206-.994-.563a44.81 44.81 0 0 0 2.085.571s-3.267-2.06-8.106-4.439a97.176 97.176 0 0 0 8.427 2.625s-9.815-6.201-20.672-9.486a60.759 60.759 0 0 0-.24-1.388c3.101 1.493 10.34 4.616 19.58 6.339 0 0-9.533-5.575-19.864-7.764-.064-.324-.136-.648-.206-.967 3.473 1.597 10.24 4.335 18.688 5.913 0 0-1.46-.852-3.842-2.015 1.313.402 2.663.798 4.07 1.157 0 0-9.409-5.95-19.988-9.266a42.02 42.02 0 0 0-.312-1.048c9.488 5.13 19.14 8.305 19.14 8.305-8.604-4.868-16.178-7.962-19.41-9.197-.118-.356-.236-.704-.35-1.055 2.865 1.074 5.718 1.945 8.298 2.641 5.52 2.376 9.66 3.732 9.66 3.732a176.816 176.816 0 0 0-4.575-2.475c2.8.627 4.614.919 4.614.919a122.743 122.743 0 0 0-9.507-3.352 145.67 145.67 0 0 0-9.44-4.09 35.49 35.49 0 0 0-.331-.855c6.053 2.205 12.017 3.557 15.156 4.179 1.021.367 1.623.563 1.623.563-.23-.126-.458-.247-.69-.378.845.155 1.347.244 1.347.244a92.763 92.763 0 0 0-2.975-1.147 149.227 149.227 0 0 0-5.593-2.877c4.285 1.755 7.288 2.735 7.288 2.735-8.048-4.549-15.172-7.539-18.715-8.92-.11-.229-.23-.443-.347-.668 8.988 4.694 18.075 7.456 18.075 7.456a138.113 138.113 0 0 0-5.972-3.095c3.197 1.246 5.298 1.94 5.298 1.94-8.202-4.635-15.436-7.648-18.91-9.004-.221-.375-.46-.75-.697-1.136 9.384 5.109 19.362 8.147 19.362 8.147a140.79 140.79 0 0 0-4.73-2.486 92.929 92.929 0 0 0 6.66 2s-5.853-3.696-13.512-6.895c8.234 2.521 15.132 3.54 15.132 3.54-13.253-5.71-24.626-7.628-24.626-7.628l.682.916c.265.108.537.22.81.335-.358-.096-.72-.2-1.08-.3l-.118.177a76.029 76.029 0 0 0-1.267-1.798c13.068 4.29 27.636 4.748 27.636 4.748-14.357-4.841-27.034-5.757-28.454-5.849-.265-.342-.53-.688-.797-1.023l-.203-.938s-.048.183-.12.528c-.487-.6-.992-1.208-1.51-1.805v-.145l.259.375c.248.075.505.155.754.238l.385.544c13.14 4.367 27.873 4.82 27.873 4.82-.9-.3-1.793-.584-2.678-.866.986.062 1.545.08 1.545.08-5.59-1.883-10.93-3.171-15.448-4.047a240.32 240.32 0 0 0-4.261-2.382c.478-.008.957-.021 1.436-.037 1.716.664 3.446 1.299 5.17 1.883 0 0-1.289-.75-3.443-1.95.989-.046 1.943-.107 2.866-.166.369.123.732.27 1.096.388.334.177.663.354.997.525l-1.393-.967c.513-.045 1.01-.083 1.5-.123.235.123.47.244.7.367 0 0-.205-.14-.542-.378l.599-.056c.048.024.09.05.13.075l-.101-.078c.535-.053 1.05-.102 1.545-.158.187.131.37.268.554.4l-.46-.408c.072-.005.141-.016.208-.024l.578.517s-.174-.185-.476-.522c1.128-.124 2.133-.252 2.97-.357.185.185.364.373.55.56 0 0-.16-.206-.454-.576.308-.043.583-.077.84-.118a676.456 676.456 0 0 0 3.018 4.075s-.968-1.567-2.612-4.13a52.724 52.724 0 0 0 1.286-.2c1.024 1.389 2.078 2.798 3.147 4.239 0 0-5.069-8.192-12.173-17.737.321-.132.49-.212.49-.212-.19.038-.377.075-.564.107-.319-.428-.647-.86-.976-1.294.26-.102.398-.171.398-.171-.158.027-.31.056-.462.088a272.509 272.509 0 0 0-3.243-4.192l.066-.04a.423.423 0 0 0-.082.024c-.698-.871-1.401-1.744-2.115-2.618.63.022 1.264.054 1.898.1 2.05 3.195 9.042 13.943 18.351 26.414 0 0-.315-.557-.888-1.535-.222-.466-.647-1.377-1.232-2.607a541.818 541.818 0 0 0 2.719 4.083s-1.853-3.381-4.77-8.334c-1.655-3.4-3.7-7.501-5.625-11.126 1.861 3.118 4.36 7.118 7.04 10.94a341.46 341.46 0 0 0 4.095 7.381s-.788-1.8-2.125-4.67c.473.638.957 1.27 1.444 1.882a65.305 65.305 0 0 0 2.51 3.632s-.24-.517-.658-1.393c.091.105.177.201.254.295 0 0-.23-.41-.65-1.136-.13-.27-.27-.565-.411-.873.586 1.042 1.198 2.105 1.815 3.18 0 0-5.435-12.163-12.14-23.739l-.366-.385.27.018c.24-.077.484-.152.732-.23.169.05.345.104.514.153-.591.267-.904.423-.904.423l.896.043c.147-.043.299-.089.451-.14 1.014 2.181 6.42 13.666 14.189 27.374 0 0-6.163-13.727-13.566-26.838l-.505-.57a1.62 1.62 0 0 0 .2-.062c.439.137.867.273 1.292.418.067.123.168.356.334.696-.035.025-.056.033-.056.033l.067-.006c1.28 2.73 5.692 11.895 11.966 22.785.289.65.586 1.307.883 1.974 0 0-.356-1.125-.99-3.008a64.158 64.158 0 0 0 2.583 3.748s-2.104-4.517-4.759-9.889a224.414 224.414 0 0 0-3.117-7.99 194.789 194.789 0 0 0 2.767 5.39 249.854 249.854 0 0 0 5.042 11.945s-.944-2.993-2.516-7.365c.423.742.856 1.484 1.294 2.208a246.279 246.279 0 0 0 2.693 6.17s-.474-1.504-1.308-3.936a67.707 67.707 0 0 0 2.834 4.139s-2.393-5.138-5.293-10.968c-1.321-3.488-2.912-7.474-4.687-11.407l-.623-.78s.711 2.192 2.043 5.787c-.476-.9-.947-1.784-1.401-2.62-.436-1.018-.88-2.038-1.337-3.048.326-.102.845-.255 1.53-.483.285.15.563.303.847.458-.016.014-.04.017-.067.03l.043.241-.137-.166s.046.134.126.378a1.62 1.62 0 0 0-.056-.089l-1.158-.249s1.77 3.994 4.395 9.103a263.834 263.834 0 0 0 5.775 13.813s-1.099-3.49-2.914-8.455c.96 1.72 1.97 3.461 3.01 5.136a261.188 261.188 0 0 0 2.457 5.497s-.443-1.348-1.227-3.566a73.023 73.023 0 0 0 1.722 2.51c.243.558.5 1.115.76 1.677 0 0-.134-.42-.388-1.176.053.08.11.164.168.239 0 0-.123-.265-.345-.726-.32-.938-.78-2.24-1.34-3.802a252.937 252.937 0 0 0 2.273 5.181s-3.393-10.774-8.13-21.442c.278-.083.674-.212 1.179-.367.104.075.214.158.32.233-.12.07-.237.137-.35.223l.027.198-.32-.397s3.35 10.277 9.087 22.959c0 0-3.527-11.228-8.432-22.128.128-.035.299-.097.507-.169 1.115 3.145 4.439 12.208 9.36 22.905 0 0-.772-2.352-2.085-5.953.901 2.16 1.906 4.466 2.984 6.859 0 0-3.548-11.268-8.46-22.174l-.622-.777s.548 1.696 1.596 4.56a222.66 222.66 0 0 0-2.388-5.468c.591.428 1.19.876 1.781 1.337.005.005.005.008.005.008l.03.5s.05-.005.133-.02c.867 2.485 4.305 12.033 9.56 23.445 0 0-1.1-3.335-2.91-8.17a318.581 318.581 0 0 0 2.673 6.177c.414 1.168.853 2.358 1.3 3.571 0 0-.118-.528-.356-1.462.128.262.246.517.363.784 0 0-.216-.664-.62-1.827-.96-3.83-3.037-11.5-5.815-19.068l-.227-.201a2.65 2.65 0 0 1 .267-.04c.754.67 1.505 1.374 2.254 2.1.05.233.27 1.1.639 2.472a70.409 70.409 0 0 0-1.703-3.225l-.655-.817s1.676 5.87 5.652 15.11c.88 2.689 1.89 5.638 3.037 8.76 0 0-.393-1.699-1.096-4.402.679 1.479 1.398 3.016 2.181 4.618 0 0-1.743-7.375-5.5-15.942a161.123 161.123 0 0 0-2.015-5.859l-.438-.616c.219.22.435.42.657.64v.027s.008-.003.024-.005c.193.198.39.399.578.594.623 1.785 3.665 10.387 8.456 21.097a274.936 274.936 0 0 0 1.57 4.388s-.169-.728-.482-1.988c.032.075.072.161.11.239 0 0-.104-.351-.292-.973-.991-3.9-3.037-11.423-5.772-18.862l-.21-.303c.384.432.766.868 1.149 1.308 2.753 8.521 8.536 20.164 8.536 20.164-1.866-6.663-5.705-14.882-7.678-18.903 4.508 7.51 10.175 15.509 10.175 15.509-3.342-6.473-8.063-13.033-10.11-15.782 1.678 1.757 6.199 6.202 12.626 10.475 0 0-3.882-4.249-9.135-8.388a73.739 73.739 0 0 0 10.263 5.853s-6.593-5.457-14.062-8.98l-.42-.023a4.517 4.517 0 0 0-.115-.228c1.532.46 7.555 2.095 15.052 2.047 0 0-7.574-2.337-15.068-2.347l-.11.059a35.51 35.51 0 0 0-.329-.646c.067.23.142.466.222.71l-.133.059c-.171-.233-.396-.52-.677-.876 1.01.177 9.205 1.522 19.252.662 0 0-9.98-2.069-19.206-1.321l-.123.56a57.3 57.3 0 0 0-2.254-2.663c2.484.013 9.58-.134 17.765-2.133 0 0-9.702-.653-18.43 1.388-.22-.24-.452-.482-.677-.734 1.909-.158 9.224-.924 17.57-3.97 0 0-4.037.129-9.151 1.031a69.926 69.926 0 0 0 8.084-2.41s-2.943.101-6.988.682a68.744 68.744 0 0 0 5.962-2.662s-9.403 1.336-17.295 5.288l.021.2a65.013 65.013 0 0 0-1.136-1.1c2.369-.483 9.355-2.138 17.108-5.956 0 0-2.289.33-5.57 1.117a84.474 84.474 0 0 0 4.268-1.74c.248-.073.492-.15.743-.223 0 0-.093 0-.26.005.089-.043.185-.08.279-.128 0 0-.358.053-1 .16-1.69.078-5.427.3-9.839.954a86.88 86.88 0 0 0 8.986-3.47s-10.28 1.405-19.241 5.302a69.48 69.48 0 0 0-1.599-1.25l.97-.365c2.907-.273 9.307-1.13 16.507-3.625 0 0-4.927.086-10.81 1.176a89.508 89.508 0 0 0 10.112-5.59s-.35.104-.984.297c.575-.314 1.158-.627 1.74-.954 0 0-3.395.86-8.028 2.502a102.538 102.538 0 0 0 7.19-3.689s-10.746 2.722-20.172 7.767c-.337-.233-.688-.461-1.04-.689 2.443-.854 9.74-3.606 17.685-8.733 0 0-10.127 2.893-18.512 8.208-.272-.166-.54-.332-.818-.498 3.062-1.12 9.646-3.812 16.766-8.399 0 0-1.47.415-3.746 1.225a86.07 86.07 0 0 0 3.406-1.828s-10.143 2.57-19.358 7.338c-.279-.15-.573-.295-.861-.442 9.595-2.99 18.265-7.284 18.265-7.284-9.058 2.708-16.215 5.779-18.864 6.973-.26-.123-.524-.249-.789-.377a101.87 101.87 0 0 0 7.5-3.764c5.111-2.066 8.694-3.84 8.694-3.84-1.573.472-3.08.952-4.532 1.434 2.259-1.366 3.657-2.304 3.657-2.304a126.294 126.294 0 0 0-8.37 3.954 150.325 150.325 0 0 0-8.965 3.598c-.224-.094-.446-.19-.673-.279 5.43-2.496 10.306-5.42 12.822-7 .92-.428 1.433-.69 1.433-.69-.23.071-.45.144-.677.213.674-.434 1.048-.683 1.048-.683-.933.397-1.84.796-2.708 1.195a156.692 156.692 0 0 0-5.4 1.814c3.91-1.648 6.496-2.931 6.496-2.931a159.82 159.82 0 0 0-17.573 6.408 9.817 9.817 0 0 0-.497-.163c8.651-2.899 16.167-6.802 16.167-6.802a141.5 141.5 0 0 0-5.829 1.945 118.012 118.012 0 0 0 4.703-2.165 160.811 160.811 0 0 0-17.445 6.355c-.278-.075-.564-.15-.842-.215 8.967-2.922 16.958-7.077 16.958-7.077-1.598.5-3.136 1.01-4.595 1.513 1.81-.876 3.697-1.856 5.633-2.941 0 0-6.107 1.545-13.146 4.47 7.031-3.645 12.309-7.28 12.309-7.28-10.85 4.377-19 9.461-20.765 10.592-.118-.013-.24-.035-.372-.05 10.927-5.619 20.466-13.714 20.466-13.714-10.91 5.312-19.244 11.457-21.896 13.501a64.904 64.904 0 0 0-2.152-.22c11.127-5.62 20.939-13.943 20.939-13.943-.79.38-1.562.766-2.318 1.16.703-.565 1.09-.898 1.09-.898-10.993 5.342-19.353 11.547-21.95 13.545a45.26 45.26 0 0 0-1.031-.024l.024-.008c8.887-6.941 16.367-16.015 16.367-16.015a131.65 131.65 0 0 0-8.694 7.405c4.032-4.078 6.692-7.308 6.692-7.308-9.352 7.254-15.929 14.59-17.113 15.945-.129.005-.257.008-.388.01a1.87 1.87 0 0 0-.118-.136l-1.058-.214c8.814-6.92 16.204-15.887 16.204-15.887-.845.66-1.66 1.31-2.46 1.956-.289.142-.666.332-1.139.56 1.366-1.516 2.152-2.47 2.152-2.47a124.688 124.688 0 0 0-4.44 3.608c-.727.376-1.54.783-2.414 1.243 1.81-1.54 3.595-3.153 5.31-4.824 0 0-1.699.905-4.353 2.464 1.123-1.53 1.92-2.665 2.28-3.206.444-.413.89-.834 1.324-1.265 0 0-1.177.632-3.112 1.736.181-.26.278-.404.278-.404-.212.2-.417.401-.631.613-1.305.753-2.914 1.71-4.727 2.826.203-.375.4-.723.59-1.055a101.956 101.956 0 0 0 6.227-5.591c.294-.177.58-.354.872-.528 0 0-2.775 1.069-6.92 2.861.092-.187.164-.316.201-.404a167.253 167.253 0 0 0 6.38-3.804s-2.102.803-5.372 2.204c1.7-.857 3.417-1.744 5.12-2.665 0 0-5.013 1.645-11.729 4.257 3.53-1.618 7.238-3.419 10.892-5.39.583-.217 1.169-.429 1.76-.651 0 0-6.922 1.495-15.72 3.986 2.705-.85 5.598-1.79 8.59-2.826 2.368-.421 4.822-.882 7.335-1.407 0 0-1.572.094-4.213.303 1.026-.37 2.064-.753 3.098-1.144 0 0-2.28.493-5.881 1.385-5.47.49-13.472 1.377-21.634 2.837.088-.431.182-.868.278-1.305 5.09-.452 15.426-1.53 27.253-3.64 0 0-11.56.65-24.11 2.523a321.516 321.516 0 0 0 13.676-2.944c3.807-.284 8.01-.67 12.426-1.173 0 0-2.761-.124-7.042-.161.698-.177 1.393-.37 2.107-.552 1.406-.062 2.85-.134 4.312-.217 1.636.123 3.305.247 5.008.362 0 0-15.38-2.714-30.572-3.791.075-.166.142-.335.217-.504 3.884.367 16.27 1.5 30.978 2.481 0 0-15.477-2.74-30.818-2.829.254-.584.54-1.157.826-1.733 3.684.579 16.13 2.419 31.032 3.413 0 0-.62-.142-1.727-.362-.511-.163-1.5-.477-2.837-.89 1.545.22 3.133.432 4.746.636 0 0-3.773-.908-9.384-2.047-3.733-1.12-8.243-2.42-12.283-3.45 3.543.685 8.147 1.478 12.649 1.944 2.601.651 5.376 1.31 8.269 1.943 0 0-1.933-.678-5.042-1.667.764.051 1.526.089 2.261.11 1.487.23 2.923.389 4.257.48 0 0-.554-.18-1.51-.48.122.003.248.003.368-.008 0 0-.465-.099-1.267-.273a58.773 58.773 0 0 1-.979-.306c1.177.266 2.374.53 3.594.788 0 0-13.117-4.447-26.206-7.228l-.479.043.115-.241c.03-.292.051-.579.075-.879.115-.123.235-.243.345-.37.013.775.027 1.198.027 1.198l.39-.82c.019-.176.03-.361.05-.538 2.362.76 14.855 4.701 30.276 8.152 0 0-14.8-5.004-29.553-8.332l-.709.027c.01-.078.016-.16.024-.23.286-.314.578-.616.88-.911.13.043.382.126.76.241a.697.697 0 0 0 .007.078l.027-.062c2.96.935 12.972 3.992 25.267 6.63.695.239 1.401.485 2.12.721 0 0-1.16-.557-3.109-1.436 1.54.236 3.016.41 4.393.496 0 0-4.896-1.562-10.793-3.287a234.857 234.857 0 0 0-8.435-3.36c1.786.525 3.815 1.09 5.954 1.637a254.82 254.82 0 0 0 12.76 4.65s-3.069-1.47-7.64-3.43c.842.181 1.678.347 2.512.51 2.1.767 4.31 1.544 6.615 2.318 0 0-1.543-.745-4.075-1.87 1.695.265 3.331.466 4.85.568 0 0-5.577-1.784-11.98-3.63-3.665-1.513-7.89-3.148-12.143-4.58l-.941-.02s2.267 1.061 6.037 2.645a106.532 106.532 0 0 0-2.928-.737c-1.088-.394-2.176-.78-3.277-1.152.037-.389.098-1.007.163-1.835.24-.15.489-.303.735-.453a.996.996 0 0 1 .01.088l.238.156-.213-.01s.15.071.393.181c-.03.003-.067-.01-.1-.013l-.676.913s4.305 1.474 9.96 3.017c4.05 1.634 9.116 3.56 14.722 5.43 0 0-3.582-1.714-8.782-3.922 1.933.456 3.906.865 5.82 1.203a224.42 224.42 0 0 0 5.932 2.012s-1.395-.643-3.71-1.653c1.013.142 1.997.263 2.938.346.604.198 1.2.401 1.812.6 0 0-.43-.201-1.213-.555l.283.022s-.289-.089-.797-.255c-.981-.434-2.34-1.034-3.991-1.739 1.796.649 3.662 1.305 5.606 1.95 0 0-11.06-5.301-22.559-9.236.035-.338.078-.807.128-1.41.107-.048.228-.083.332-.136.024.177.043.343.07.52l.197.128-.49-.013s10.599 4.961 24.298 9.526c0 0-11.528-5.527-23.284-9.483.003-.156.022-.357.035-.622 3.278 1.425 12.771 5.438 24.358 9.221 0 0-2.433-1.128-6.218-2.74a254.43 254.43 0 0 0 7.392 2.6s-11.571-5.553-23.35-9.507l-.95-.019s1.778.823 4.773 2.1a183.428 183.428 0 0 0-5.895-2.057 52.695 52.695 0 0 1 1.9-.648c.006.008.003.005.008.005l.466.373.034-.153c2.591 1.144 12.569 5.444 24.925 9.475 0 0-3.451-1.607-8.552-3.723 2.093.771 4.32 1.564 6.676 2.365 1.21.523 2.446 1.048 3.721 1.58 0 0-.53-.307-1.465-.822.286.094.564.188.848.279 0 0-.685-.319-1.896-.86-3.844-2.116-11.584-6.218-19.514-9.564l-.262.06c.003-.02.03-.116.056-.285.901-.185 1.834-.34 2.786-.485.209.115 1.064.592 2.481 1.345a66.167 66.167 0 0 0-3.577-.932l-.992-.027s5.96 3.043 15.843 6.58a252.658 252.658 0 0 0 9.13 4.05s-1.692-.975-4.419-2.44c1.604.527 3.28 1.055 5.034 1.578 0 0-7.36-4.185-16.567-7.389a164.8 164.8 0 0 0-6.075-2.716l-.722-.07c.281-.035.546-.086.83-.118l.015.013s.008-.018.014-.018c.248-.033.51-.06.764-.086 1.874.828 10.841 4.747 22.39 8.661 1.469.65 2.987 1.307 4.56 1.969.002-.003-.72-.418-1.969-1.106.08.021.156.05.244.077l-.97-.477c-3.901-2.14-11.523-6.17-19.325-9.459l-.358-.035c.537-.03 1.075-.05 1.625-.064 8.775 4.12 21.56 7.833 21.56 7.833-6.754-3.499-15.675-6.349-20.092-7.65 8.553 1.644 17.996 2.576 17.996 2.576-7.16-1.945-14.94-2.639-18.223-2.858 2.227-.21 8.015-.989 14.397-3.745 0 0-5.363.332-11.162 2.065a44.922 44.922 0 0 0 9.306-5.16s-7.501 1.967-13.589 6.312l-.19.378c-.085-.019-.166-.043-.243-.065.994-1.087 4.812-5.548 7.7-12.76 0 0-5.059 5.385-7.97 12.538l.008.145c-.463-.129-.722-.19-.722-.19.238.112.481.227.725.348l.008.174c-.279-.019-.629-.04-1.051-.05.535-.818 4.951-7.58 8.08-17.864 0 0-5.757 7.89-8.666 17.298l.458.562a45.496 45.496 0 0 0-3.284.035c.982-2.344 3.602-9.237 4.979-18.661 0 0-4.361 8.757-5.912 18.712-.299.019-.617.04-.933.067.6-1.934 2.751-9.52 3.246-19.942 0 0-1.462 4-2.644 9.636a91.32 91.32 0 0 0 .984-9.703s-1.059 2.899-2.104 7.236c.067-2.382.05-5-.089-7.825 0 0-2.448 10.04-1.94 20.705l.187.148c-.466.059-.944.13-1.439.211.482-2.65 1.706-10.627 1.262-21.067 0 0-.596 2.467-1.155 6.258.062-1.75.1-3.587.083-5.51.032-.295.064-.585.091-.882l-.096.254c0-.125 0-.246-.003-.367 0 0-.096.378-.246 1.072-.59 1.669-1.831 5.436-2.96 10.193.255-3.313.418-7.155.348-11.366 0 0-2.727 10.932-2.676 22.589-.586.16-1.16.34-1.762.527.021-.359.038-.768.054-1.21.88-2.998 2.596-9.79 3.133-18.649 0 0-1.831 4.793-3.133 11.281a137.2 137.2 0 0 0-1.131-14.115s-.046.42-.113 1.181c-.053-.795-.12-1.607-.187-2.421 0 0-.542 3.916-.858 9.655a159.812 159.812 0 0 0-.537-9.792s-1.717 12.417-.818 25.418c-.34.145-.685.295-1.027.453.176-3.003.519-12.166-1.024-23.816 0 0-1.326 11.961.22 24.188a25.86 25.86 0 0 0-.76.394c.171-3.815.302-12.246-1.083-22.678 0 0-.19 1.728-.342 4.536a166.342 166.342 0 0 0-.329-4.69s-1.628 11.72-.893 24.308c-.246.153-.49.313-.73.466 1.024-11.525.503-23.224.503-23.224-1.067 10.807-1.07 20.079-1.019 23.556-.216.15-.435.303-.65.458-.045-3.525-.245-7.032-.494-10.158.12-6.513-.09-11.34-.09-11.34-.185 1.87-.338 3.694-.466 5.446-.35-3.228-.666-5.312-.666-5.312-.005 4.032.134 7.822.326 11.133-.23 5-.25 9.042-.23 11.42-.17.135-.339.282-.515.421-.142-7.16-.896-14.131-1.34-17.79-.035-1.22-.07-1.921-.07-1.921-.018.276-.05.546-.077.82-.126-.99-.214-1.552-.214-1.552.003 1.206.014 2.39.038 3.553a208.8 208.8 0 0 0-.458 6.598c.03-5.053-.125-8.549-.125-8.549-.93 9.366-1.05 17.58-1.04 21.866-.11.12-.227.233-.334.348.727-10.555.13-20.834.13-20.834-.23 2.47-.39 4.86-.51 7.1-.019-3.751-.126-6.195-.126-6.195-.917 9.246-1.05 17.368-1.045 21.695-.168.22-.348.42-.521.64.847-10.887.2-21.815.2-21.815-.17 1.932-.31 3.804-.417 5.602a171.331 171.331 0 0 0-.47-7.726s-.982 7.056-1.073 16.1c-.556-9.604-1.801-17.533-1.801-17.533-.257 13.85 1.176 25.656 1.515 28.238-.072.102-.13.21-.192.314-.834-14.892-4.446-30.42-4.446-30.42.55 14.638 2.882 27.47 3.7 31.623a41.694 41.694 0 0 0-1.032 1.88c-.762-15.077-4.483-31.057-4.483-31.057.042 1.056.09 2.098.152 3.127-.24-1.115-.385-1.742-.385-1.742.559 14.732 2.911 27.642 3.716 31.708-.144.311-.289.638-.43.962l.01-.03c-2.823-13.989-8.122-28.337-8.122-28.337 1.022 5.14 2.185 9.96 3.307 14.158-2.117-7.075-4.004-12.165-4.004-12.165 2.93 14.68 7.012 26.77 7.78 28.991-.046.132-.102.244-.142.378-.056 0-.115.005-.171.008l-.933 1.286s.232.013.663.021c-.142.45-.286.917-.423 1.385-.15.009-.291.03-.444.046l.057-.22c-2.832-14-8.128-28.343-8.128-28.343 2.853 14.308 6.799 26.16 7.708 28.804l-.094.26c-3.954-13.569-9.886-26.677-9.886-26.677a227.47 227.47 0 0 0 2.922 9.658c-1.861-4.646-3.227-7.657-3.227-7.657.446 1.594.9 3.156 1.36 4.672l-.069-.104c-.072-.027-.147-.065-.224-.091-11.724-37.918-52.444-50.488-56.791-51.728.559-.014 1.107-.04 1.642-.062 0 0-.808-.115-2.177-.27-.018-.003-.04-.014-.061-.02l-.209-.32c-9.45-6.819-20.53-11.327-20.53-11.327 8.574 6.244 16.485 9.957 19.53 11.28-4.54-1.355-15.313-4.363-25.342-5.66 0 0 13.079 3.558 24.992 5.862-6.184-.673-18.704-1.798-28.288-1.128 0 0 17.907 2.039 30.341 1.647.752.282 1.487.571 2.22.858l-.474-.129c-11.02-.08-21.85.769-27.409 1.291-.88.035-1.38.067-1.38.067.121.006.233.02.348.022-1.78.18-2.807.297-2.807.297 2.214.016 4.371.016 6.454-.003 16.239 1.198 28.925 1.142 31.555 1.12.75.335 1.49.678 2.214 1.024l-1.005-.282c-2.906-.008-5.807.032-8.603.116-12.95-.86-23.42.297-23.42.297 2.454.26 4.801.477 7.055.667-3.871.335-6.27.605-6.27.605 4.604.046 8.94-.021 12.86-.136 13.945.83 22.418.284 22.418.284l-1.367-.453a104.97 104.97 0 0 0-5.01-.694c1.96-.163 3.192-.278 3.527-.319a109.937 109.937 0 0 1 8.878 4.75l-1.042-.35c-4.853-.4-9.692-.65-14.154-.807 7.272-.169 11.908-.386 11.908-.386l-2.093-1.136c-11.205-.088-22.207.793-27.674 1.313-1.706.019-2.684.05-2.684.05.404.03.8.068 1.198.095-1.332.136-2.083.222-2.083.222 1.797.013 3.556.019 5.272.027 3.267.233 6.387.426 9.31.57-7.163-.085-12.02.04-12.02.04 18.845 1.594 33.856 1.452 35.838 1.431a103.55 103.55 0 0 1 2.569 1.658c-2.789-.22-5.577-.399-8.29-.535 4.258.01 6.74-.062 6.74-.062l-1.31-.442c-16.55-1.262-32.957-.622-32.957-.622 3.636.287 7.122.499 10.384.665-5.342-.019-8.775.067-8.775.067 17.079 1.438 31.013 1.462 34.946 1.438 7.37 5.02 13.156 10.475 17.693 16.106l-1.163-.495c-.401-.067-.815-.14-1.227-.212l-.762-1.224c-3.286-.708-7.817-1.41-12.616-2.039 6.587.094 10.643-.024 10.643-.024l-.129-.048c.471.043.738.061.738.061L292 84.654c-.709-.15-1.484-.303-2.305-.458 1.043-.016 1.607-.03 1.607-.03l-1.307-.442a249.294 249.294 0 0 0-5.155-.337c-1.318-.201-2.684-.391-4.088-.587 5.342.048 8.542-.045 8.542-.045l-1.304-.442c-5.99-.456-11.946-.665-17.124-.748-8.97-1.023-16.793-1.728-16.793-1.728a95.096 95.096 0 0 0 6.724 1.723c-3.585.04-5.774.128-5.774.128 3.253.255 6.373.45 9.33.608 1.158.228 2.326.44 3.492.643-6.47-.01-10.807.161-10.807.161 6.65.528 12.785.81 17.98.965 2.989.42 5.83.771 8.325 1.05-4.25-.193-8.317-.284-11.902-.316-8.259-.922-15.149-1.538-15.149-1.538a92.755 92.755 0 0 0 6.096 1.578c-2.756.048-4.398.112-4.398.112 1.021.078 2.024.156 3.019.22 19.396 3.405 34.809 4.777 36.434 4.919.49.613.968 1.224 1.43 1.84l-1.253-.488c-20.59-3.429-41.394-4.98-41.394-4.98 22.417 3.762 40.525 5.377 42.725 5.57a68.643 68.643 0 0 1 6.069 9.687l-.415-.204c-1.874-.46-3.767-.913-5.64-1.347 3.336.332 5.435.485 5.435.485l-.856-1.37c-.318-.069-.642-.139-.97-.203l-.634-1.307c-1.845-.552-4.115-1.139-6.601-1.728 4.24.431 6.71.616 6.71.616l-1.352-.57c-.292-.051-.588-.102-.883-.156 1.1.102 1.72.142 1.72.142l-.861-1.364a3.801 3.801 0 0 0-.302-.07l.184.02-1.371-.584c-18.25-3.24-36.697-4.603-36.697-4.603 1.7.305 3.371.592 5.01.868-.47-.045-.928-.088-1.34-.131-1.136-.201-1.79-.314-1.79-.314.165.065.336.124.502.19l-2.128-.195a94.498 94.498 0 0 0 5.908 1.532c1.027.338 2.075.665 3.14.986-4.37-.396-7.096-.576-7.096-.576 3.587.622 7.047 1.168 10.314 1.645-.013.327-.04.924-.053 1.766-6.893-1.26-11.422-1.956-11.422-1.956 2.254.562 4.457 1.098 6.601 1.602a345.14 345.14 0 0 0-3.962-.378c-1.559-.284-2.44-.434-2.44-.434 2.718.81 5.373 1.583 7.95 2.315.024.292.054.63.083 1.002-1.238-.29-2.326-.544-3.254-.75a11.24 11.24 0 0 0-.165-.362c.01.112.04.22.056.327-2.118-.464-3.337-.726-3.337-.726l3.385 1.012c.112.678.23 1.337.353 1.999a36.7 36.7 0 0 1-.84-.188c-.072-.18-.133-.356-.214-.546 0 0 .033.19.105.528-.784-.17-1.353-.287-1.698-.365-.077-.19-.15-.383-.238-.581 0 0 .04.209.131.563-.171-.035-.262-.057-.262-.057.088.03.171.049.267.078.188.836.597 2.542 1.22 4.814-.7-1.956-1.484-4.018-2.364-6.159 0 0 1.746 8.943 5.232 18.075-.17-.096-.34-.19-.505-.29-1.024-3.72-3.184-10.841-6.62-18.937 0 0 .66 3.027 1.92 7.405a158.429 158.429 0 0 0-2.174-5.706c-.248-1.002-.529-2.034-.82-3.07 0 0 .032.482.112 1.342-.102-.233-.193-.466-.297-.705 0 0 .134.608.382 1.658.335 3.196 1.094 9.27 2.66 15.49-.245-.11-.5-.228-.748-.343a149.141 149.141 0 0 0-3.061-9.896 126.453 126.453 0 0 0-2.307-9.67s.123 1.81.467 4.631a162.875 162.875 0 0 0-1.908-4.723s.909 4.2 2.644 9.853c.454 2.725 1.056 5.765 1.855 8.817a65.377 65.377 0 0 1-.917-.367c-.789-3.022-3.045-11.067-7.013-20.406 0 0 2.203 10.161 6.289 20.132-.34-.128-.682-.254-1.03-.383-2.15-10.949-7.02-21.064-7.02-21.064.216 1.404.465 2.767.721 4.09-.871-2.437-1.529-3.932-1.529-3.932.816 9.098 3.027 16.403 4.166 19.706-.348-.104-.698-.211-1.046-.308-1.048-10.662-5.609-21-5.609-21 .91 10.164 3.567 18.099 4.524 20.703-.473-.126-.93-.244-1.393-.362-2.048-11.313-7.21-22.032-7.21-22.032.475 3.044 1.069 5.91 1.71 8.511-1.788-4.964-3.414-8.342-3.414-8.342.11.71.225 1.41.35 2.098a50.198 50.198 0 0 0-.424-1.01 86.41 86.41 0 0 0 2.015 12.264c-3.194-5.586-6.649-9.671-6.649-9.671 2.824 7.667 6.623 13.51 8.454 16.08.123.382.243.733.353 1.047-.783-.145-1.556-.279-2.318-.402-2.772-10.108-8.844-19.506-8.844-19.506a84.444 84.444 0 0 0 3.192 9.816 99.53 99.53 0 0 0-6.16-8.72c-.358-.597-.572-.919-.572-.919.027.097.06.21.08.31a8.985 8.985 0 0 0-.176-.213c.11.257.22.511.326.766.441 1.65.923 3.233 1.433 4.733-1.62-3.244-2.949-5.344-2.949-5.344 1.987 9.063 5.454 15.95 6.703 18.23-.64-.05-1.249-.094-1.85-.131l.206-.126c-1.968-9.277-7.465-17.911-7.465-17.911a65.296 65.296 0 0 0 1.786 6.777c-2.35-3.723-4.38-6.193-4.38-6.193 1.084 3.102 2.34 5.901 3.554 8.32-2.829-4.816-5.604-8.203-5.604-8.203 3.144 8.996 7.668 15.522 8.892 17.186-.409-.008-.788-.013-1.17-.024-4.353-8.589-11.932-16.042-11.932-16.042 4.007 8.123 8.958 14.017 10.747 16.026a86.146 86.146 0 0 0-4.098.075l.438-.499c-5.927-8.066-15.028-14.723-15.028-14.723 6.406 8.814 13.544 14.541 14.437 15.232-.535.027-.96.054-1.302.078l-.032-.153c.27-.11.55-.217.813-.326 0 0-.3.072-.845.19l-.027-.123c-5.368-6.114-12.998-10.625-12.998-10.625 5.339 6.156 11.188 9.904 12.712 10.823-.09.024-.187.043-.291.064l-.324-.321c-8.657-3.571-18.498-5.031-18.498-5.031a86.559 86.559 0 0 0 12.847 4.173c-7.644-1.318-14.408-1.433-14.408-1.433 8.609 2.178 16.02 2.68 18.864 2.792-4.042.292-13.573 1.144-22.032 3.056 0 0 11.56-1.111 21.826-2.813-5.178 1.28-15.62 4.038-23.195 7.295 0 0 15.041-3.638 24.99-7.493.69-.008 1.365-.013 2.045-.008l-.442.046c-8.916 3.1-17.425 6.836-21.78 8.824-.722.292-1.12.458-1.12.458.1-.03.194-.056.29-.08-1.4.643-2.197 1.031-2.197 1.031a296.25 296.25 0 0 0 5.23-1.867c13.458-3.775 23.692-7.464 25.812-8.235.315.013.65.027.97.045l.014.017.024-.014c.356.022.711.054 1.072.08l-.898.086c-2.361.82-4.69 1.688-6.925 2.556-10.707 3.08-18.861 6.952-18.861 6.952a320.096 320.096 0 0 0 5.892-1.53c-3.045 1.356-4.908 2.256-4.908 2.256a312.983 312.983 0 0 0 10.373-3.804c11.499-3.392 18.19-6.234 18.19-6.234l-1.227.056a91.34 91.34 0 0 0-4.24.93c1.548-.686 2.505-1.139 2.77-1.251 1.219.088 2.417.2 3.593.324.072.142.115.222.134.249l-.34-.038c-9.082 3.159-17.739 6.974-22.014 8.935-1.376.503-2.157.8-2.157.8.334-.09.655-.176.986-.275-1.037.49-1.622.774-1.622.774 1.46-.506 2.887-1.002 4.275-1.503a392.994 392.994 0 0 0 7.707-2.253c-5.83 1.988-9.734 3.493-9.734 3.493 14.434-3.903 25.837-7.956 28.794-9.03l.072.134.497-.34c.864.155 1.709.324 2.543.495a272.45 272.45 0 0 0-6.84 1.974c3.434-1.21 5.42-1.971 5.42-1.971l-1.179.045c-13.734 3.815-26.818 9.01-26.818 9.01 3.01-.83 5.88-1.675 8.569-2.49a317.59 317.59 0 0 0-7.072 2.567c13.534-3.648 24.399-7.44 28.144-8.787.086.225.15.405.206.539-13.707 3.815-26.754 8.985-26.754 8.985 15.983-4.412 28.003-9.052 28.003-9.052l-.605.024.217-.12c-.013-.15-.035-.298-.048-.443.15.027.294.057.446.097.212.522.377.932.503 1.216-13.392 3.796-25.89 8.755-25.89 8.755 2.243-.616 4.4-1.246 6.467-1.862-1.869.659-3.409 1.224-4.516 1.629-.596.16-.93.244-.93.244.118-.008.233-.022.345-.025-.888.33-1.372.512-1.372.512.709-.19 1.415-.383 2.107-.576 1.163-.104 2.36-.241 3.588-.394-2.641.949-4.224 1.549-4.224 1.549 2.4-.646 4.713-1.291 6.916-1.934 2.302-.354 4.657-.772 6.96-1.227-5.952 2.081-10 3.686-10 3.686a337.085 337.085 0 0 0 17.057-5.203c6.676-1.519 11.684-2.93 11.684-2.93l-1.073-.772c-.037.003-.08.01-.114.013l.443-.166-.262.006.257-.137a6.655 6.655 0 0 0-.008-.075c.342.118.692.244 1.027.364.283.716.508 1.26.65 1.592a252.95 252.95 0 0 0-3.802 1.098c-1.12.228-2.278.482-3.47.742 4.32-1.497 6.886-2.489 6.886-2.489l-1.176.054c-4.965 1.372-9.828 2.93-14.028 4.359-7.545 1.805-14.07 3.544-14.07 3.544a95.114 95.114 0 0 0 5.908-.654c-2.88 1.058-4.63 1.755-4.63 1.755 2.697-.742 5.277-1.5 7.707-2.229a201.43 201.43 0 0 0 3.002-.525 318.86 318.86 0 0 0-5.967 2.18c-14.161 2.034-24.933 7.303-30.136 10.293 5.09-2.11 19.426-7.841 27.316-8.953a86.576 86.576 0 0 0 4.422-.477c.128-.01.259-.024.387-.032-2.165.814-3.443 1.326-3.443 1.326.837-.24 1.66-.471 2.475-.704 1.423-.263 2.816-.52 4.18-.785a70.692 70.692 0 0 1 4.327-.008c-1.414.34-2.726.672-3.938.99l-.117-.023a.696.696 0 0 0-.12.075l.422-.391-1.278.618c-1.03.263-1.957.504-2.783.724l1.07-.975-1.356.664c-.252.196-.5.4-.754.584-.58.153-1.083.295-1.516.41l1.679-1.511-1.36.659c-.504.391-1.014.785-1.517 1.173-.283.086-.438.124-.438.124a5.69 5.69 0 0 0 .371-.073c-1.221.96-2.438 1.926-3.628 2.886 3-2.671 4.703-4.265 4.703-4.265l-1.31.63c-13.736 10.707-26.096 22.492-26.096 22.492a457.846 457.846 0 0 0 6.454-5.112c-1.805 1.6-3.289 2.947-4.355 3.906-.591.458-.928.707-.928.707.12-.061.249-.128.372-.195-.845.774-1.316 1.21-1.316 1.21.727-.551 1.43-1.095 2.131-1.639 1.262-.68 2.55-1.417 3.863-2.183-2.537 2.285-4.045 3.683-4.045 3.683a481.471 481.471 0 0 0 6.911-5.408 231.374 231.374 0 0 0 7.296-4.705c-5.753 5.077-9.576 8.728-9.576 8.728a464.86 464.86 0 0 0 16.854-13.77 347.404 347.404 0 0 0 8.958-6.59c.07-.008.129-.021.201-.032-.16.12-.313.244-.47.365-.11.032-.177.042-.177.042.043 0 .096 0 .134-.008-4.04 3.22-7.887 6.478-11.27 9.409-7.672 5.583-14.23 10.584-14.23 10.584 2.048-1.069 4.19-2.293 6.376-3.6-2.759 2.52-4.417 4.088-4.417 4.088a400.289 400.289 0 0 0 7.679-6.097c1.053-.667 2.101-1.345 3.15-2.02-5.048 4.484-8.326 7.61-8.326 7.61a464.005 464.005 0 0 0 14.648-11.894 341.293 341.293 0 0 0 7.186-5.125 403.143 403.143 0 0 0-9.485 8.075c-7.048 5.157-12.828 9.553-12.828 9.553a109.23 109.23 0 0 0 5.8-3.247c-2.12 1.95-3.353 3.134-3.353 3.134.844-.667 1.67-1.315 2.494-1.96a598.423 598.423 0 0 0 21.602-14.818c.473-.03.944-.064 1.414-.107-14.287 9.97-25.898 19.05-25.898 19.05a756.601 756.601 0 0 0 25.032-17.338c.77-.06 1.543-.116 2.3-.177-11.516 8.055-20.459 15.05-20.459 15.05a438.864 438.864 0 0 0 4.465-2.936c-.387.297-.767.581-1.112.844-1.016.667-1.607 1.047-1.607 1.047.174-.075.348-.152.522-.23a159.29 159.29 0 0 0-1.792 1.358 113.95 113.95 0 0 0 5.63-3.158 128.766 128.766 0 0 0 3.097-1.557c-3.676 2.792-5.925 4.579-5.925 4.579a493.105 493.105 0 0 0 10.234-6.899c4.401-2.419 8.745-5.012 12.52-7.345.126.01.254.013.377.018a685.519 685.519 0 0 0-11.357 8.246c-7.06 4.528-11.715 7.68-11.715 7.68 2.13-1.2 4.195-2.4 6.205-3.576a788.974 788.974 0 0 0-3.352 2.532c-1.404.895-2.174 1.41-2.174 1.41a831.978 831.978 0 0 0 23.808-12.892c.3.094.59.18.89.273-.463.239-.914.49-1.366.734-.484-.094-.754-.144-.754-.144.216.07.43.13.652.198-.174.099-.35.193-.527.29-.213-.052-.336-.076-.336-.076.096.032.195.07.286.102-11.897 6.464-20.418 11.715-20.418 11.715 7.304-3.801 14.154-7.41 20.156-10.598.323.12.639.23.962.351-1.46.833-2.858 1.642-4.205 2.42a30.7 30.7 0 0 1-.49-.376s.12.169.343.46c-8.73 5.067-14.648 8.726-14.648 8.726 2.288-1.195 4.536-2.373 6.729-3.536.334-.137.657-.284.997-.415 1.9-.533 3.77-1.061 5.606-1.586a684.491 684.491 0 0 0-6.95 3.464c-1.658.509-2.578.806-2.578.806.599-.137 1.195-.27 1.789-.404-.554.294-.864.45-.864.45.487-.19.962-.384 1.436-.574 1.35-.305 2.681-.608 4.007-.913-1.107.46-1.721.723-1.721.723.98-.335 1.951-.662 2.908-1.002.69-.153 1.374-.308 2.05-.477.268.268.56.563.9.898-.704.278-1.362.538-1.987.8-2.933.684-4.655 1.115-4.655 1.115.722-.094 1.444-.193 2.16-.294.054.048.115.096.169.142-.901.375-1.69.701-2.337.98-.232.067-.369.113-.369.113.067-.022.131-.035.203-.043-1.36.562-2.117.892-2.117.892 1.34-.432 2.657-.87 3.957-1.302.374-.086.746-.174 1.125-.257.16.142.326.28.492.42-1.537.37-2.414.579-2.414.579.89-.118 1.783-.236 2.668-.364.308.257.61.5.915.752-.278.06-.436.089-.436.089.166-.011.329-.03.492-.043.425.34.847.68 1.27 1.015l-.915.193c-.625-.321-1.246-.64-1.88-.951 0 0 1.442 1.133 3.856 2.861-.168.022-.273.04-.273.04.113.003.228 0 .345.014.725.514 1.543 1.082 2.428 1.69-.532.064-.976.129-1.34.166a184.034 184.034 0 0 0-7.205-3.678s2.104 1.591 5.518 3.885a158.002 158.002 0 0 0-7.13-3.764s3.077 2.437 7.799 5.58c-.34.061-.554.094-.613.104a177.162 177.162 0 0 0-10.001-5.216s2.994 2.261 7.638 5.275a182.786 182.786 0 0 0-6.6-3.506 126.667 126.667 0 0 0-3.19-2.162s.403.415 1.144 1.146c-.28-.134-.556-.27-.84-.404 0 0 .6.45 1.666 1.213 2.775 2.68 8.216 7.67 14.59 12.141-.354.094-.693.182-1.033.282a175.68 175.68 0 0 0-10.72-6.644 145.395 145.395 0 0 0-9.77-7.057s1.511 1.58 4.022 3.896a191.276 191.276 0 0 0-5.561-2.81s4.146 3.142 10.253 6.954c2.55 2.143 5.502 4.458 8.66 6.63-.41.132-.824.263-1.228.405-3.12-2.151-11.59-7.742-22.81-13.146 0 0 10.047 7.587 21.866 13.478-.446.155-.903.313-1.345.472-10.587-8.345-23.329-13.73-23.329-13.73a112.885 112.885 0 0 0 3.888 3.18c-2.773-1.543-4.593-2.384-4.593-2.384 7.812 7.731 15.672 12.682 19.367 14.803-.439.185-.877.37-1.302.563-9.245-8.988-21.83-14.825-21.83-14.825 8.716 8.637 17.506 13.799 20.493 15.436a148.8 148.8 0 0 0-1.7.787c-10.764-8.776-24.265-14.48-24.265-14.48a117.994 117.994 0 0 0 8.277 6.47c-5.636-3.126-9.895-4.932-9.895-4.932.66.568 1.32 1.118 1.979 1.656-.77-.383-1.22-.592-1.22-.592a97.204 97.204 0 0 0 11.467 9.676c-7.555-2.555-14.204-3.522-14.204-3.522 8.756 4.776 17.121 7.09 20.963 7.975.428.26.813.48 1.168.686-.912.498-1.81.996-2.679 1.508-10.592-7.078-24.005-10.829-24.005-10.829a99.49 99.49 0 0 0 10.798 6.47 122.064 122.064 0 0 0-12.977-3.057c-.826-.254-1.297-.39-1.297-.39.105.08.214.152.33.238-.225-.043-.351-.065-.351-.065.31.15.612.303.917.44a96.648 96.648 0 0 0 5.09 3.212c-4.141-1.682-7.114-2.545-7.114-2.545 8.991 6.754 17.803 10.298 20.837 11.39-.69.464-1.352.922-1.997 1.372l.115-.276c-9.12-6.962-21.356-10.474-21.356-10.474a75.571 75.571 0 0 0 7.016 4.803c-5.262-1.535-9.224-2.16-9.224-2.16a82.883 82.883 0 0 0 10.012 4.79c-6.587-2.156-12.028-3.026-12.028-3.026 10.122 5.749 19.75 8.103 22.281 8.655-.425.316-.823.622-1.219.925-11.036-4.405-24.497-5.133-24.497-5.133 10.317 4.243 19.901 5.674 23.275 6.073a120.255 120.255 0 0 0-4.133 3.391l.056-.811c-12.237-2.644-26.644-1.412-26.644-1.412 13.298 2.936 24.992 2.44 26.433 2.36-.519.45-.938.823-1.273 1.123l-.15-.108c.196-.324.399-.65.586-.961 0 0-.262.305-.72.854l-.125-.094c-10.172-1.288-21.425.737-21.425.737 10.18 1.35 19.024.062 21.284-.313-.07.09-.153.195-.238.3l-.589-.043c-11.578 3.726-22.764 10.349-22.764 10.349 6.523-2.071 12.201-4.546 16.33-6.556-8.82 4.975-15.83 10.357-15.83 10.357 10.48-4.975 18.43-10.528 21.433-12.728-3.911 3.56-12.996 12.07-20.185 20.685 0 0 10.967-10.392 20.164-20.283-4.323 5.372-12.887 16.385-18.13 25.528 0 0 12.598-15.543 19.803-27.17.698-.573 1.396-1.112 2.088-1.66l-.417.404c-6.74 10.08-12.576 20.421-15.506 25.793-.51.849-.792 1.323-.792 1.323.075-.1.158-.204.241-.305-.936 1.733-1.462 2.74-1.462 2.74a319.31 319.31 0 0 0 3.911-5.974c10.879-14.388 18.511-26.077 20.086-28.517.337-.247.693-.499 1.032-.742.016 0 .021.002.021.002l.014-.026c.385-.282.767-.528 1.155-.796l-.848.798a288.17 288.17 0 0 0-5.122 7.975c-8.587 11.517-13.961 21.703-13.961 21.703a376.807 376.807 0 0 0 4.852-6.186c-2.066 3.716-3.283 6.062-3.283 6.062a426.232 426.232 0 0 0 7.69-11.924c9.153-12.443 13.813-20.486 13.813-20.486l-1.211 1.045a155.129 155.129 0 0 0-3.62 4.281c1.056-1.883 1.7-3.07 1.872-3.394 1.315-.903 2.622-1.77 3.916-2.607.19.067.302.102.34.116l-.377.238c-6.866 10.274-12.796 20.818-15.667 26.093-1.024 1.58-1.585 2.489-1.585 2.489.27-.349.534-.7.804-1.053-.7 1.286-1.072 2.02-1.072 2.02 1.102-1.65 2.171-3.258 3.217-4.846a528.85 528.85 0 0 0 6.157-8.327c-4.438 6.561-7.288 11.107-7.288 11.107 11.784-15.294 20.329-28.279 22.524-31.66l.18.057.242-.713.008-.008c.995-.552 1.987-1.085 2.97-1.591a356.954 356.954 0 0 0-5.47 7.354c2.583-3.893 4.022-6.205 4.022-6.205l-1.169.991c-11.113 14.66-20.51 30.058-20.51 30.058a474.911 474.911 0 0 0 6.851-9.237c-3.259 4.895-5.258 8.093-5.258 8.093 11.036-14.34 19.238-26.645 22.03-30.923.261.145.472.252.622.33-11.095 14.632-20.455 29.977-20.455 29.977 12.956-17.022 21.682-31.046 21.682-31.046l-.593.506.117-.284c-.117-.123-.25-.244-.387-.367.182-.091.36-.188.542-.276.613.316 1.105.555 1.447.718-10.782 14.349-19.768 29.067-19.768 29.067a461.94 461.94 0 0 0 5.195-6.968 403.242 403.242 0 0 0-3.377 5.17c-.481.622-.757.973-.757.973.113-.102.222-.207.33-.306l-1.011 1.597c.58-.758 1.155-1.506 1.724-2.245a163.819 163.819 0 0 0 3.358-3.274c-1.97 3.011-3.123 4.857-3.123 4.857a556.692 556.692 0 0 0 5.583-7.388 256.091 256.091 0 0 0 6.17-6.784c-4.489 6.749-7.395 11.512-7.395 11.512a475.634 475.634 0 0 0 13.459-18.624c5.649-6.813 9.683-12.179 9.683-12.179l-1.684.158c-.035.038-.075.075-.1.108.204-.333.322-.512.322-.512l-.262.217.155-.34a.329.329 0 0 1-.065-.06c.444-.163.888-.337 1.335-.49.834.432 1.475.745 1.876.935a299.12 299.12 0 0 0-3.04 4.1 394.51 394.51 0 0 0-2.978 3.495c3.27-4.889 5.13-7.879 5.13-7.879l-1.17.994c-4.01 5.291-7.796 10.679-11.002 15.404-6.32 7.788-11.659 14.673-11.659 14.673 1.797-1.64 3.663-3.47 5.529-5.395-2.12 3.316-3.377 5.373-3.377 5.373 2.185-2.869 4.24-5.657 6.17-8.304.894-.967 1.779-1.937 2.666-2.918-3.925 5.956-6.424 10.028-6.424 10.028a469.854 469.854 0 0 0 11.72-16.1 382.775 382.775 0 0 0 5.944-7.175 407.702 407.702 0 0 0-7.486 10.807 1019.741 1019.741 0 0 0-10.486 13.226 116.832 116.832 0 0 0 5.037-4.876c-1.639 2.57-2.572 4.104-2.572 4.104.677-.897 1.342-1.779 1.997-2.644 12.962-14.394 22.693-26.663 25.538-30.315l.08.01s-.021-.015-.054-.05c.361-.458.605-.764.728-.927.644-.134 1.286-.26 1.925-.375.08.037.163.075.25.118l-.91.72c-15.41 17.357-29.353 35.791-29.353 35.791 16.134-18.134 28.16-33.519 30.414-36.436.181.096.366.182.558.27l1.238.094s-.371-.273-1.064-.75c.251-.045.513-.096.765-.134.302.158.604.31.909.45l.36.027-.649.48c-13.82 15.294-26.158 31.638-26.158 31.638a1108.32 1108.32 0 0 0 3.773-4.206c-.332.405-.645.806-.93 1.17-.856.96-1.345 1.5-1.345 1.5.152-.12.31-.246.462-.374-.92 1.176-1.454 1.864-1.454 1.864a121.356 121.356 0 0 0 4.892-4.723c.904-.785 1.813-1.596 2.73-2.424a418.61 418.61 0 0 0-4.794 6.26 556.398 556.398 0 0 0 8.574-9.78c5.198-4.97 10.218-10.22 14.017-14.327-4.098 4.811-8.541 10.284-12.175 14.833-5.98 6.537-9.876 11.024-9.876 11.024 1.837-1.816 3.631-3.59 5.355-5.334-1.294 1.642-2.243 2.87-2.73 3.488-1.176 1.294-1.83 2.03-1.83 2.03 17.725-16.124 31.606-30.183 35.688-34.37.885.043 1.762.102 2.617.185-19.102 16.03-35.956 33.797-35.956 33.797a2940.223 2940.223 0 0 0 36.475-33.757c.249.027.487.05.727.078-18.009 16.467-34.76 34.116-34.76 34.116 2.015-1.838 3.99-3.646 5.91-5.414a947.414 947.414 0 0 0 5.617-4.377c1.048-.63 2.104-1.238 3.126-1.857a530.344 530.344 0 0 0-8.66 7.429 796.815 796.815 0 0 0 16.619-12.232 817.8 817.8 0 0 0 12.948-8.07c-.049.159-.107.311-.153.477-14.25 10.05-25.465 18.718-25.465 18.718a860.657 860.657 0 0 0 24.944-17.129c-.137.418-.276.844-.407 1.27a771.565 771.565 0 0 0-15.252 10.992c-5.301 3.21-8.609 5.285-8.609 5.285 1.66-.84 3.292-1.69 4.92-2.537-3.49 2.62-5.545 4.209-5.545 4.209 3.62-2.31 7.106-4.573 10.448-6.791a702.617 702.617 0 0 0 12.683-6.89c0 .013-.003.018-.003.024-12.947 7.487-22.639 13.587-22.639 13.587.938-.485 1.877-.959 2.802-1.438A559.778 559.778 0 0 0 276.328 185c-10.799 5.414-18.581 9.636-18.581 9.636a409.724 409.724 0 0 0 8.83-3.713c-5.373 2.572-8.729 4.26-8.729 4.26a457.178 457.178 0 0 0 15.972-6.149c-8.983 4.203-15.164 7.31-15.164 7.31.519-.179 1.043-.38 1.567-.57 4.665-.988 9.392-2.164 14.025-3.44-.051.207-.113.408-.18.603-8.234 3.06-13.843 5.382-13.843 5.382a233.172 233.172 0 0 0 12.972-3.12c-.174.195-.34.393-.503.589-6.97 2.625-11.562 4.524-11.562 4.524 3.197-.672 6.421-1.449 9.632-2.266-.107.129-.22.257-.323.383-5.714 2.422-9.347 4.07-9.347 4.07 2.294-.603 2.265 1.05 3.497-.137.249-.268.42-.456.503-.56-.19.236-.356.418-.503.56-3.377 3.611-21.602 22.029-45.233 48.478-41.798 46.775-100.51 118.656-123.898 178.132 16.33 24.89 31.694 7.932 31.694 7.932 31.224-63.258 75.698-129.356 107.46-173.601 22.866-31.858 39.14-52.393 39.14-52.393.825.973 2.558-3.488 2.51-3.233 0 0 .51-2.28.753-2.96l.073-.357c-.115.598-.233 1.195-.34 1.79-.16.512-.32 1.029-.486 1.527 0 0 1.59-3.614 3.956-9.32l.645-.825a467.462 467.462 0 0 0-3.577 10.884s1.443-3.316 3.644-8.586a540.186 540.186 0 0 0-3.166 8.653s2.462-5.218 5.93-13a6.53 6.53 0 0 1 .297-.105 608.821 608.821 0 0 0-4.877 13.02c-.412.921-.818 1.843-1.232 2.764.002-.002 3.761-6.877 8.82-16.735.07-.032.141-.054.21-.08a1061.955 1061.955 0 0 0-3.256 6.954 716.036 716.036 0 0 0-5.83 10.33s1.366-2.036 3.622-5.505a457.25 457.25 0 0 0-2.168 4.835s1.78-3.26 4.537-8.5c1.674-2.61 3.62-5.682 5.732-9.071.366-.134.732-.27 1.096-.402a868.6 868.6 0 0 0-10.993 18.603s5.373-8.02 12.284-19.085c.33-.118.647-.238.963-.354a779.051 779.051 0 0 0-3.65 6.789 822.922 822.922 0 0 0-10.53 16.5s2.55-3.336 6.413-8.645a275.14 275.14 0 0 0-1.596 3.091c-1.232 1.82-2.497 3.678-3.775 5.583-1.532 1.926-3.09 3.9-4.673 5.918 0 0 14.365-15.857 28.2-33.273.31-.12.61-.246.917-.367a3027.595 3027.595 0 0 0-28.719 35.973s15.368-16.966 29.198-36.026c.082.835.141 1.666.184 2.523-3.615 4.102-15.776 18.046-29.692 35.778 0 0 .634-.657 1.754-1.846.54-.501 1.596-1.458 3.016-2.778a576.26 576.26 0 0 0-4.596 5.38s3.871-3.939 9.52-9.964c3.949-3.686 8.681-8.187 12.852-12.337-3.548 3.831-8.09 8.881-12.39 14.084a594.378 594.378 0 0 0-8.46 8.663s2.095-1.84 5.424-4.873c-.706.914-1.417 1.825-2.091 2.725a130.66 130.66 0 0 0-4.088 4.902s.602-.543 1.618-1.476c-.105.156-.217.32-.313.466 0 0 .462-.495 1.286-1.358.318-.294.668-.61 1.018-.94a481.279 481.279 0 0 0-3.636 3.807s14.162-12.562 27.393-26.5l.412-.646.032.348c.126.29.26.573.393.855-.03.246-.07.495-.104.74-.43-.647-.663-.99-.663-.99l.085 1.19c.08.177.16.348.252.528-2.538 2.288-15.865 14.504-31.558 30.784 0 0 15.971-14.188 30.999-29.734l.612-.916c.045.085.08.163.107.235a49.241 49.241 0 0 1-.307 1.865c-.134.131-.402.375-.805.74l-.051-.049.019.083c-3.16 2.89-13.788 12.768-26.238 25.841-.762.667-1.524 1.343-2.3 2.031 0 0 1.335-.97 3.56-2.644a121.727 121.727 0 0 0-4.217 5.055s5.253-4.774 11.461-10.651a380.914 380.914 0 0 0 9.376-7.66 367.256 367.256 0 0 0-6.22 6.023 441.883 441.883 0 0 0-13.954 11.953s3.534-2.563 8.702-6.6c-.853.889-1.692 1.789-2.52 2.689a394.721 394.721 0 0 0-7.203 6.29s1.786-1.302 4.662-3.485c-1.665 1.878-3.25 3.748-4.657 5.553 0 0 5.965-5.43 12.71-11.835 4.088-3.285 8.758-7.153 13.346-11.239l.864-1.162s-2.604 1.915-6.836 5.267a295.435 295.435 0 0 0 3.023-3.011 299.563 299.563 0 0 0 3.556-3.1c.176.383.446.98.834 1.77-.139.44-.278.869-.42 1.3-.016-.019-.032-.032-.061-.059l-.292.169.193-.263-.444.33c.035-.027.059-.07.094-.102l.117-1.629s-4.649 4.107-10.547 9.83a440.827 440.827 0 0 0-16.137 13.734s4.133-2.99 9.98-7.608c-1.973 2.033-3.964 4.128-5.857 6.237a425.891 425.891 0 0 0-6.406 5.674s1.588-1.187 4.205-3.199a150.04 150.04 0 0 0-2.823 3.357c-.647.581-1.288 1.16-1.943 1.75 0 0 .486-.363 1.376-1.038-.085.105-.173.223-.254.33l.837-.764c1.107-.852 2.639-2.03 4.481-3.472a408.621 408.621 0 0 0-6.031 5.294s12.77-9.258 25.197-20.242c.147.324.364.785.645 1.366-.073.174-.16.348-.236.525-.107-.115-.213-.238-.334-.361l-.235.139.441-.595s-12.175 8.98-26.922 22.166c0 0 13.309-9.655 25.994-20.942.07.142.166.338.29.58-3.709 2.87-14.379 11.278-26.803 22.497 0 0 2.778-2.05 7.02-5.39a429.238 429.238 0 0 0-8.006 6.973s13.365-9.687 26.058-20.997l.859-1.171s-2.01 1.487-5.382 4.136a354.469 354.469 0 0 0 6.379-5.57c-.439.968-.901 1.94-1.366 2.923l-.008.003-.618.265.045.166c-2.93 2.264-14.19 11.027-27.44 23.005 0 0 3.94-2.929 9.63-7.47-2.27 1.943-4.7 4.04-7.216 6.272a708.581 708.581 0 0 0-4.2 3.292s.636-.388 1.754-1.114c-.305.273-.607.544-.912.822 0 0 .789-.592 2.155-1.628 4.585-2.982 13.733-9.138 22.644-16.173l.214-.378c.006.035.04.145.096.324a178.425 178.425 0 0 1-2.24 3.885c-.283.182-1.315.844-2.954 1.94a122.68 122.68 0 0 0 3.716-3.668l.898-1.214s-6.98 4.83-17.768 14.161a377.048 377.048 0 0 0-10.33 7.9s2.029-1.272 5.253-3.413c-1.716 1.552-3.5 3.191-5.358 4.922 0 0 8.847-5.597 18.833-14.34 2.256-1.667 4.59-3.43 6.916-5.26l.684-.857c-.224.386-.443.766-.679 1.15l-.03.008s0 .008.009.029c-.209.335-.439.686-.644 1.026-2.11 1.613-12.256 9.454-24.722 20.51-1.677 1.278-3.401 2.62-5.173 4.024 0 0 .874-.55 2.376-1.53-.096.089-.182.166-.275.25 0 0 .417-.287 1.152-.82 4.665-3.046 13.64-9.095 22.393-16l.345-.42c-.478.686-.949 1.38-1.433 2.08-10.09 7.423-23.55 20.193-23.55 20.193 7.934-5.427 17.476-14.129 22.133-18.506-8.558 9.256-17.538 20.242-17.538 20.242 7.467-7.273 14.814-16.374 17.886-20.285-1.893 2.982-6.673 10.869-10.916 21.156 0 0 4.625-6.968 8.897-15.661-1.719 4.045-3.836 9.62-5.577 15.98 0 0 5.679-11.03 8.828-22.343l-.037-.555c.09-.085.171-.171.26-.249-.314 2.186-1.364 10.756-.092 20.497 0 0 1.669-10.909.452-20.647l-.083-.12c.484-.461.754-.724.754-.724-.278.196-.553.4-.84.603l-.103-.14c.264-.323.58-.747.973-1.266-.054 1.393-.393 12.65 2.29 25.327 0 0 .958-13.91-1.464-25.574l-.714.083a99.01 99.01 0 0 0 2.93-4.12c.377 3.234 1.711 12.396 5.508 22.144 0 0-.754-12.918-4.69-23.352.26-.389.524-.788.794-1.208.503 2.419 2.639 11.578 7.75 21.064 0 0-.81-5.194-2.748-11.439 1.107 2.926 2.51 6.16 4.275 9.435 0 0-.59-3.79-1.965-8.787a69.895 69.895 0 0 0 4.251 6.553s-3.17-11.616-9.33-20.11l-.246.12c.385-.64.78-1.297 1.179-1.972.986 2.864 4.16 11.198 10.127 19.56 0 0-.775-2.822-2.275-6.736a88.162 88.162 0 0 0 2.839 4.766c.128.287.265.573.401.86 0 0-.027-.115-.056-.337l.2.316s-.12-.448-.35-1.23a125.887 125.887 0 0 0-2.778-12.363 91.723 91.723 0 0 0 5.74 10.11s-3.39-12.736-9.662-22.634c.439-.858.864-1.742 1.286-2.64.185.336.385.697.607 1.091.81 3.662 2.909 11.61 7.157 19.84 0 0-.909-6.367-3.205-13.523 2.208 3.223 5.058 6.947 8.552 10.627 0 0-.184-.417-.53-1.151.474.616.96 1.224 1.46 1.837 0 0-1.604-4.02-4.387-9.312 1.666 2.47 3.578 5.08 5.714 7.686 0 0-5.099-12.749-12.85-22.73.228-.555.447-1.113.675-1.664 1.446 2.791 6.036 11.032 13.658 19.058 0 0-5.213-11.86-13.134-20.376.157-.424.315-.858.475-1.281 1.88 3.464 6.27 10.823 13.095 18.01 0 0-.751-1.72-2.123-4.312a96.832 96.832 0 0 0 2.813 3.597s-4.812-12.023-12.2-21.868c.142-.431.27-.876.41-1.307 5.245 11.125 11.956 20.47 11.956 20.47-4.815-10.566-9.772-18.482-11.675-21.4.117-.391.235-.796.342-1.195a103.286 103.286 0 0 0 5.868 8.053c3.374 5.717 6.15 9.578 6.15 9.578a147.04 147.04 0 0 0-2.498-5.235c2.048 2.325 3.436 3.705 3.436 3.705a129.363 129.363 0 0 0-6.243-9.1 161.151 161.151 0 0 0-5.903-10.039c.083-.332.166-.667.24-1.004 3.955 5.934 8.366 10.965 10.73 13.529.678.993 1.08 1.553 1.08 1.553-.124-.27-.244-.525-.367-.795a57.35 57.35 0 0 0 1.013 1.06 116.251 116.251 0 0 0-1.922-2.99 164.387 164.387 0 0 0-3.115-6.201c2.674 4.348 4.676 7.131 4.676 7.131-4.173-9.154-8.45-16.322-10.766-19.971.043-.233.08-.474.123-.715 4.989 9.933 11.028 17.957 11.028 17.957a159.27 159.27 0 0 0-3.344-6.7c2.024 3.185 3.43 5.138 3.43 5.138-4.123-9.036-8.347-16.138-10.667-19.827.042-.394.088-.796.125-1.2 2.634 5.395 5.639 10.281 7.911 13.735.302.902.607 1.805.917 2.687l-.307-1.771c1.764 2.639 2.965 4.23 2.965 4.23a158.728 158.728 0 0 0-2.615-5.302 102.694 102.694 0 0 0 4.553 6.006s-1.476-3.675-4.04-8.626a178.15 178.15 0 0 0-.583-2.604c.471.579.925 1.128 1.375 1.664.641 1.693 1.294 3.37 1.978 5.031 0 0-.278-1.35-.783-3.64a125.2 125.2 0 0 0 2.705 3.016c.07.257.129.517.195.769 0 0-.037-.23-.093-.651 1.588 1.703 2.59 2.679 2.59 2.679-.449-.75-.89-1.493-1.336-2.213-.067-.541-.302-2.312-.669-4.972.046.043.1.088.147.128.31 1.6.634 3.21.974 4.85 0 0-.107-1.581-.335-4.276.29.26.578.503.845.739.187.927.37 1.86.567 2.797.099.854.195 1.704.3 2.58 0 0-.003-1.728-.07-4.694.056.05.107.094.158.137.026 1.623.05 3.255.088 4.92 0 0 .128-1.692.294-4.599.075.062.139.12.214.177.117 1.058.24 2.119.371 3.212 0 0-.008-1.047-.058-2.947.238.201.454.373.66.547-.003.878.005 1.768.01 2.67 0 0 .068-.916.161-2.528.468.383.832.664 1.088.865-.07 1.594-.128 3.22-.184 4.868 0 0 .508-3.662 1.15-9.374.053.989.104 1.985.17 2.998a572.35 572.35 0 0 0-.449 5.856c-.337 2.148-.676 4.34-1.01 6.574 0 0 4.33-18.91 7.416-38.472.131.144.254.292.388.436a2365.054 2365.054 0 0 0-6.366 39.488s4.369-19.023 6.697-39.1c.43.502.848 1.019 1.265 1.538-1.225 5.75-4.342 20.982-7.13 39.346 0 0 .205-.793.556-2.202.21-.627.62-1.843 1.163-3.493-.415 1.996-.819 4.048-1.23 6.14 0 0 1.32-4.744 3.096-11.881 1.483-4.603 3.232-10.178 4.684-15.225-1.1 4.498-2.42 10.373-3.463 16.235-.927 3.26-1.89 6.756-2.839 10.429 0 0 .85-2.368 2.142-6.21a95.988 95.988 0 0 0-.42 3 89.922 89.922 0 0 0-1.021 5.549s.232-.686.625-1.865c-.018.164-.037.33-.045.493 0 0 .15-.59.425-1.623.112-.37.243-.756.372-1.171-.385 1.479-.778 2.987-1.174 4.533 0 0 5.665-16.053 9.9-32.625l.035-.664.184.233c.083.046.174.094.265.147.125.239.262.472.395.713-.425-.153-.676-.238-.676-.238l.636.8c.147.08.3.159.452.247-.984 2.888-6.12 18.281-11.263 37.77 0 0 6.368-18.128 11.306-36.744l.072-.809c.273.53.537 1.066.797 1.613-.067.174-.145.431-.262.769-.022-.006-.062-.014-.062-.014l.048.054c-1.219 3.649-5.258 16.012-9.26 31.577-.305.854-.613 1.714-.918 2.593 0 0 .637-1.358 1.669-3.668a98.95 98.95 0 0 0-1.059 5.712s2.037-6.033 4.344-13.333a323.15 323.15 0 0 0 4.061-10.164 305.26 305.26 0 0 0-2.237 7.42 392.355 392.355 0 0 0-5.786 15.506s1.687-3.598 4.01-9.068c-.272 1.056-.531 2.122-.793 3.175a403.675 403.675 0 0 0-2.923 8.098s.85-1.819 2.182-4.825c-.473 2.173-.88 4.303-1.19 6.293 0 0 2.318-6.858 4.815-14.804 1.8-4.399 3.797-9.491 5.617-14.702l.158-1.259s-1.224 2.666-3.112 7.182c.369-1.259.72-2.491 1.053-3.665.49-1.323.97-2.652 1.441-3.988a58.66 58.66 0 0 0 1.995 1.082c.096.335.2.656.286.991-.18-.04-.361-.075-.545-.115l-.16.26.034-.274-.211.456.034-.115-.687-1.222s-1.858 5.259-3.989 12.296a410.675 410.675 0 0 0-6.729 17.877s1.976-4.206 4.593-10.429a193.471 193.471 0 0 0-1.852 7.383c-.84 2.312-1.7 4.745-2.562 7.257 0 0 .746-1.64 1.939-4.401a91.673 91.673 0 0 0-.717 3.823c-.26.734-.516 1.473-.77 2.229 0 0 .23-.512.64-1.444-.02.128-.04.246-.062.37 0 0 .125-.346.331-.973.503-1.15 1.203-2.751 2.03-4.696a344.804 344.804 0 0 0-2.439 6.78s6.09-13.006 11.08-27.065c.363.2.927.509 1.66.897-.035.075-.075.18-.129.295-.246-.048-.49-.1-.732-.14l-.14.21.08-.638s-5.726 12.508-11.58 29.308c0 0 6.357-13.572 11.404-27.971.123.059.292.15.514.26-1.674 3.905-6.449 15.254-11.315 29.49 0 0 1.3-2.856 3.192-7.354a376.182 376.182 0 0 0-3.25 8.966s6.37-13.612 11.429-28.038l.147-1.261s-.941 2.062-2.452 5.633c.88-2.354 1.765-4.79 2.615-7.26.195.102.42.21.668.33.091.841.185 1.693.257 2.556l-.53-.21-.09.11.016-.104s-.03.075-.086.2l-.385.497s.05.032.126.093c-1.345 3.078-6.422 14.981-11.62 30.157 0 0 1.85-4.056 4.367-10.137a443.913 443.913 0 0 0-2.947 8.075 635.268 635.268 0 0 0-1.88 4.457s.338-.602.913-1.68c-.123.352-.241.697-.356 1.045l.992-2.24c2.342-4.422 6.946-13.402 10.918-22.894l-.005-.364c.024.019.316.241.837.606-.008.605-.01 1.216-.027 1.83l-.452.631s.073.054.166.118l-.016.035s.096.102.262.257c-.016.453-.024.89-.053 1.34l-.506.608s.166.16.447.42c-.03.4-.056.826-.091 1.238a11.618 11.618 0 0 0-.227-.158l-.078.078.115-.94s-5.138 11.53-10.75 27.443a314.165 314.165 0 0 0-2.331 5.465s.457-.828 1.23-2.28c-.038.107-.075.209-.113.31 0 0 .206-.414.564-1.165 2.385-4.51 6.885-13.325 10.782-22.631l.206-1.22s-1.759 3.274-4.39 8.67c1.615-4.086 3.22-8.517 4.481-12.765.118.128.252.292.415.474a108.76 108.76 0 0 1-.49 4.383l-.066.05s.016.033.045.084c-.083.664-.176 1.328-.27 2.006-4.772 10.343-9.769 26.24-9.769 26.24 3.94-7.84 7.633-18.825 9.376-24.276-2.625 10.884-4.767 23.21-4.767 23.21 2.674-8.937 4.382-19.114 5.037-23.435-.134 3.048-.305 11.061 1.115 20.553 0 0 .484-7.29-.158-15.63.524 3.756 1.438 8.782 3.045 14.2 0 0-.588-10.714-3.395-20.342l-.302-.38c.032-.105.067-.204.096-.309.778 1.707 4.01 8.334 9.713 14.638 0 0-3.834-8.602-9.491-14.922z" transform="rotate(-50 153.373 316.345)"/>
</svg>
